GeoramaExtraCondensed-LightItalic.ufo
<glyph name="exclam" format="2">
  <advance width="128.4"/>
  <unicode hex="0021"/>
  <outline>
    <contour>
      <point x="40.4" y="263.0" type="line"/>
      <point x="83.2" y="263.0" type="line"/>
      <point x="162.2" y="740.0" type="line"/>
      <point x="114.0" y="740.0" type="line"/>
    </contour>
    <contour>
      <point x="-4.0" y="21.4" type="curve" smooth="yes"/>
      <point x="-4.800000000000001" y="4.800000000000001"/>
      <point x="0.6" y="-2.0"/>
      <point x="19.4" y="-2.0" type="curve" smooth="yes"/>
      <point x="49.2" y="-2.0"/>
      <point x="54.2" y="17.8"/>
      <point x="56.6" y="48.8" type="curve" smooth="yes"/>
      <point x="57.400000000000006" y="66.2"/>
      <point x="50.400000000000006" y="72.2"/>
      <point x="32.4" y="72.2" type="curve" smooth="yes"/>
      <point x="4.6" y="72.2"/>
      <point x="-1.6000000000000005" y="52.8"/>
    </contour>
  </outline>
</glyph>
<glyph name="numbersign" format="2">
  <advance width="284.0"/>
  <unicode hex="0023"/>
  <outline>
    <contour>
      <point x="67.2" y="465.8" type="line"/>
      <point x="117.2" y="465.8" type="line"/>
      <point x="56.6" y="233.4" type="line"/>
      <point x="10.600000000000001" y="233.4" type="line"/>
      <point x="2.4000000000000004" y="187.2" type="line"/>
      <point x="46.2" y="187.2" type="line"/>
      <point x="-2.5999999999999996" y="0.0" type="line"/>
      <point x="36.8" y="0.0" type="line"/>
      <point x="84.8" y="187.2" type="line"/>
      <point x="143.6" y="187.2" type="line"/>
      <point x="95.6" y="0.0" type="line"/>
      <point x="134.0" y="0.0" type="line"/>
      <point x="182.0" y="187.2" type="line"/>
      <point x="234.0" y="187.2" type="line"/>
      <point x="241.4" y="233.4" type="line"/>
      <point x="192.4" y="233.4" type="line"/>
      <point x="253.0" y="465.8" type="line"/>
      <point x="298.0" y="465.8" type="line"/>
      <point x="305.6" y="512.4" type="line"/>
      <point x="263.4" y="512.4" type="line"/>
      <point x="312.0" y="700.0" type="line"/>
      <point x="273.4" y="700.0" type="line"/>
      <point x="224.8" y="512.4" type="line"/>
      <point x="166.0" y="512.4" type="line"/>
      <point x="214.6" y="700.0" type="line"/>
      <point x="176.2" y="700.0" type="line"/>
      <point x="127.6" y="512.4" type="line"/>
      <point x="74.8" y="512.4" type="line"/>
    </contour>
    <contour>
      <point x="155.6" y="465.8" type="line"/>
      <point x="214.4" y="465.8" type="line"/>
      <point x="154.0" y="233.4" type="line"/>
      <point x="95.2" y="233.4" type="line"/>
    </contour>
  </outline>
</glyph>
<glyph name="dollar" format="2">
  <advance width="284.0"/>
  <unicode hex="0024"/>
  <outline>
    <contour>
      <point x="292.6" y="691.6" type="line"/>
      <point x="279.4" y="699.8"/>
      <point x="259.2" y="707.0"/>
      <point x="234.4" y="709.2" type="curve"/>
      <point x="249.4" y="804.6" type="line"/>
      <point x="205.8" y="804.6" type="line"/>
      <point x="189.4" y="705.8" type="line"/>
      <point x="99.6" y="693.6"/>
      <point x="72.8" y="593.2"/>
      <point x="72.8" y="522.8" type="curve" smooth="yes"/>
      <point x="72.8" y="380.4"/>
      <point x="179.8" y="289.6"/>
      <point x="179.8" y="174.6" type="curve" smooth="yes"/>
      <point x="179.8" y="109.2"/>
      <point x="148.6" y="39.2"/>
      <point x="78.4" y="39.2" type="curve" smooth="yes"/>
      <point x="51.400000000000006" y="39.2"/>
      <point x="27.6" y="43.400000000000006"/>
      <point x="3.4000000000000004" y="56.4" type="curve"/>
      <point x="-16.4" y="11.2" type="line"/>
      <point x="-0.1999999999999993" y="1.2000000000000002"/>
      <point x="25.8" y="-7.0"/>
      <point x="53.8" y="-8.8" type="curve"/>
      <point x="38.8" y="-105.0" type="line"/>
      <point x="82.4" y="-105.0" type="line"/>
      <point x="97.4" y="-7.4" type="line"/>
      <point x="194.6" y="4.0"/>
      <point x="228.2" y="102.4"/>
      <point x="228.2" y="178.8" type="curve" smooth="yes"/>
      <point x="228.2" y="320.6"/>
      <point x="122.8" y="407.8"/>
      <point x="122.8" y="523.6" type="curve" smooth="yes"/>
      <point x="122.8" y="581.8"/>
      <point x="148.0" y="660.8"/>
      <point x="215.8" y="660.8" type="curve" smooth="yes"/>
      <point x="239.4" y="660.8"/>
      <point x="254.4" y="656.8"/>
      <point x="273.8" y="647.2" type="curve"/>
    </contour>
  </outline>
</glyph>
<glyph name="ampersand" format="2">
  <advance width="354.2"/>
  <unicode hex="0026"/>
  <outline>
    <contour>
      <point x="126.0" y="-10.0" type="curve" smooth="yes"/>
      <point x="233.8" y="-10.0"/>
      <point x="321.4" y="157.2"/>
      <point x="290.2" y="294.2" type="curve"/>
      <point x="249.8" y="294.0" type="line"/>
      <point x="282.0" y="184.2"/>
      <point x="207.8" y="36.2"/>
      <point x="133.0" y="36.2" type="curve" smooth="yes"/>
      <point x="82.4" y="36.2"/>
      <point x="56.8" y="76.0"/>
      <point x="56.8" y="147.0" type="curve" smooth="yes"/>
      <point x="56.8" y="283.6"/>
      <point x="136.4" y="392.8"/>
      <point x="242.2" y="392.8" type="curve" smooth="yes"/>
      <point x="253.0" y="392.8" type="line"/>
      <point x="261.2" y="431.0" type="line"/>
      <point x="251.0" y="431.8" type="line" smooth="yes"/>
      <point x="199.2" y="433.0"/>
      <point x="173.4" y="472.0"/>
      <point x="173.4" y="541.6" type="curve" smooth="yes"/>
      <point x="173.4" y="611.8"/>
      <point x="213.4" y="665.2"/>
      <point x="262.6" y="665.2" type="curve" smooth="yes"/>
      <point x="287.2" y="665.2"/>
      <point x="304.8" y="659.2"/>
      <point x="328.2" y="640.4" type="curve"/>
      <point x="349.8" y="680.4" type="line"/>
      <point x="323.4" y="699.8"/>
      <point x="295.4" y="710.0"/>
      <point x="261.6" y="710.0" type="curve" smooth="yes"/>
      <point x="183.2" y="710.0"/>
      <point x="128.0" y="636.8"/>
      <point x="128.0" y="544.4" type="curve" smooth="yes"/>
      <point x="128.0" y="481.6"/>
      <point x="149.0" y="437.6"/>
      <point x="187.6" y="415.6" type="curve"/>
      <point x="85.2" y="388.8"/>
      <point x="10.6" y="279.2"/>
      <point x="10.6" y="138.2" type="curve" smooth="yes"/>
      <point x="10.6" y="47.0"/>
      <point x="50.4" y="-10.0"/>
    </contour>
    <contour>
      <point x="194.4" y="258.2" type="line"/>
      <point x="198.4" y="278.2"/>
      <point x="208.6" y="289.2"/>
      <point x="228.2" y="289.2" type="curve" smooth="yes"/>
      <point x="256.2" y="289.2"/>
      <point x="275.2" y="279.6"/>
      <point x="309.2" y="279.6" type="curve" smooth="yes"/>
      <point x="343.6" y="279.6"/>
      <point x="366.2" y="305.0"/>
      <point x="368.8" y="337.2" type="curve"/>
      <point x="336.2" y="344.4" type="line"/>
      <point x="330.2" y="320.4"/>
      <point x="316.2" y="313.6"/>
      <point x="293.2" y="313.6" type="curve" smooth="yes"/>
      <point x="271.6" y="313.6"/>
      <point x="245.2" y="323.2"/>
      <point x="222.0" y="323.2" type="curve" smooth="yes"/>
      <point x="184.2" y="323.2"/>
      <point x="167.4" y="299.0"/>
      <point x="160.2" y="267.6" type="curve"/>
    </contour>
  </outline>
</glyph>
<glyph name="quotesingle" format="2">
  <advance width="126.2"/>
  <unicode hex="0027"/>
  <outline>
    <contour>
      <point x="67.4" y="427.0" type="line"/>
      <point x="105.8" y="427.0" type="line"/>
      <point x="154.0" y="700.0" type="line"/>
      <point x="106.2" y="700.0" type="line"/>
    </contour>
  </outline>
</glyph>
<glyph name="parenleft" format="2">
  <advance width="177.4"/>
  <unicode hex="0028"/>
  <outline>
    <contour>
      <point x="18.6" y="-8.0" type="curve" smooth="yes"/>
      <point x="18.6" y="-121.0"/>
      <point x="41.0" y="-197.6"/>
      <point x="83.8" y="-220.0" type="curve"/>
      <point x="99.6" y="-175.6" type="line"/>
      <point x="77.4" y="-159.8"/>
      <point x="59.2" y="-98.0"/>
      <point x="59.2" y="-1.5999999999999996" type="curve" smooth="yes"/>
      <point x="59.2" y="166.4"/>
      <point x="135.0" y="647.0"/>
      <point x="236.8" y="702.4" type="curve"/>
      <point x="236.2" y="749.2" type="line"/>
      <point x="94.0" y="684.4"/>
      <point x="18.6" y="215.2"/>
    </contour>
  </outline>
</glyph>
<glyph name="parenright" format="2">
  <advance width="177.4"/>
  <unicode hex="0029"/>
  <outline>
    <contour>
      <point x="156.6" y="538.0" type="curve" smooth="yes"/>
      <point x="156.6" y="651.0"/>
      <point x="135.0" y="727.6"/>
      <point x="92.2" y="750.0" type="curve"/>
      <point x="78.0" y="703.2" type="line"/>
      <point x="101.8" y="682.6"/>
      <point x="116.0" y="626.4"/>
      <point x="116.0" y="542.0" type="curve" smooth="yes"/>
      <point x="116.0" y="364.4"/>
      <point x="39.4" y="-119.4"/>
      <point x="-62.4" y="-174.0" type="curve"/>
      <point x="-61.0" y="-220.0" type="line"/>
      <point x="79.6" y="-150.4"/>
      <point x="156.6" y="316.4"/>
    </contour>
  </outline>
</glyph>
<glyph name="asterisk" format="2">
  <advance width="204.8"/>
  <unicode hex="002A"/>
  <outline>
    <contour>
      <point x="77.0" y="403.2" type="line"/>
      <point x="135.6" y="484.2" type="line"/>
      <point x="167.4" y="404.0" type="line"/>
      <point x="193.0" y="421.2" type="line"/>
      <point x="164.2" y="509.6" type="line"/>
      <point x="241.6" y="551.0" type="line"/>
      <point x="236.2" y="579.2" type="line"/>
      <point x="160.8" y="545.6" type="line"/>
      <point x="175.2" y="651.2" type="line"/>
      <point x="147.2" y="651.2" type="line"/>
      <point x="128.4" y="546.4" type="line"/>
      <point x="64.2" y="580.0" type="line"/>
      <point x="50.4" y="552.6" type="line"/>
      <point x="113.2" y="511.2" type="line"/>
      <point x="55.8" y="421.2" type="line"/>
    </contour>
  </outline>
</glyph>
<glyph name="plus" format="2">
  <advance width="349.4"/>
  <unicode hex="002B"/>
  <outline>
    <contour>
      <point x="124.0" y="90.2" type="line"/>
      <point x="168.0" y="90.2" type="line"/>
      <point x="197.2" y="273.4" type="line"/>
      <point x="309.8" y="273.4" type="line"/>
      <point x="317.2" y="320.6" type="line"/>
      <point x="204.6" y="320.6" type="line"/>
      <point x="233.8" y="504.6" type="line"/>
      <point x="189.8" y="504.6" type="line"/>
      <point x="160.6" y="320.6" type="line"/>
      <point x="47.2" y="320.6" type="line"/>
      <point x="39.8" y="273.4" type="line"/>
      <point x="153.2" y="273.4" type="line"/>
    </contour>
  </outline>
</glyph>
<glyph name="comma" format="2">
  <advance width="110.0"/>
  <unicode hex="002C"/>
  <outline>
    <contour>
      <point x="-3.6" y="49.4" type="line"/>
      <point x="-3.0" y="34.0"/>
      <point x="-3.8000000000000003" y="18.8"/>
      <point x="-4.4" y="7.800000000000001" type="curve" smooth="yes"/>
      <point x="-6.2" y="-55.0"/>
      <point x="-40.4" y="-141.4"/>
      <point x="-81.8" y="-178.6" type="curve"/>
      <point x="-53.8" y="-197.8" type="line"/>
      <point x="16.200000000000003" y="-138.4"/>
      <point x="42.400000000000006" y="-33.2"/>
      <point x="42.400000000000006" y="20.6" type="curve" smooth="yes"/>
      <point x="42.400000000000006" y="31.8"/>
      <point x="42.2" y="42.0"/>
      <point x="40.6" y="55.2" type="curve"/>
    </contour>
  </outline>
</glyph>
<glyph name="hyphen" format="2">
  <advance width="192.6"/>
  <unicode hex="002D"/>
  <outline>
    <contour>
      <point x="14.2" y="249.2" type="line"/>
      <point x="170.0" y="249.2" type="line"/>
      <point x="179.0" y="299.2" type="line"/>
      <point x="23.200000000000003" y="299.2" type="line"/>
    </contour>
  </outline>
</glyph>
<glyph name="period" format="2">
  <advance width="110.0"/>
  <unicode hex="002E"/>
  <outline>
    <contour>
      <point x="-13.2" y="22.0" type="curve" smooth="yes"/>
      <point x="-14.0" y="5.2"/>
      <point x="-8.8" y="-1.4000000000000001"/>
      <point x="10.200000000000001" y="-1.4000000000000001" type="curve" smooth="yes"/>
      <point x="40.0" y="-1.4000000000000001"/>
      <point x="44.8" y="18.400000000000002"/>
      <point x="47.2" y="49.8" type="curve" smooth="yes"/>
      <point x="48.0" y="67.0"/>
      <point x="41.2" y="72.80000000000001"/>
      <point x="23.2" y="72.80000000000001" type="curve" smooth="yes"/>
      <point x="-4.8" y="72.80000000000001"/>
      <point x="-10.8" y="53.400000000000006"/>
    </contour>
  </outline>
</glyph>
<glyph name="slash" format="2">
  <advance width="225.6"/>
  <unicode hex="002F"/>
  <outline>
    <contour>
      <point x="-70.2" y="-210.0" type="line"/>
      <point x="-28.2" y="-210.0" type="line"/>
      <point x="292.8" y="740.0" type="line"/>
      <point x="250.4" y="740.0" type="line"/>
    </contour>
  </outline>
</glyph>
<glyph name="zero" format="2">
  <advance width="284.0"/>
  <unicode hex="0030"/>
  <outline>
    <contour>
      <point x="98.4" y="-10.0" type="curve" smooth="yes"/>
      <point x="240.4" y="-10.0"/>
      <point x="296.8" y="366.0"/>
      <point x="296.8" y="557.4" type="curve" smooth="yes"/>
      <point x="296.8" y="671.6"/>
      <point x="270.6" y="710.0"/>
      <point x="208.4" y="710.0" type="curve" smooth="yes"/>
      <point x="66.4" y="710.0"/>
      <point x="10.0" y="334.8"/>
      <point x="10.0" y="143.4" type="curve" smooth="yes"/>
      <point x="10.0" y="29.2"/>
      <point x="36.2" y="-10.0"/>
    </contour>
    <contour>
      <point x="103.2" y="39.400000000000006" type="curve" smooth="yes"/>
      <point x="69.2" y="39.400000000000006"/>
      <point x="56.400000000000006" y="65.0"/>
      <point x="57.400000000000006" y="142.8" type="curve" smooth="yes"/>
      <point x="59.0" y="307.4"/>
      <point x="112.8" y="660.6"/>
      <point x="203.6" y="660.6" type="curve" smooth="yes"/>
      <point x="237.6" y="660.6"/>
      <point x="250.4" y="635.0"/>
      <point x="249.4" y="557.2" type="curve" smooth="yes"/>
      <point x="247.8" y="392.6"/>
      <point x="194.0" y="39.400000000000006"/>
    </contour>
  </outline>
</glyph>
<glyph name="one" format="2">
  <advance width="284.0"/>
  <unicode hex="0031"/>
  <outline>
    <contour>
      <point x="-7.0" y="0.0" type="line"/>
      <point x="226.4" y="0.0" type="line"/>
      <point x="234.0" y="48.0" type="line"/>
      <point x="142.0" y="48.0" type="line"/>
      <point x="245.8" y="700.0" type="line"/>
      <point x="221.0" y="700.0" type="line"/>
      <point x="70.4" y="594.0" type="line"/>
      <point x="78.4" y="545.8" type="line"/>
      <point x="186.6" y="628.2" type="line"/>
      <point x="94.4" y="48.0" type="line"/>
      <point x="0.40000000000000036" y="48.0" type="line"/>
    </contour>
  </outline>
</glyph>
<glyph name="two" format="2">
  <advance width="284.0"/>
  <unicode hex="0032"/>
  <outline>
    <contour>
      <point x="0.0" y="39.8" type="curve"/>
      <point x="-2.4" y="0.0" type="line"/>
      <point x="212.8" y="0.0" type="line"/>
      <point x="219.8" y="43.8" type="line"/>
      <point x="51.6" y="43.8" type="line"/>
      <point x="173.4" y="254.0"/>
      <point x="279.2" y="445.0"/>
      <point x="279.2" y="595.2" type="curve" smooth="yes"/>
      <point x="279.2" y="665.2"/>
      <point x="251.0" y="710.0"/>
      <point x="195.8" y="710.0" type="curve" smooth="yes"/>
      <point x="152.8" y="710.0"/>
      <point x="117.0" y="692.8"/>
      <point x="83.6" y="656.2" type="curve"/>
      <point x="98.0" y="615.2" type="line"/>
      <point x="129.6" y="646.8"/>
      <point x="149.4" y="659.0"/>
      <point x="179.6" y="659.0" type="curve" smooth="yes"/>
      <point x="213.4" y="659.0"/>
      <point x="230.2" y="629.0"/>
      <point x="230.2" y="580.2" type="curve" smooth="yes"/>
      <point x="229.6" y="452.8"/>
      <point x="137.6" y="275.0"/>
    </contour>
  </outline>
</glyph>
<glyph name="three" format="2">
  <advance width="284.0"/>
  <unicode hex="0033"/>
  <outline>
    <contour>
      <point x="-22.8" y="34.0" type="line"/>
      <point x="-2.3999999999999995" y="5.8"/>
      <point x="30.8" y="-10.0"/>
      <point x="74.0" y="-10.0" type="curve" smooth="yes"/>
      <point x="168.6" y="-10.0"/>
      <point x="237.0" y="97.2"/>
      <point x="237.0" y="252.6" type="curve" smooth="yes"/>
      <point x="237.0" y="320.2"/>
      <point x="215.0" y="359.0"/>
      <point x="188.4" y="370.6" type="curve"/>
      <point x="233.8" y="396.4"/>
      <point x="275.2" y="474.2"/>
      <point x="275.2" y="577.0" type="curve" smooth="yes"/>
      <point x="275.2" y="657.4"/>
      <point x="241.0" y="710.0"/>
      <point x="181.6" y="710.0" type="curve" smooth="yes"/>
      <point x="147.8" y="710.0"/>
      <point x="109.0" y="694.2"/>
      <point x="84.4" y="672.6" type="curve"/>
      <point x="98.4" y="632.4" type="line"/>
      <point x="118.8" y="649.4"/>
      <point x="141.0" y="658.4"/>
      <point x="166.4" y="658.4" type="curve" smooth="yes"/>
      <point x="202.8" y="658.4"/>
      <point x="225.6" y="616.0"/>
      <point x="225.6" y="558.8" type="curve" smooth="yes"/>
      <point x="225.6" y="474.8"/>
      <point x="187.6" y="386.4"/>
      <point x="138.8" y="386.4" type="curve" smooth="yes"/>
      <point x="104.2" y="386.4" type="line"/>
      <point x="97.4" y="345.2" type="line"/>
      <point x="140.6" y="345.2" type="line" smooth="yes"/>
      <point x="172.2" y="345.2"/>
      <point x="189.8" y="311.6"/>
      <point x="189.8" y="250.2" type="curve" smooth="yes"/>
      <point x="189.8" y="132.2"/>
      <point x="144.8" y="40.0"/>
      <point x="74.8" y="40.0" type="curve" smooth="yes"/>
      <point x="45.0" y="40.0"/>
      <point x="23.400000000000002" y="50.8"/>
      <point x="4.800000000000001" y="73.2" type="curve"/>
    </contour>
  </outline>
</glyph>
<glyph name="four" format="2">
  <advance width="284.0"/>
  <unicode hex="0034"/>
  <outline>
    <contour>
      <point x="9.2" y="169.8" type="line"/>
      <point x="151.4" y="169.8" type="line"/>
      <point x="124.8" y="0.0" type="line"/>
      <point x="174.0" y="0.0" type="line"/>
      <point x="200.6" y="169.8" type="line"/>
      <point x="253.6" y="169.8" type="line"/>
      <point x="260.6" y="215.2" type="line"/>
      <point x="207.8" y="215.2" type="line"/>
      <point x="284.6" y="699.2" type="line"/>
      <point x="235.0" y="703.2" type="line"/>
      <point x="11.4" y="212.8" type="line"/>
    </contour>
    <contour>
      <point x="46.400000000000006" y="215.2" type="line"/>
      <point x="221.2" y="594.8" type="line"/>
      <point x="160.2" y="215.2" type="line"/>
    </contour>
  </outline>
</glyph>
<glyph name="five" format="2">
  <advance width="284.0"/>
  <unicode hex="0035"/>
  <outline>
    <contour>
      <point x="-14.8" y="36.2" type="line"/>
      <point x="5.2" y="6.2"/>
      <point x="34.2" y="-10.0"/>
      <point x="73.4" y="-10.0" type="curve" smooth="yes"/>
      <point x="203.2" y="-10.0"/>
      <point x="244.0" y="158.8"/>
      <point x="244.0" y="262.2" type="curve" smooth="yes"/>
      <point x="244.0" y="342.8"/>
      <point x="214.0" y="388.6"/>
      <point x="155.4" y="389.8" type="curve" smooth="yes"/>
      <point x="110.4" y="390.2" type="line"/>
      <point x="163.4" y="649.4" type="line"/>
      <point x="286.8" y="649.4" type="line"/>
      <point x="294.4" y="700.0" type="line"/>
      <point x="130.8" y="700.0" type="line"/>
      <point x="58.0" y="354.6" type="line"/>
      <point x="66.2" y="343.2" type="line"/>
      <point x="130.0" y="343.2" type="line" smooth="yes"/>
      <point x="177.6" y="343.2"/>
      <point x="194.0" y="307.8"/>
      <point x="194.0" y="249.2" type="curve" smooth="yes"/>
      <point x="194.0" y="180.0"/>
      <point x="167.0" y="40.2"/>
      <point x="75.0" y="40.2" type="curve" smooth="yes"/>
      <point x="43.2" y="40.2"/>
      <point x="23.200000000000003" y="57.8"/>
      <point x="10.200000000000001" y="76.8" type="curve"/>
    </contour>
  </outline>
</glyph>
<glyph name="six" format="2">
  <advance width="284.0"/>
  <unicode hex="0036"/>
  <note>
14
</note>
  <outline>
    <contour>
      <point x="103.8" y="-10.0" type="curve" smooth="yes"/>
      <point x="194.0" y="-10.0"/>
      <point x="255.2" y="114.4"/>
      <point x="255.2" y="283.2" type="curve" smooth="yes"/>
      <point x="255.2" y="368.6"/>
      <point x="222.2" y="410.0"/>
      <point x="171.2" y="410.0" type="curve" smooth="yes"/>
      <point x="130.6" y="410.0"/>
      <point x="91.0" y="376.4"/>
      <point x="62.800000000000004" y="307.8" type="curve"/>
      <point x="55.800000000000004" y="226.4" type="line"/>
      <point x="76.2" y="305.8"/>
      <point x="114.2" y="365.8"/>
      <point x="157.4" y="365.8" type="curve" smooth="yes"/>
      <point x="190.0" y="365.8"/>
      <point x="206.8" y="332.4"/>
      <point x="206.8" y="270.6" type="curve" smooth="yes"/>
      <point x="206.8" y="147.0"/>
      <point x="161.0" y="35.6"/>
      <point x="106.8" y="35.6" type="curve" smooth="yes"/>
      <point x="76.0" y="35.6"/>
      <point x="59.2" y="71.0"/>
      <point x="59.2" y="135.2" type="curve" smooth="yes"/>
      <point x="59.2" y="267.4"/>
      <point x="82.4" y="405.2"/>
      <point x="117.0" y="517.0" type="curve" smooth="yes"/>
      <point x="144.8" y="605.4"/>
      <point x="183.4" y="661.8"/>
      <point x="236.2" y="661.8" type="curve" smooth="yes"/>
      <point x="258.0" y="661.8"/>
      <point x="275.0" y="653.0"/>
      <point x="294.8" y="638.2" type="curve"/>
      <point x="318.4" y="679.6" type="line"/>
      <point x="295.4" y="698.8"/>
      <point x="270.6" y="710.0"/>
      <point x="235.0" y="710.0" type="curve" smooth="yes"/>
      <point x="98.4" y="710.0"/>
      <point x="12.6" y="428.2"/>
      <point x="12.6" y="137.6" type="curve" smooth="yes"/>
      <point x="12.6" y="36.2"/>
      <point x="43.6" y="-10.0"/>
    </contour>
  </outline>
</glyph>
<glyph name="seven" format="2">
  <advance width="284.0"/>
  <unicode hex="0037"/>
  <note>
9
</note>
  <outline>
    <contour>
      <point x="41.8" y="0.0" type="curve"/>
      <point x="91.6" y="0.0" type="line"/>
      <point x="110.4" y="111.8"/>
      <point x="134.6" y="219.2"/>
      <point x="211.2" y="411.2" type="curve" smooth="yes"/>
      <point x="310.6" y="660.8" type="line"/>
      <point x="317.0" y="700.0" type="line"/>
      <point x="83.4" y="700.0" type="line"/>
      <point x="75.6" y="650.2" type="line"/>
      <point x="258.0" y="650.2" type="line"/>
      <point x="169.4" y="431.6" type="line" smooth="yes"/>
      <point x="98.6" y="257.2"/>
      <point x="63.8" y="139.0"/>
    </contour>
  </outline>
</glyph>
<glyph name="eight" format="2">
  <advance width="284.0"/>
  <unicode hex="0038"/>
  <outline>
    <contour>
      <point x="109.4" y="-10.0" type="curve" smooth="yes"/>
      <point x="205.0" y="-10.0"/>
      <point x="253.8" y="80.6"/>
      <point x="253.8" y="192.0" type="curve" smooth="yes"/>
      <point x="253.8" y="353.2"/>
      <point x="111.2" y="390.6"/>
      <point x="111.2" y="532.2" type="curve" smooth="yes"/>
      <point x="111.2" y="607.2"/>
      <point x="137.6" y="663.4"/>
      <point x="193.2" y="663.4" type="curve" smooth="yes"/>
      <point x="235.2" y="663.4"/>
      <point x="251.4" y="629.8"/>
      <point x="251.4" y="575.8" type="curve" smooth="yes"/>
      <point x="251.4" y="493.2"/>
      <point x="218.6" y="426.2"/>
      <point x="153.2" y="381.8" type="curve"/>
      <point x="178.2" y="354.0" type="line"/>
      <point x="255.4" y="403.8"/>
      <point x="296.8" y="485.4"/>
      <point x="296.8" y="584.6" type="curve" smooth="yes"/>
      <point x="296.8" y="658.4"/>
      <point x="267.2" y="710.0"/>
      <point x="194.6" y="710.0" type="curve" smooth="yes"/>
      <point x="104.6" y="710.0"/>
      <point x="63.8" y="628.2"/>
      <point x="63.8" y="523.8" type="curve" smooth="yes"/>
      <point x="63.8" y="361.4"/>
      <point x="206.4" y="333.2"/>
      <point x="206.4" y="183.6" type="curve" smooth="yes"/>
      <point x="206.4" y="103.8"/>
      <point x="174.0" y="35.400000000000006"/>
      <point x="112.0" y="35.400000000000006" type="curve" smooth="yes"/>
      <point x="64.8" y="35.400000000000006"/>
      <point x="43.2" y="68.6"/>
      <point x="43.2" y="131.6" type="curve" smooth="yes"/>
      <point x="43.2" y="225.0"/>
      <point x="75.8" y="309.0"/>
      <point x="150.4" y="351.4" type="curve"/>
      <point x="123.6" y="383.0" type="line"/>
      <point x="34.6" y="331.2"/>
      <point x="-5.6" y="232.2"/>
      <point x="-5.6" y="123.4" type="curve" smooth="yes"/>
      <point x="-5.6" y="39.0"/>
      <point x="27.8" y="-10.0"/>
    </contour>
  </outline>
</glyph>
<glyph name="nine" format="2">
  <advance width="284.0"/>
  <unicode hex="0039"/>
  <outline>
    <contour>
      <point x="202.8" y="710.0" type="curve" smooth="yes"/>
      <point x="112.6" y="710.0"/>
      <point x="51.0" y="585.6"/>
      <point x="51.0" y="416.8" type="curve" smooth="yes"/>
      <point x="51.0" y="331.4"/>
      <point x="82.8" y="290.4"/>
      <point x="133.4" y="290.4" type="curve" smooth="yes"/>
      <point x="174.4" y="290.4"/>
      <point x="215.6" y="322.4"/>
      <point x="243.4" y="396.2" type="curve"/>
      <point x="250.4" y="474.0" type="line"/>
      <point x="230.4" y="394.6"/>
      <point x="192.0" y="334.6"/>
      <point x="148.8" y="334.6" type="curve" smooth="yes"/>
      <point x="116.6" y="334.6"/>
      <point x="99.8" y="367.6"/>
      <point x="99.8" y="429.4" type="curve" smooth="yes"/>
      <point x="99.8" y="553.4"/>
      <point x="145.6" y="664.4"/>
      <point x="199.4" y="664.4" type="curve" smooth="yes"/>
      <point x="229.8" y="664.4"/>
      <point x="247.0" y="629.0"/>
      <point x="247.0" y="565.2" type="curve" smooth="yes"/>
      <point x="247.0" y="436.6"/>
      <point x="224.2" y="295.2"/>
      <point x="189.2" y="183.0" type="curve" smooth="yes"/>
      <point x="161.8" y="94.6"/>
      <point x="123.6" y="38.2"/>
      <point x="74.6" y="38.2" type="curve" smooth="yes"/>
      <point x="53.2" y="38.2"/>
      <point x="32.2" y="46.400000000000006"/>
      <point x="11.4" y="70.2" type="curve"/>
      <point x="-12.2" y="28.4" type="line"/>
      <point x="12.2" y="0.6000000000000001"/>
      <point x="41.0" y="-10.0"/>
      <point x="77.4" y="-10.0" type="curve" smooth="yes"/>
      <point x="205.4" y="-10.0"/>
      <point x="293.6" y="271.8"/>
      <point x="293.6" y="562.8" type="curve" smooth="yes"/>
      <point x="293.6" y="664.2"/>
      <point x="262.6" y="710.0"/>
    </contour>
  </outline>
</glyph>
<glyph name="less" format="2">
  <advance width="349.2"/>
  <unicode hex="003C"/>
  <outline>
    <contour>
      <point x="284.6" y="92.8" type="line"/>
      <point x="291.4" y="138.8" type="line"/>
      <point x="80.6" y="293.6" type="line"/>
      <point x="341.0" y="449.4" type="line"/>
      <point x="347.8" y="496.8" type="line"/>
      <point x="43.8" y="320.6" type="line"/>
      <point x="35.6" y="269.8" type="line"/>
    </contour>
  </outline>
</glyph>
<glyph name="equal" format="2">
  <advance width="341.8"/>
  <unicode hex="003D"/>
  <outline>
    <contour>
      <point x="291.6" y="213.8" type="line"/>
      <point x="30.8" y="213.8" type="line"/>
      <point x="23.8" y="165.8" type="line"/>
      <point x="284.6" y="165.8" type="line"/>
    </contour>
    <contour>
      <point x="323.4" y="424.0" type="line"/>
      <point x="62.8" y="424.0" type="line"/>
      <point x="55.6" y="376.0" type="line"/>
      <point x="316.4" y="376.0" type="line"/>
    </contour>
  </outline>
</glyph>
<glyph name="greater" format="2">
  <advance width="349.2"/>
  <unicode hex="003E"/>
  <outline>
    <contour>
      <point x="312.4" y="267.4" type="line"/>
      <point x="320.6" y="318.2" type="line"/>
      <point x="71.0" y="495.2" type="line"/>
      <point x="64.2" y="449.4" type="line"/>
      <point x="276.0" y="294.4" type="line"/>
      <point x="15.4" y="139.6" type="line"/>
      <point x="7.8" y="91.2" type="line"/>
    </contour>
  </outline>
</glyph>
<glyph name="question" format="2">
  <advance width="244.0"/>
  <unicode hex="003F"/>
  <outline>
    <contour>
      <point x="84.6" y="263.2" type="line"/>
      <point x="127.4" y="263.2" type="line"/>
      <point x="139.4" y="340.0" type="line"/>
      <point x="219.2" y="420.4"/>
      <point x="278.4" y="484.0"/>
      <point x="278.4" y="621.2" type="curve" smooth="yes"/>
      <point x="278.4" y="705.8"/>
      <point x="240.4" y="750.0"/>
      <point x="183.2" y="750.0" type="curve" smooth="yes"/>
      <point x="146.6" y="750.0"/>
      <point x="108.0" y="729.4"/>
      <point x="75.6" y="696.6" type="curve"/>
      <point x="89.8" y="653.6" type="line"/>
      <point x="119.8" y="683.4"/>
      <point x="145.4" y="697.0"/>
      <point x="169.8" y="697.0" type="curve" smooth="yes"/>
      <point x="204.2" y="697.0"/>
      <point x="227.4" y="666.8"/>
      <point x="227.4" y="608.6" type="curve" smooth="yes"/>
      <point x="227.4" y="505.6"/>
      <point x="185.8" y="442.0"/>
      <point x="99.8" y="363.0" type="curve"/>
    </contour>
    <contour>
      <point x="40.6" y="21.200000000000003" type="curve" smooth="yes"/>
      <point x="40.0" y="4.4"/>
      <point x="45.0" y="-2.0"/>
      <point x="63.6" y="-2.0" type="curve" smooth="yes"/>
      <point x="93.6" y="-2.0"/>
      <point x="99.2" y="17.0"/>
      <point x="101.0" y="48.400000000000006" type="curve" smooth="yes"/>
      <point x="101.6" y="66.2"/>
      <point x="95.0" y="72.0"/>
      <point x="77.4" y="72.0" type="curve" smooth="yes"/>
      <point x="49.0" y="72.0"/>
      <point x="42.4" y="53.0"/>
    </contour>
  </outline>
</glyph>
<glyph name="at" format="2">
  <advance width="457.8"/>
  <unicode hex="0040"/>
  <outline>
    <contour>
      <point x="169.0" y="-124.0" type="curve" smooth="yes"/>
      <point x="218.0" y="-124.0"/>
      <point x="264.4" y="-101.0"/>
      <point x="294.2" y="-57.0" type="curve"/>
      <point x="279.4" y="-38.6" type="line"/>
      <point x="252.8" y="-76.0"/>
      <point x="215.6" y="-95.6"/>
      <point x="170.6" y="-95.6" type="curve" smooth="yes"/>
      <point x="87.0" y="-95.6"/>
      <point x="36.400000000000006" y="-32.8"/>
      <point x="36.400000000000006" y="102.6" type="curve" smooth="yes"/>
      <point x="36.400000000000006" y="400.2"/>
      <point x="155.2" y="681.0"/>
      <point x="313.2" y="681.0" type="curve" smooth="yes"/>
      <point x="391.8" y="681.0"/>
      <point x="438.4" y="642.2"/>
      <point x="438.4" y="515.8" type="curve" smooth="yes"/>
      <point x="438.4" y="336.2"/>
      <point x="376.2" y="93.6"/>
      <point x="314.0" y="93.6" type="curve" smooth="yes"/>
      <point x="280.8" y="93.6"/>
      <point x="289.2" y="157.6"/>
      <point x="297.4" y="194.8" type="curve" smooth="yes"/>
      <point x="372.4" y="523.0" type="line"/>
      <point x="342.6" y="537.2"/>
      <point x="318.4" y="543.6"/>
      <point x="287.4" y="543.6" type="curve" smooth="yes"/>
      <point x="189.6" y="543.6"/>
      <point x="109.2" y="307.4"/>
      <point x="109.2" y="138.4" type="curve" smooth="yes"/>
      <point x="109.2" y="84.4"/>
      <point x="130.6" y="59.0"/>
      <point x="163.8" y="59.0" type="curve" smooth="yes"/>
      <point x="197.8" y="59.0"/>
      <point x="229.4" y="86.0"/>
      <point x="253.2" y="141.6" type="curve"/>
      <point x="256.4" y="118.4"/>
      <point x="253.0" y="58.2"/>
      <point x="307.0" y="58.2" type="curve" smooth="yes"/>
      <point x="399.0" y="58.2"/>
      <point x="468.6" y="327.2"/>
      <point x="468.6" y="523.4" type="curve" smooth="yes"/>
      <point x="468.6" y="653.4"/>
      <point x="409.6" y="710.0"/>
      <point x="317.4" y="710.0" type="curve" smooth="yes"/>
      <point x="136.4" y="710.0"/>
      <point x="5.800000000000001" y="422.8"/>
      <point x="5.800000000000001" y="93.2" type="curve" smooth="yes"/>
      <point x="5.800000000000001" y="-48.0"/>
      <point x="63.6" y="-124.0"/>
    </contour>
    <contour>
      <point x="183.6" y="106.2" type="curve" smooth="yes"/>
      <point x="167.2" y="106.2"/>
      <point x="158.0" y="122.2"/>
      <point x="158.0" y="154.0" type="curve" smooth="yes"/>
      <point x="158.0" y="295.4"/>
      <point x="234.0" y="504.8"/>
      <point x="285.0" y="504.8" type="curve" smooth="yes"/>
      <point x="296.8" y="504.8"/>
      <point x="311.0" y="502.2"/>
      <point x="323.0" y="496.6" type="curve"/>
      <point x="260.6" y="228.2" type="line" smooth="yes"/>
      <point x="241.8" y="150.2"/>
      <point x="209.8" y="106.2"/>
    </contour>
  </outline>
</glyph>
<glyph name="A" format="2">
  <advance width="303.8"/>
  <unicode hex="0041"/>
  <anchor x="105.6" y="0.0" name="bottom"/>
  <anchor x="243.4" y="0.0" name="ogonek"/>
  <anchor x="214.2" y="700.0" name="top"/>
  <outline>
    <contour>
      <point x="-27.6" y="0.0" type="line"/>
      <point x="21.200000000000003" y="0.0" type="line"/>
      <point x="80.8" y="196.0" type="line"/>
      <point x="196.0" y="196.0" type="line"/>
      <point x="194.2" y="0.0" type="line"/>
      <point x="243.4" y="0.0" type="line"/>
      <point x="249.2" y="708.0" type="line"/>
      <point x="183.8" y="708.0" type="line"/>
    </contour>
    <contour>
      <point x="92.8" y="243.2" type="line"/>
      <point x="204.6" y="631.4" type="line"/>
      <point x="199.2" y="243.2" type="line"/>
    </contour>
  </outline>
</glyph>
<glyph name="B" format="2">
  <advance width="287.4"/>
  <unicode hex="0042"/>
  <outline>
    <contour>
      <point x="-5.4" y="-3.8" type="line"/>
      <point x="26.0" y="-8.4"/>
      <point x="48.6" y="-10.0"/>
      <point x="78.4" y="-10.0" type="curve" smooth="yes"/>
      <point x="215.6" y="-10.0"/>
      <point x="259.0" y="132.8"/>
      <point x="259.0" y="240.8" type="curve" smooth="yes"/>
      <point x="259.0" y="308.4"/>
      <point x="234.2" y="347.6"/>
      <point x="196.2" y="362.4" type="curve"/>
      <point x="269.6" y="395.4"/>
      <point x="298.6" y="511.0"/>
      <point x="298.6" y="590.6" type="curve" smooth="yes"/>
      <point x="298.6" y="668.6"/>
      <point x="264.6" y="710.0"/>
      <point x="188.0" y="710.0" type="curve" smooth="yes"/>
      <point x="168.0" y="710.0"/>
      <point x="140.0" y="707.8"/>
      <point x="105.8" y="702.2" type="curve"/>
    </contour>
    <contour>
      <point x="102.4" y="376.0" type="line"/>
      <point x="147.2" y="661.0" type="line"/>
      <point x="161.2" y="663.8"/>
      <point x="174.2" y="665.0"/>
      <point x="186.0" y="665.0" type="curve" smooth="yes"/>
      <point x="230.6" y="665.0"/>
      <point x="252.8" y="639.8"/>
      <point x="252.8" y="575.8" type="curve" smooth="yes"/>
      <point x="252.8" y="493.4"/>
      <point x="213.2" y="376.0"/>
      <point x="143.2" y="376.0" type="curve" smooth="yes"/>
    </contour>
    <contour>
      <point x="95.4" y="331.4" type="line"/>
      <point x="147.6" y="331.4" type="line" smooth="yes"/>
      <point x="185.2" y="331.4"/>
      <point x="211.8" y="296.8"/>
      <point x="211.8" y="233.8" type="curve" smooth="yes"/>
      <point x="211.8" y="140.2"/>
      <point x="179.0" y="35.8"/>
      <point x="84.8" y="35.8" type="curve" smooth="yes"/>
      <point x="73.8" y="35.8"/>
      <point x="63.2" y="36.6"/>
      <point x="48.8" y="38.8" type="curve"/>
    </contour>
  </outline>
</glyph>
<glyph name="C" format="2">
  <advance width="258.2"/>
  <unicode hex="0043"/>
  <anchor x="142.0" y="0.0" name="bottom"/>
  <anchor x="240.6" y="700.0" name="top"/>
  <outline>
    <contour>
      <point x="150.2" y="-10.0" type="curve" smooth="yes"/>
      <point x="175.4" y="-10.0"/>
      <point x="195.4" y="-7.0"/>
      <point x="211.2" y="-0.7999999999999998" type="curve"/>
      <point x="206.4" y="43.0" type="line"/>
      <point x="193.2" y="39.0"/>
      <point x="176.8" y="36.8"/>
      <point x="159.4" y="36.8" type="curve" smooth="yes"/>
      <point x="99.6" y="36.8"/>
      <point x="72.4" y="78.0"/>
      <point x="72.4" y="183.0" type="curve" smooth="yes"/>
      <point x="72.4" y="448.0"/>
      <point x="144.8" y="663.2"/>
      <point x="244.4" y="663.2" type="curve" smooth="yes"/>
      <point x="260.6" y="663.2"/>
      <point x="275.4" y="660.2"/>
      <point x="295.0" y="653.8" type="curve"/>
      <point x="311.0" y="696.6" type="line"/>
      <point x="294.4" y="705.8"/>
      <point x="270.2" y="710.0"/>
      <point x="244.6" y="710.0" type="curve" smooth="yes"/>
      <point x="114.2" y="710.0"/>
      <point x="24.2" y="488.0"/>
      <point x="24.2" y="175.8" type="curve" smooth="yes"/>
      <point x="24.2" y="46.2"/>
      <point x="63.2" y="-10.0"/>
    </contour>
  </outline>
</glyph>
<glyph name="D" format="2">
  <advance width="309.4"/>
  <unicode hex="0044"/>
  <anchor x="99.0" y="0.0" name="bottom"/>
  <anchor x="165.1758" y="350.0" name="center"/>
  <anchor x="196.6" y="700.0" name="top"/>
  <outline>
    <contour>
      <point x="72.6" y="-10.0" type="curve" smooth="yes"/>
      <point x="217.2" y="-10.0"/>
      <point x="304.6" y="202.4"/>
      <point x="304.6" y="477.2" type="curve" smooth="yes"/>
      <point x="304.6" y="640.8"/>
      <point x="267.2" y="710.0"/>
      <point x="172.6" y="710.0" type="curve" smooth="yes"/>
      <point x="150.6" y="710.0"/>
      <point x="132.2" y="708.6"/>
      <point x="105.8" y="705.2" type="curve"/>
      <point x="-5.800000000000001" y="-3.8" type="line"/>
      <point x="19.4" y="-8.2"/>
      <point x="42.4" y="-10.0"/>
    </contour>
    <contour>
      <point x="79.4" y="33.400000000000006" type="curve" smooth="yes"/>
      <point x="68.0" y="33.400000000000006"/>
      <point x="59.2" y="34.400000000000006"/>
      <point x="47.6" y="36.2" type="curve"/>
      <point x="147.0" y="661.8" type="line"/>
      <point x="158.2" y="662.8"/>
      <point x="166.0" y="663.0"/>
      <point x="174.8" y="663.0" type="curve" smooth="yes"/>
      <point x="233.4" y="663.0"/>
      <point x="257.0" y="612.4"/>
      <point x="257.0" y="476.0" type="curve" smooth="yes"/>
      <point x="257.0" y="242.8"/>
      <point x="179.2" y="33.400000000000006"/>
    </contour>
  </outline>
</glyph>
<glyph name="E" format="2">
  <advance width="250.0"/>
  <unicode hex="0045"/>
  <anchor x="98.0" y="0.0" name="bottom"/>
  <anchor x="195.2" y="0.0" name="ogonek"/>
  <anchor x="203.8" y="700.0" name="top"/>
  <anchor x="85.4626" y="700.0" name="topleft"/>
  <outline>
    <contour>
      <point x="-5.0" y="0.0" type="line"/>
      <point x="195.2" y="0.0" type="line"/>
      <point x="202.6" y="46.8" type="line"/>
      <point x="49.8" y="46.8" type="line"/>
      <point x="95.8" y="338.0" type="line"/>
      <point x="224.0" y="338.0" type="line"/>
      <point x="231.4" y="382.8" type="line"/>
      <point x="103.0" y="382.8" type="line"/>
      <point x="145.0" y="652.2" type="line"/>
      <point x="288.8" y="652.2" type="line"/>
      <point x="297.4" y="700.0" type="line"/>
      <point x="105.0" y="700.0" type="line"/>
    </contour>
  </outline>
</glyph>
<glyph name="F" format="2">
  <advance width="235.6"/>
  <unicode hex="0046"/>
  <outline>
    <contour>
      <point x="-5.2" y="0.0" type="line"/>
      <point x="41.6" y="0.0" type="line"/>
      <point x="93.4" y="323.6" type="line"/>
      <point x="206.8" y="323.6" type="line"/>
      <point x="214.4" y="371.4" type="line"/>
      <point x="100.8" y="371.4" type="line"/>
      <point x="145.0" y="652.2" type="line"/>
      <point x="289.2" y="652.2" type="line"/>
      <point x="297.0" y="700.0" type="line"/>
      <point x="105.0" y="700.0" type="line"/>
    </contour>
  </outline>
</glyph>
<glyph name="G" format="2">
  <advance width="283.8"/>
  <unicode hex="0047"/>
  <anchor x="140.6" y="0.0" name="bottom"/>
  <anchor x="240.4" y="700.0" name="top"/>
  <outline>
    <contour>
      <point x="148.2" y="-10.0" type="curve" smooth="yes"/>
      <point x="169.4" y="-10.0"/>
      <point x="195.0" y="-5.6"/>
      <point x="211.8" y="3.6000000000000005" type="curve"/>
      <point x="267.2" y="354.2" type="line"/>
      <point x="158.4" y="354.2" type="line"/>
      <point x="151.6" y="310.8" type="line"/>
      <point x="216.6" y="310.8" type="line"/>
      <point x="173.2" y="38.2" type="line"/>
      <point x="167.2" y="36.2"/>
      <point x="157.4" y="35.2"/>
      <point x="149.2" y="35.2" type="curve" smooth="yes"/>
      <point x="94.8" y="35.2"/>
      <point x="70.6" y="75.6"/>
      <point x="70.6" y="178.6" type="curve" smooth="yes"/>
      <point x="70.6" y="442.4"/>
      <point x="142.6" y="663.0"/>
      <point x="243.0" y="663.0" type="curve" smooth="yes"/>
      <point x="262.4" y="663.0"/>
      <point x="280.4" y="658.2"/>
      <point x="299.8" y="652.0" type="curve"/>
      <point x="315.4" y="696.2" type="line"/>
      <point x="297.2" y="704.4"/>
      <point x="271.0" y="710.0"/>
      <point x="244.4" y="710.0" type="curve" smooth="yes"/>
      <point x="104.6" y="710.0"/>
      <point x="24.0" y="467.8"/>
      <point x="24.0" y="176.0" type="curve" smooth="yes"/>
      <point x="24.0" y="47.0"/>
      <point x="63.4" y="-10.0"/>
    </contour>
  </outline>
</glyph>
<glyph name="H" format="2">
  <advance width="317.2"/>
  <unicode hex="0048"/>
  <anchor x="115.08879999999999" y="0.0" name="bottom"/>
  <anchor x="170.9758" y="350.0" name="center"/>
  <anchor x="226.0626" y="700.0" name="top"/>
  <anchor x="85.4626" y="700.0" name="topleft"/>
  <outline>
    <contour>
      <point x="-5.2" y="0.0" type="line"/>
      <point x="43.2" y="0.0" type="line"/>
      <point x="87.6" y="281.4" type="line"/>
      <point x="232.0" y="281.4" type="line"/>
      <point x="187.8" y="0.0" type="line"/>
      <point x="235.2" y="0.0" type="line"/>
      <point x="346.2" y="700.0" type="line"/>
      <point x="298.6" y="700.0" type="line"/>
      <point x="239.4" y="327.6" type="line"/>
      <point x="94.2" y="327.6" type="line"/>
      <point x="153.4" y="700.0" type="line"/>
      <point x="105.0" y="700.0" type="line"/>
    </contour>
  </outline>
</glyph>
<glyph name="I" format="2">
  <advance width="124.4"/>
  <unicode hex="0049"/>
  <anchor x="18.288800000000002" y="0.0" name="bottom"/>
  <anchor x="43.0056" y="2.0" name="ogonek"/>
  <anchor x="129.2626" y="700.0" name="top"/>
  <anchor x="85.4626" y="700.0" name="topleft"/>
  <outline>
    <contour>
      <point x="-5.2" y="0.0" type="line"/>
      <point x="42.400000000000006" y="0.0" type="line"/>
      <point x="153.4" y="700.0" type="line"/>
      <point x="105.0" y="700.0" type="line"/>
    </contour>
  </outline>
</glyph>
<glyph name="J" format="2">
  <advance width="213.4"/>
  <unicode hex="004A"/>
  <anchor x="24.088800000000003" y="0.0" name="bottom"/>
  <anchor x="169.4" y="700.0" name="top"/>
  <outline>
    <contour>
      <point x="-39.0" y="2.4000000000000004" type="line"/>
      <point x="-19.4" y="-5.199999999999999"/>
      <point x="0.0" y="-10.0"/>
      <point x="22.6" y="-10.0" type="curve" smooth="yes"/>
      <point x="109.4" y="-10.0"/>
      <point x="141.6" y="46.4"/>
      <point x="154.0" y="125.4" type="curve" smooth="yes"/>
      <point x="245.2" y="700.0" type="line"/>
      <point x="85.6" y="700.0" type="line"/>
      <point x="78.4" y="654.8" type="line"/>
      <point x="190.4" y="654.8" type="line"/>
      <point x="107.8" y="137.6" type="line" smooth="yes"/>
      <point x="96.2" y="65.8"/>
      <point x="67.0" y="40.400000000000006"/>
      <point x="17.0" y="40.400000000000006" type="curve" smooth="yes"/>
      <point x="4.0" y="40.400000000000006"/>
      <point x="-11.6" y="43.8"/>
      <point x="-25.799999999999997" y="48.8" type="curve"/>
    </contour>
  </outline>
</glyph>
<glyph name="K" format="2">
  <advance width="282.8"/>
  <unicode hex="004B"/>
  <anchor x="114.2" y="0.0" name="bottom"/>
  <anchor x="204.6" y="700.0" name="top"/>
  <outline>
    <contour>
      <point x="-5.4" y="0.0" type="line"/>
      <point x="42.400000000000006" y="0.0" type="line"/>
      <point x="153.4" y="700.0" type="line"/>
      <point x="105.0" y="700.0" type="line"/>
    </contour>
    <contour>
      <point x="219.8" y="-9.4" type="curve" smooth="yes"/>
      <point x="228.0" y="-9.4"/>
      <point x="238.2" y="-6.8"/>
      <point x="244.6" y="-3.4" type="curve"/>
      <point x="245.8" y="51.400000000000006" type="line"/>
      <point x="243.4" y="50.800000000000004"/>
      <point x="240.0" y="49.800000000000004"/>
      <point x="236.0" y="49.800000000000004" type="curve" smooth="yes"/>
      <point x="223.0" y="49.800000000000004"/>
      <point x="212.0" y="58.6"/>
      <point x="192.6" y="123.6" type="curve" smooth="yes"/>
      <point x="100.2" y="433.8" type="line"/>
      <point x="85.2" y="342.8" type="line"/>
      <point x="161.4" y="81.2" type="line" smooth="yes"/>
      <point x="184.0" y="3.0"/>
      <point x="195.2" y="-9.4"/>
    </contour>
    <contour>
      <point x="130.0" y="289.4" type="line"/>
      <point x="189.8" y="367.2"/>
      <point x="277.6" y="512.6"/>
      <point x="330.2" y="695.6" type="curve"/>
      <point x="289.0" y="708.0" type="line"/>
      <point x="236.4" y="532.0"/>
      <point x="162.0" y="402.6"/>
      <point x="114.6" y="337.0" type="curve"/>
    </contour>
  </outline>
</glyph>
<glyph name="L" format="2">
  <advance width="224.4"/>
  <unicode hex="004C"/>
  <anchor x="86.8" y="0.0" name="bottom"/>
  <anchor x="114.97579999999999" y="350.0" name="center"/>
  <anchor x="128.4" y="700.0" name="top"/>
  <anchor x="217.8" y="700.0" name="topright"/>
  <outline>
    <contour>
      <point x="-6.0" y="0.0" type="line"/>
      <point x="173.6" y="0.0" type="line"/>
      <point x="181.0" y="46.8" type="line"/>
      <point x="49.0" y="46.8" type="line"/>
      <point x="152.6" y="700.0" type="line"/>
      <point x="105.0" y="700.0" type="line"/>
    </contour>
  </outline>
</glyph>
<glyph name="M" format="2">
  <advance width="348.6"/>
  <unicode hex="004D"/>
  <outline>
    <contour>
      <point x="-5.2" y="0.0" type="line"/>
      <point x="39.2" y="0.0" type="line"/>
      <point x="132.6" y="596.6" type="line"/>
      <point x="153.0" y="247.6" type="line"/>
      <point x="185.2" y="247.6" type="line"/>
      <point x="317.0" y="597.0" type="line"/>
      <point x="222.0" y="0.0" type="line"/>
      <point x="266.6" y="0.0" type="line"/>
      <point x="377.6" y="700.0" type="line"/>
      <point x="320.8" y="700.0" type="line"/>
      <point x="180.8" y="325.8" type="line"/>
      <point x="159.2" y="700.0" type="line"/>
      <point x="105.0" y="700.0" type="line"/>
    </contour>
  </outline>
</glyph>
<glyph name="N" format="2">
  <advance width="318.2"/>
  <unicode hex="004E"/>
  <anchor x="123.6" y="0.0" name="bottom"/>
  <anchor x="226.2" y="700.0" name="top"/>
  <outline>
    <contour>
      <point x="-5.2" y="0.0" type="line"/>
      <point x="39.0" y="0.0" type="line"/>
      <point x="130.0" y="580.8" type="line"/>
      <point x="186.0" y="0.0" type="line"/>
      <point x="236.2" y="0.0" type="line"/>
      <point x="347.2" y="700.0" type="line"/>
      <point x="303.0" y="700.0" type="line"/>
      <point x="211.4" y="114.60000000000001" type="line"/>
      <point x="156.8" y="700.0" type="line"/>
      <point x="105.0" y="700.0" type="line"/>
    </contour>
  </outline>
</glyph>
<glyph name="O" format="2">
  <advance width="320.8"/>
  <unicode hex="004F"/>
  <note>
8
</note>
  <anchor x="117.4" y="0.0" name="bottom"/>
  <anchor x="173.0" y="350.0" name="center"/>
  <anchor x="157.8" y="0.8" name="ogonek"/>
  <anchor x="232.2" y="700.0" name="top"/>
  <anchor x="88.4" y="700.0" name="topleft"/>
  <anchor x="285.8" y="700.0" name="topright"/>
  <outline>
    <contour>
      <point x="118.0" y="-10.0" type="curve" smooth="yes"/>
      <point x="256.6" y="-10.0"/>
      <point x="326.4" y="327.0"/>
      <point x="326.4" y="556.0" type="curve" smooth="yes"/>
      <point x="326.4" y="670.4"/>
      <point x="294.6" y="710.0"/>
      <point x="226.8" y="710.0" type="curve" smooth="yes"/>
      <point x="88.2" y="710.0"/>
      <point x="18.4" y="373.0"/>
      <point x="18.4" y="144.0" type="curve" smooth="yes"/>
      <point x="18.4" y="29.6"/>
      <point x="50.2" y="-10.0"/>
    </contour>
    <contour>
      <point x="122.2" y="38.400000000000006" type="curve" smooth="yes"/>
      <point x="82.6" y="38.400000000000006"/>
      <point x="66.6" y="61.2"/>
      <point x="66.6" y="143.2" type="curve" smooth="yes"/>
      <point x="66.6" y="340.2"/>
      <point x="135.0" y="661.6"/>
      <point x="222.6" y="661.6" type="curve" smooth="yes"/>
      <point x="262.2" y="661.6"/>
      <point x="278.2" y="638.8"/>
      <point x="278.2" y="556.8" type="curve" smooth="yes"/>
      <point x="278.2" y="359.8"/>
      <point x="209.8" y="38.400000000000006"/>
    </contour>
  </outline>
</glyph>
<glyph name="P" format="2">
  <advance width="276.4"/>
  <unicode hex="0050"/>
  <outline>
    <contour>
      <point x="-5.0" y="0.0" type="line"/>
      <point x="42.6" y="0.0" type="line"/>
      <point x="85.2" y="267.4" type="line"/>
      <point x="94.0" y="265.8"/>
      <point x="101.2" y="265.8"/>
      <point x="132.6" y="265.8" type="curve" smooth="yes"/>
      <point x="232.8" y="265.8"/>
      <point x="300.2" y="396.0"/>
      <point x="300.2" y="574.4" type="curve" smooth="yes"/>
      <point x="300.2" y="671.2"/>
      <point x="266.4" y="710.0"/>
      <point x="192.0" y="710.0" type="curve" smooth="yes"/>
      <point x="167.8" y="710.0"/>
      <point x="136.2" y="707.8"/>
      <point x="106.0" y="703.6" type="curve"/>
    </contour>
    <contour>
      <point x="147.4" y="660.0" type="line"/>
      <point x="159.0" y="662.8"/>
      <point x="170.6" y="663.8"/>
      <point x="185.2" y="663.8" type="curve" smooth="yes"/>
      <point x="232.8" y="663.8"/>
      <point x="253.4" y="639.4"/>
      <point x="253.4" y="565.2" type="curve" smooth="yes"/>
      <point x="253.4" y="428.2"/>
      <point x="202.2" y="312.0"/>
      <point x="130.6" y="312.0" type="curve" smooth="yes"/>
      <point x="118.4" y="312.0"/>
      <point x="105.6" y="312.8"/>
      <point x="92.4" y="314.0" type="curve"/>
    </contour>
  </outline>
</glyph>
<glyph name="Q" format="2">
  <advance width="320.2"/>
  <unicode hex="0051"/>
  <note>
14
</note>
  <outline>
    <contour>
      <point x="217.8" y="-176.2" type="curve" smooth="yes"/>
      <point x="231.6" y="-176.2"/>
      <point x="248.6" y="-175.0"/>
      <point x="264.2" y="-169.4" type="curve"/>
      <point x="265.0" y="-126.2" type="line"/>
      <point x="253.6" y="-130.0"/>
      <point x="239.2" y="-132.0"/>
      <point x="226.2" y="-132.0" type="curve" smooth="yes"/>
      <point x="184.4" y="-132.0"/>
      <point x="147.6" y="-109.4"/>
      <point x="148.2" y="3.8000000000000003" type="curve"/>
      <point x="108.2" y="2.2" type="line"/>
      <point x="106.4" y="-135.8"/>
      <point x="158.4" y="-176.2"/>
    </contour>
    <component base="O"/>
  </outline>
</glyph>
<glyph name="R" format="2">
  <advance width="282.0"/>
  <unicode hex="0052"/>
  <anchor x="114.4" y="0.0" name="bottom"/>
  <anchor x="194.4" y="700.0" name="top"/>
  <outline>
    <contour>
      <point x="-5.4" y="0.0" type="line"/>
      <point x="42.400000000000006" y="0.0" type="line"/>
      <point x="87.2" y="285.0" type="line"/>
      <point x="93.8" y="285.0"/>
      <point x="103.8" y="284.0"/>
      <point x="125.4" y="284.0" type="curve"/>
      <point x="125.4" y="284.0" type="line"/>
      <point x="226.4" y="284.0"/>
      <point x="301.8" y="399.2"/>
      <point x="301.8" y="567.2" type="curve" smooth="yes"/>
      <point x="301.8" y="665.8"/>
      <point x="263.2" y="710.0"/>
      <point x="188.6" y="710.0" type="curve" smooth="yes"/>
      <point x="161.0" y="710.0"/>
      <point x="134.2" y="707.6"/>
      <point x="106.0" y="703.2" type="curve"/>
    </contour>
    <contour>
      <point x="214.2" y="-10.0" type="curve" smooth="yes"/>
      <point x="222.4" y="-10.0"/>
      <point x="234.6" y="-6.6"/>
      <point x="239.2" y="-3.8" type="curve"/>
      <point x="240.0" y="45.4" type="line"/>
      <point x="235.4" y="43.800000000000004"/>
      <point x="233.0" y="43.800000000000004"/>
      <point x="231.0" y="43.800000000000004" type="curve" smooth="yes"/>
      <point x="211.6" y="44.4"/>
      <point x="208.0" y="62.6"/>
      <point x="172.4" y="314.6" type="curve"/>
      <point x="131.0" y="302.8" type="line"/>
      <point x="176.6" y="4.6"/>
      <point x="176.4" y="-10.0"/>
    </contour>
    <contour>
      <point x="128.6" y="330.0" type="curve" smooth="yes"/>
      <point x="116.0" y="330.0"/>
      <point x="105.2" y="330.4"/>
      <point x="94.8" y="331.4" type="curve"/>
      <point x="147.4" y="661.2" type="line"/>
      <point x="162.4" y="664.2"/>
      <point x="174.8" y="665.2"/>
      <point x="186.2" y="665.2" type="curve" smooth="yes"/>
      <point x="235.8" y="665.2"/>
      <point x="254.4" y="632.4"/>
      <point x="254.4" y="569.4" type="curve" smooth="yes"/>
      <point x="254.4" y="430.4"/>
      <point x="198.6" y="330.0"/>
    </contour>
  </outline>
</glyph>
<glyph name="S" format="2">
  <advance width="257.4"/>
  <unicode hex="0053"/>
  <anchor x="74.8" y="0.0" name="bottom"/>
  <anchor x="205.6" y="700.0" name="top"/>
  <outline>
    <contour>
      <point x="283.8" y="691.6" type="line"/>
      <point x="265.8" y="703.0"/>
      <point x="238.8" y="710.0"/>
      <point x="208.0" y="710.0" type="curve" smooth="yes"/>
      <point x="122.6" y="710.0"/>
      <point x="64.2" y="639.6"/>
      <point x="64.2" y="520.8" type="curve" smooth="yes"/>
      <point x="64.2" y="390.6"/>
      <point x="170.8" y="290.0"/>
      <point x="170.8" y="174.0" type="curve" smooth="yes"/>
      <point x="170.8" y="95.2"/>
      <point x="128.8" y="37.6"/>
      <point x="67.0" y="37.6" type="curve" smooth="yes"/>
      <point x="37.6" y="37.6"/>
      <point x="17.200000000000003" y="42.6"/>
      <point x="-6.0" y="54.6" type="curve"/>
      <point x="-25.0" y="11.2" type="line"/>
      <point x="-4.8" y="-2.4"/>
      <point x="29.0" y="-10.0"/>
      <point x="65.8" y="-10.0" type="curve" smooth="yes"/>
      <point x="156.0" y="-10.0"/>
      <point x="219.2" y="67.4"/>
      <point x="219.2" y="178.8" type="curve" smooth="yes"/>
      <point x="219.2" y="309.0"/>
      <point x="113.8" y="408.6"/>
      <point x="113.8" y="524.4" type="curve" smooth="yes"/>
      <point x="113.8" y="612.0"/>
      <point x="153.8" y="664.0"/>
      <point x="208.8" y="664.0" type="curve" smooth="yes"/>
      <point x="231.8" y="664.0"/>
      <point x="247.4" y="660.6"/>
      <point x="266.2" y="650.8" type="curve"/>
    </contour>
  </outline>
</glyph>
<glyph name="T" format="2">
  <advance width="249.6"/>
  <unicode hex="0054"/>
  <anchor x="80.8888" y="0.0" name="bottom"/>
  <anchor x="136.7758" y="350.0" name="center"/>
  <anchor x="191.8626" y="700.0" name="top"/>
  <outline>
    <contour>
      <point x="303.8" y="654.4" type="line"/>
      <point x="311.2" y="700.0" type="line"/>
      <point x="72.6" y="700.0" type="line"/>
      <point x="65.2" y="654.4" type="line"/>
      <point x="160.4" y="654.4" type="line"/>
      <point x="56.6" y="0.0" type="line"/>
      <point x="104.2" y="0.0" type="line"/>
      <point x="208.0" y="654.4" type="line"/>
    </contour>
  </outline>
</glyph>
<glyph name="U" format="2">
  <advance width="310.0"/>
  <unicode hex="0055"/>
  <anchor x="111.08879999999999" y="0.0" name="bottom"/>
  <anchor x="147.8" y="0.0" name="ogonek"/>
  <anchor x="220.4626" y="700.0" name="top"/>
  <anchor x="335.8" y="700.0" name="topright"/>
  <outline>
    <contour>
      <point x="108.6" y="-10.0" type="curve" smooth="yes"/>
      <point x="190.6" y="-10.0"/>
      <point x="236.4" y="39.8"/>
      <point x="254.0" y="149.6" type="curve" smooth="yes"/>
      <point x="341.8" y="700.0" type="line"/>
      <point x="293.4" y="700.0" type="line"/>
      <point x="204.6" y="142.0" type="line" smooth="yes"/>
      <point x="193.8" y="71.4"/>
      <point x="166.2" y="35.8"/>
      <point x="118.0" y="35.8" type="curve" smooth="yes"/>
      <point x="72.4" y="35.8"/>
      <point x="50.8" y="69.4"/>
      <point x="60.2" y="126.0" type="curve" smooth="yes"/>
      <point x="150.0" y="700.0" type="line"/>
      <point x="102.4" y="700.0" type="line"/>
      <point x="13.0" y="129.6" type="line" smooth="yes"/>
      <point x="10.4" y="114.6"/>
      <point x="10.0" y="109.2"/>
      <point x="10.0" y="93.8" type="curve" smooth="yes"/>
      <point x="10.0" y="26.6"/>
      <point x="45.2" y="-10.0"/>
    </contour>
  </outline>
</glyph>
<glyph name="V" format="2">
  <advance width="287.0"/>
  <unicode hex="0056"/>
  <outline>
    <contour>
      <point x="129.4" y="0.0" type="line"/>
      <point x="281.8" y="440.8"/>
      <point x="324.2" y="559.2"/>
      <point x="329.8" y="663.4" type="curve" smooth="yes"/>
      <point x="330.0" y="676.2"/>
      <point x="329.4" y="686.4"/>
      <point x="327.0" y="700.0" type="curve"/>
      <point x="276.2" y="700.0" type="line"/>
      <point x="277.8" y="687.8"/>
      <point x="278.6" y="678.8"/>
      <point x="278.6" y="669.0" type="curve" smooth="yes"/>
      <point x="276.0" y="571.2"/>
      <point x="238.6" y="461.6"/>
      <point x="111.2" y="72.2" type="curve"/>
      <point x="127.4" y="700.0" type="line"/>
      <point x="73.2" y="700.0" type="line"/>
      <point x="67.0" y="0.0" type="line"/>
    </contour>
  </outline>
</glyph>
<glyph name="W" format="2">
  <advance width="468.2"/>
  <unicode hex="0057"/>
  <anchor x="187.6" y="0.0" name="bottom"/>
  <anchor x="307.0" y="700.0" name="top"/>
  <outline>
    <contour>
      <point x="310.2" y="-1.0" type="line"/>
      <point x="478.0" y="477.6"/>
      <point x="509.2" y="592.8"/>
      <point x="510.8" y="666.0" type="curve" smooth="yes"/>
      <point x="510.8" y="678.4"/>
      <point x="510.2" y="687.6"/>
      <point x="507.6" y="700.0" type="curve"/>
      <point x="457.4" y="700.0" type="line"/>
      <point x="459.0" y="688.6"/>
      <point x="460.6" y="679.4"/>
      <point x="460.6" y="669.0" type="curve" smooth="yes"/>
      <point x="459.4" y="585.0"/>
      <point x="436.6" y="499.6"/>
      <point x="295.4" y="81.0" type="curve"/>
      <point x="324.0" y="633.8" type="line"/>
      <point x="269.6" y="633.8" type="line"/>
      <point x="217.2" y="453.0"/>
      <point x="159.6" y="261.6"/>
      <point x="105.2" y="87.6" type="curve"/>
      <point x="126.0" y="700.0" type="line"/>
      <point x="75.0" y="700.0" type="line"/>
      <point x="59.4" y="-1.0" type="line"/>
      <point x="111.8" y="-1.0" type="line"/>
      <point x="172.8" y="188.6"/>
      <point x="229.4" y="367.0"/>
      <point x="282.4" y="543.8" type="curve"/>
      <point x="254.4" y="-1.0" type="line"/>
    </contour>
  </outline>
</glyph>
<glyph name="X" format="2">
  <advance width="307.0"/>
  <unicode hex="0058"/>
  <outline>
    <contour>
      <point x="218.0" y="-4.8" type="line"/>
      <point x="267.4" y="-1.0" type="line"/>
      <point x="194.6" y="337.0" type="line"/>
      <point x="276.4" y="482.6"/>
      <point x="339.8" y="593.2"/>
      <point x="339.8" y="700.0" type="curve"/>
      <point x="290.4" y="700.0" type="line"/>
      <point x="289.8" y="597.2"/>
      <point x="254.0" y="534.8"/>
      <point x="175.2" y="391.6" type="curve"/>
      <point x="110.2" y="705.2" type="line"/>
      <point x="64.0" y="700.8" type="line"/>
      <point x="135.4" y="360.2" type="line"/>
      <point x="55.8" y="224.0"/>
      <point x="-11.600000000000001" y="109.6"/>
      <point x="-9.8" y="0.0" type="curve"/>
      <point x="39.8" y="0.0" type="line"/>
      <point x="38.0" y="95.6"/>
      <point x="87.0" y="193.8"/>
      <point x="153.8" y="307.2" type="curve"/>
    </contour>
  </outline>
</glyph>
<glyph name="Y" format="2">
  <advance width="277.4"/>
  <unicode hex="0059"/>
  <anchor x="94.0" y="0.0" name="bottom"/>
  <anchor x="204.2" y="700.0" name="top"/>
  <anchor x="92.8" y="700.0" name="topleft"/>
  <outline>
    <contour>
      <point x="68.4" y="0.0" type="line"/>
      <point x="115.4" y="0.0" type="line"/>
      <point x="163.0" y="293.6" type="line"/>
      <point x="229.8" y="398.2"/>
      <point x="292.0" y="517.4"/>
      <point x="325.2" y="658.6" type="curve" smooth="yes"/>
      <point x="328.2" y="672.6"/>
      <point x="330.6" y="686.8"/>
      <point x="332.8" y="700.8" type="curve"/>
      <point x="280.8" y="704.0" type="line"/>
      <point x="279.0" y="691.0"/>
      <point x="277.0" y="677.8"/>
      <point x="274.2" y="664.8" type="curve" smooth="yes"/>
      <point x="249.6" y="542.8"/>
      <point x="205.2" y="440.2"/>
      <point x="149.0" y="349.2" type="curve"/>
      <point x="125.6" y="703.2" type="line"/>
      <point x="73.0" y="700.8" type="line"/>
      <point x="114.4" y="293.6" type="line"/>
    </contour>
  </outline>
</glyph>
<glyph name="Z" format="2">
  <advance width="260.2"/>
  <unicode hex="005A"/>
  <anchor x="89.2" y="0.0" name="bottom"/>
  <anchor x="139.4" y="350.0" name="center"/>
  <anchor x="199.2" y="700.0" name="top"/>
  <outline>
    <contour>
      <point x="-31.4" y="0.0" type="line"/>
      <point x="208.6" y="0.0" type="line"/>
      <point x="216.4" y="46.2" type="line"/>
      <point x="25.6" y="46.2" type="line"/>
      <point x="303.0" y="655.4" type="line"/>
      <point x="309.8" y="700.0" type="line"/>
      <point x="96.0" y="700.0" type="line"/>
      <point x="88.6" y="653.8" type="line"/>
      <point x="253.8" y="653.8" type="line"/>
      <point x="-24.0" y="43.8" type="line"/>
    </contour>
  </outline>
</glyph>
<glyph name="bracketleft" format="2">
  <advance width="177.4"/>
  <unicode hex="005B"/>
  <outline>
    <contour>
      <point x="15.600000000000001" y="-166.0" type="line"/>
      <point x="153.0" y="696.0" type="line"/>
      <point x="236.8" y="696.0" type="line"/>
      <point x="244.2" y="740.0" type="line"/>
      <point x="117.8" y="740.0" type="line"/>
      <point x="-33.6" y="-210.0" type="line"/>
      <point x="91.8" y="-210.0" type="line"/>
      <point x="99.4" y="-166.0" type="line"/>
    </contour>
  </outline>
</glyph>
<glyph name="backslash" format="2">
  <advance width="286.6"/>
  <unicode hex="005C"/>
  <outline>
    <contour>
      <point x="115.0" y="740.0" type="line"/>
      <point x="73.4" y="740.0" type="line"/>
      <point x="209.0" y="-210.0" type="line"/>
      <point x="250.4" y="-210.0" type="line"/>
    </contour>
  </outline>
</glyph>
<glyph name="bracketright" format="2">
  <advance width="177.4"/>
  <unicode hex="005D"/>
  <outline>
    <contour>
      <point x="-61.6" y="-166.0" type="line"/>
      <point x="-69.0" y="-210.0" type="line"/>
      <point x="55.6" y="-210.0" type="line"/>
      <point x="208.0" y="740.0" type="line"/>
      <point x="82.4" y="740.0" type="line"/>
      <point x="74.8" y="696.0" type="line"/>
      <point x="158.6" y="696.0" type="line"/>
      <point x="21.0" y="-166.0" type="line"/>
    </contour>
  </outline>
</glyph>
<glyph name="asciicircum" format="2">
  <advance width="348.8"/>
  <unicode hex="005E"/>
  <outline>
    <contour>
      <point x="36.4" y="271.6" type="line"/>
      <point x="74.0" y="271.6" type="line"/>
      <point x="233.6" y="653.6" type="line"/>
      <point x="274.6" y="271.6" type="line"/>
      <point x="312.0" y="271.6" type="line"/>
      <point x="264.0" y="708.0" type="line"/>
      <point x="217.8" y="708.0" type="line"/>
    </contour>
  </outline>
</glyph>
<glyph name="a" format="2">
  <advance width="282.0"/>
  <unicode hex="0061"/>
  <note>
15
</note>
  <anchor x="104.4" y="0.0" name="bottom"/>
  <anchor x="251.8" y="2.8000000000000003" name="ogonek"/>
  <anchor x="192.4" y="534.0" name="top"/>
  <outline>
    <contour>
      <point x="203.8" y="-10.0" type="curve" smooth="yes"/>
      <point x="221.0" y="-10.0"/>
      <point x="238.8" y="-4.8"/>
      <point x="251.8" y="2.8000000000000003" type="curve"/>
      <point x="252.2" y="42.8" type="line"/>
      <point x="242.0" y="38.6"/>
      <point x="234.0" y="36.2"/>
      <point x="225.6" y="36.2" type="curve" smooth="yes"/>
      <point x="211.8" y="36.2"/>
      <point x="206.6" y="43.400000000000006"/>
      <point x="206.6" y="58.2" type="curve" smooth="yes"/>
      <point x="206.6" y="65.6"/>
      <point x="210.4" y="92.0"/>
      <point x="279.4" y="524.0" type="curve"/>
      <point x="257.8" y="535.8"/>
      <point x="231.2" y="544.0"/>
      <point x="203.2" y="544.0" type="curve" smooth="yes"/>
      <point x="88.4" y="544.0"/>
      <point x="14.6" y="380.0"/>
      <point x="14.6" y="138.4" type="curve" smooth="yes"/>
      <point x="14.6" y="40.8"/>
      <point x="42.6" y="-10.0"/>
      <point x="96.2" y="-10.0" type="curve" smooth="yes"/>
      <point x="123.4" y="-10.0"/>
      <point x="143.2" y="0.8"/>
      <point x="160.2" y="16.6" type="curve"/>
      <point x="167.2" y="0.4"/>
      <point x="182.0" y="-10.0"/>
    </contour>
    <contour>
      <point x="157.8" y="54.2" type="line"/>
      <point x="145.2" y="44.2"/>
      <point x="127.8" y="37.6"/>
      <point x="111.2" y="37.6" type="curve" smooth="yes"/>
      <point x="81.2" y="37.6"/>
      <point x="64.2" y="74.0"/>
      <point x="64.2" y="144.8" type="curve" smooth="yes"/>
      <point x="64.2" y="358.4"/>
      <point x="124.6" y="499.4"/>
      <point x="198.4" y="499.4" type="curve" smooth="yes"/>
      <point x="210.0" y="499.4"/>
      <point x="218.6" y="497.0"/>
      <point x="226.4" y="492.0" type="curve"/>
    </contour>
  </outline>
</glyph>
<glyph name="b" format="2">
  <advance width="284.6"/>
  <unicode hex="0062"/>
  <note>
12
</note>
  <outline>
    <contour>
      <point x="163.0" y="740.0" type="line"/>
      <point x="115.4" y="740.0" type="line"/>
      <point x="-0.20000000000000018" y="7.0" type="line"/>
      <point x="22.8" y="-3.5999999999999996"/>
      <point x="46.0" y="-10.0"/>
      <point x="76.6" y="-10.0" type="curve" smooth="yes"/>
      <point x="207.4" y="-10.0"/>
      <point x="269.8" y="204.8"/>
      <point x="269.4" y="392.2" type="curve" smooth="yes"/>
      <point x="269.2" y="498.6"/>
      <point x="242.8" y="544.0"/>
      <point x="188.6" y="544.0" type="curve" smooth="yes"/>
      <point x="167.6" y="544.0"/>
      <point x="148.8" y="537.0"/>
      <point x="128.6" y="525.4" type="curve"/>
    </contour>
    <contour>
      <point x="171.4" y="496.2" type="curve" smooth="yes"/>
      <point x="209.8" y="496.2"/>
      <point x="221.0" y="450.0"/>
      <point x="221.0" y="388.0" type="curve" smooth="yes"/>
      <point x="221.0" y="220.0"/>
      <point x="169.0" y="34.8"/>
      <point x="83.4" y="34.8" type="curve" smooth="yes"/>
      <point x="72.6" y="34.8"/>
      <point x="61.6" y="37.2"/>
      <point x="53.0" y="42.2" type="curve"/>
      <point x="121.6" y="479.6" type="line"/>
      <point x="134.2" y="488.8"/>
      <point x="157.4" y="496.2"/>
    </contour>
  </outline>
</glyph>
<glyph name="c" format="2">
  <advance width="216.2"/>
  <unicode hex="0063"/>
  <note>
10
</note>
  <anchor x="104.6" y="0.0" name="bottom"/>
  <anchor x="187.8" y="534.0" name="top"/>
  <outline>
    <contour>
      <point x="109.0" y="-10.0" type="curve" smooth="yes"/>
      <point x="132.0" y="-10.0"/>
      <point x="155.4" y="-5.8"/>
      <point x="172.6" y="0.8000000000000003" type="curve"/>
      <point x="166.4" y="42.8" type="line"/>
      <point x="154.6" y="39.2"/>
      <point x="136.0" y="36.6"/>
      <point x="121.8" y="36.6" type="curve" smooth="yes"/>
      <point x="80.2" y="36.6"/>
      <point x="61.400000000000006" y="72.2"/>
      <point x="61.400000000000006" y="142.2" type="curve" smooth="yes"/>
      <point x="61.400000000000006" y="320.6"/>
      <point x="120.8" y="496.2"/>
      <point x="193.0" y="496.2" type="curve" smooth="yes"/>
      <point x="208.8" y="496.2"/>
      <point x="218.4" y="494.8"/>
      <point x="233.0" y="489.4" type="curve"/>
      <point x="250.0" y="535.0" type="line"/>
      <point x="231.0" y="541.2"/>
      <point x="215.0" y="544.0"/>
      <point x="195.6" y="544.0" type="curve" smooth="yes"/>
      <point x="86.4" y="544.0"/>
      <point x="13.4" y="355.2"/>
      <point x="13.4" y="129.4" type="curve" smooth="yes"/>
      <point x="13.4" y="39.4"/>
      <point x="47.2" y="-10.0"/>
    </contour>
  </outline>
</glyph>
<glyph name="d" format="2">
  <advance width="280.6"/>
  <unicode hex="0064"/>
  <note>
17
</note>
  <anchor x="101.0" y="0.0" name="bottom"/>
  <anchor x="147.0" y="351.0" name="center"/>
  <anchor x="202.6" y="740.0" name="top"/>
  <anchor x="367.6" y="740.0" name="topright"/>
  <outline>
    <contour>
      <point x="201.6" y="-10.0" type="curve" smooth="yes"/>
      <point x="216.8" y="-10.0"/>
      <point x="234.8" y="-5.8"/>
      <point x="249.6" y="2.8000000000000003" type="curve"/>
      <point x="250.0" y="42.8" type="line"/>
      <point x="241.2" y="39.400000000000006"/>
      <point x="231.8" y="36.2"/>
      <point x="222.6" y="36.2" type="curve" smooth="yes"/>
      <point x="210.4" y="36.2"/>
      <point x="204.6" y="42.6"/>
      <point x="204.6" y="57.400000000000006" type="curve" smooth="yes"/>
      <point x="204.6" y="67.4"/>
      <point x="229.6" y="219.20000000000002"/>
      <point x="312.0" y="740.0" type="curve"/>
      <point x="264.6" y="740.0" type="line"/>
      <point x="231.8" y="534.4" type="line"/>
      <point x="215.6" y="540.6"/>
      <point x="201.6" y="544.0"/>
      <point x="185.6" y="544.0" type="curve" smooth="yes"/>
      <point x="81.0" y="544.0"/>
      <point x="13.4" y="359.2"/>
      <point x="13.4" y="128.2" type="curve" smooth="yes"/>
      <point x="13.4" y="35.6"/>
      <point x="40.8" y="-10.0"/>
      <point x="94.2" y="-10.0" type="curve" smooth="yes"/>
      <point x="119.8" y="-10.0"/>
      <point x="143.0" y="3.8"/>
      <point x="158.0" y="19.8" type="curve"/>
      <point x="165.8" y="-0.19999999999999996"/>
      <point x="179.0" y="-10.0"/>
    </contour>
    <contour>
      <point x="109.0" y="38.400000000000006" type="curve" smooth="yes"/>
      <point x="77.8" y="38.400000000000006"/>
      <point x="61.2" y="72.6"/>
      <point x="61.2" y="125.2" type="curve" smooth="yes"/>
      <point x="61.2" y="317.4"/>
      <point x="112.0" y="499.4"/>
      <point x="193.4" y="499.4" type="curve" smooth="yes"/>
      <point x="204.2" y="499.4"/>
      <point x="212.4" y="497.0"/>
      <point x="225.0" y="492.8" type="curve"/>
      <point x="156.4" y="56.6" type="line"/>
      <point x="143.8" y="45.0"/>
      <point x="128.6" y="38.400000000000006"/>
    </contour>
  </outline>
</glyph>
<glyph name="e" format="2">
  <advance width="257.4"/>
  <unicode hex="0065"/>
  <note>
14 points
</note>
  <anchor x="123.4" y="0.0" name="bottom"/>
  <anchor x="183.6" y="0.0" name="ogonek"/>
  <anchor x="192.4" y="535.6" name="top"/>
  <outline>
    <contour>
      <point x="56.6" y="271.6" type="curve"/>
      <point x="48.4" y="230.4" type="line"/>
      <point x="77.2" y="234.8"/>
      <point x="108.2" y="244.4"/>
      <point x="136.8" y="259.0" type="curve" smooth="yes"/>
      <point x="216.2" y="299.4"/>
      <point x="274.2" y="375.2"/>
      <point x="274.2" y="462.4" type="curve" smooth="yes"/>
      <point x="274.2" y="510.4"/>
      <point x="252.0" y="544.0"/>
      <point x="201.6" y="544.0" type="curve" smooth="yes"/>
      <point x="90.2" y="544.0"/>
      <point x="17.6" y="384.4"/>
      <point x="17.6" y="170.2" type="curve" smooth="yes"/>
      <point x="17.6" y="53.8"/>
      <point x="52.4" y="-10.0"/>
      <point x="125.0" y="-10.0" type="curve" smooth="yes"/>
      <point x="153.4" y="-10.0"/>
      <point x="188.8" y="-2.2"/>
      <point x="213.0" y="13.0" type="curve"/>
      <point x="202.2" y="56.4" type="line"/>
      <point x="175.8" y="43.2"/>
      <point x="152.8" y="37.8"/>
      <point x="130.0" y="37.8" type="curve" smooth="yes"/>
      <point x="86.8" y="37.8"/>
      <point x="62.8" y="86.0"/>
      <point x="62.8" y="177.2" type="curve" smooth="yes"/>
      <point x="62.8" y="363.6"/>
      <point x="125.2" y="499.8"/>
      <point x="194.2" y="499.8" type="curve" smooth="yes"/>
      <point x="216.2" y="499.8"/>
      <point x="230.2" y="484.8"/>
      <point x="230.2" y="452.0" type="curve" smooth="yes"/>
      <point x="230.2" y="390.8"/>
      <point x="188.6" y="332.8"/>
      <point x="130.0" y="298.8" type="curve" smooth="yes"/>
      <point x="106.8" y="285.4"/>
      <point x="82.4" y="276.0"/>
    </contour>
  </outline>
</glyph>
<glyph name="f" format="2">
  <advance width="178.8"/>
  <unicode hex="0066"/>
  <outline>
    <contour>
      <point x="-69.4" y="-220.0" type="curve" smooth="yes"/>
      <point x="3.0" y="-220.0"/>
      <point x="38.6" y="-163.8"/>
      <point x="55.400000000000006" y="-56.8" type="curve" smooth="yes"/>
      <point x="135.4" y="447.8" type="line"/>
      <point x="209.4" y="447.8" type="line"/>
      <point x="216.6" y="493.0" type="line"/>
      <point x="142.6" y="493.0" type="line"/>
      <point x="166.4" y="644.8"/>
      <point x="195.6" y="701.4"/>
      <point x="249.2" y="701.4" type="curve" smooth="yes"/>
      <point x="261.6" y="701.4"/>
      <point x="276.0" y="698.4"/>
      <point x="288.2" y="695.0" type="curve"/>
      <point x="303.4" y="738.6" type="line"/>
      <point x="284.8" y="745.8"/>
      <point x="267.6" y="750.0"/>
      <point x="248.0" y="750.0" type="curve" smooth="yes"/>
      <point x="169.2" y="750.0"/>
      <point x="123.2" y="676.8"/>
      <point x="95.0" y="493.0" type="curve"/>
      <point x="40.8" y="486.8" type="line"/>
      <point x="34.4" y="447.8" type="line"/>
      <point x="87.8" y="447.8" type="line"/>
      <point x="8.8" y="-52.4" type="line" smooth="yes"/>
      <point x="-3.0" y="-126.4"/>
      <point x="-23.6" y="-172.8"/>
      <point x="-73.8" y="-172.8" type="curve" smooth="yes"/>
      <point x="-86.4" y="-172.8"/>
      <point x="-97.2" y="-171.2"/>
      <point x="-112.8" y="-166.2" type="curve"/>
      <point x="-125.4" y="-210.8" type="line"/>
      <point x="-108.0" y="-217.2"/>
      <point x="-90.2" y="-220.0"/>
    </contour>
  </outline>
</glyph>
<glyph name="g" format="2">
  <advance width="279.8"/>
  <unicode hex="0067"/>
  <note>
16
</note>
  <anchor x="57.8" y="-212.0" name="bottom"/>
  <anchor x="188.8" y="534.0" name="top"/>
  <outline>
    <contour>
      <point x="-12.2" y="-206.6" type="line"/>
      <point x="10.2" y="-216.0"/>
      <point x="35.2" y="-220.0"/>
      <point x="57.4" y="-220.0" type="curve" smooth="yes"/>
      <point x="127.8" y="-220.0"/>
      <point x="167.4" y="-170.6"/>
      <point x="185.4" y="-55.8" type="curve" smooth="yes"/>
      <point x="279.4" y="527.0" type="line"/>
      <point x="258.6" y="536.8"/>
      <point x="232.0" y="544.0"/>
      <point x="206.6" y="544.0" type="curve" smooth="yes"/>
      <point x="75.8" y="544.0"/>
      <point x="13.6" y="346.0"/>
      <point x="13.6" y="138.8" type="curve" smooth="yes"/>
      <point x="13.6" y="49.0"/>
      <point x="39.0" y="-6.4"/>
      <point x="90.4" y="-6.4" type="curve" smooth="yes"/>
      <point x="109.4" y="-6.4"/>
      <point x="130.4" y="-0.3999999999999999"/>
      <point x="150.0" y="14.0" type="curve"/>
      <point x="140.0" y="-54.0" type="line" smooth="yes"/>
      <point x="126.4" y="-142.6"/>
      <point x="101.4" y="-173.8"/>
      <point x="57.0" y="-173.8" type="curve" smooth="yes"/>
      <point x="40.4" y="-173.8"/>
      <point x="19.8" y="-169.8"/>
      <point x="1.4000000000000004" y="-163.2" type="curve"/>
    </contour>
    <contour>
      <point x="226.0" y="494.2" type="curve"/>
      <point x="156.6" y="57.2" type="line"/>
      <point x="145.6" y="46.6"/>
      <point x="125.0" y="39.2"/>
      <point x="110.2" y="39.2" type="curve" smooth="yes"/>
      <point x="79.8" y="39.2"/>
      <point x="62.6" y="76.0"/>
      <point x="62.6" y="144.6" type="curve" smooth="yes"/>
      <point x="62.6" y="321.4"/>
      <point x="116.6" y="501.0"/>
      <point x="198.0" y="501.0" type="curve" smooth="yes"/>
      <point x="205.2" y="501.0"/>
      <point x="215.6" y="498.4"/>
    </contour>
  </outline>
</glyph>
<glyph name="h" format="2">
  <advance width="286.8"/>
  <unicode hex="0068"/>
  <note>
16
</note>
  <anchor x="102.4" y="0.0" name="bottom"/>
  <anchor x="159.0" y="370.0" name="center"/>
  <anchor x="220.0" y="740.0" name="top"/>
  <outline>
    <contour>
      <point x="211.0" y="58.400000000000006" type="curve" smooth="yes"/>
      <point x="211.0" y="84.8"/>
      <point x="273.4" y="444.2"/>
      <point x="273.4" y="470.6" type="curve" smooth="yes"/>
      <point x="273.4" y="513.6"/>
      <point x="254.8" y="544.0"/>
      <point x="208.8" y="544.0" type="curve" smooth="yes"/>
      <point x="182.0" y="544.0"/>
      <point x="152.2" y="534.0"/>
      <point x="127.8" y="517.6" type="curve"/>
      <point x="163.0" y="740.0" type="line"/>
      <point x="115.4" y="740.0" type="line"/>
      <point x="-1.8000000000000007" y="0.0" type="line"/>
      <point x="45.8" y="0.0" type="line"/>
      <point x="120.8" y="474.4" type="line"/>
      <point x="138.0" y="487.4"/>
      <point x="166.2" y="496.6"/>
      <point x="182.4" y="496.6" type="curve" smooth="yes"/>
      <point x="215.0" y="496.6"/>
      <point x="222.8" y="476.6"/>
      <point x="222.8" y="451.4" type="curve" smooth="yes"/>
      <point x="222.8" y="429.2"/>
      <point x="162.2" y="75.8"/>
      <point x="162.2" y="38.6" type="curve" smooth="yes"/>
      <point x="162.2" y="9.0"/>
      <point x="183.4" y="-10.0"/>
      <point x="211.4" y="-10.0" type="curve" smooth="yes"/>
      <point x="225.0" y="-10.0"/>
      <point x="238.6" y="-7.2"/>
      <point x="254.0" y="1.4000000000000004" type="curve"/>
      <point x="255.2" y="42.2" type="line"/>
      <point x="245.0" y="38.0"/>
      <point x="238.6" y="37.2"/>
      <point x="233.4" y="37.2" type="curve" smooth="yes"/>
      <point x="216.8" y="37.2"/>
      <point x="211.0" y="44.8"/>
    </contour>
  </outline>
</glyph>
<glyph name="i" format="2">
  <advance width="132.2"/>
  <unicode hex="0069"/>
  <note>
Ajuster pts sur points
8
</note>
  <anchor x="21.8" y="0.0" name="bottom"/>
  <anchor x="46.0" y="0.0" name="ogonek"/>
  <anchor x="106.4" y="534.0" name="top"/>
  <outline>
    <contour>
      <point x="-0.8000000000000007" y="0.0" type="line"/>
      <point x="46.0" y="0.0" type="line"/>
      <point x="130.6" y="534.0" type="line"/>
      <point x="83.0" y="534.0" type="line"/>
    </contour>
    <contour>
      <point x="138.4" y="726.0" type="curve" smooth="yes"/>
      <point x="111.2" y="726.0"/>
      <point x="105.0" y="709.8"/>
      <point x="102.6" y="676.8" type="curve" smooth="yes"/>
      <point x="101.8" y="659.8"/>
      <point x="111.0" y="654.6"/>
      <point x="125.6" y="654.6" type="curve" smooth="yes"/>
      <point x="153.0" y="654.6"/>
      <point x="159.0" y="671.2"/>
      <point x="161.4" y="704.0" type="curve" smooth="yes"/>
      <point x="162.2" y="721.0"/>
      <point x="152.8" y="726.0"/>
    </contour>
  </outline>
</glyph>
<glyph name="j" format="2">
  <advance width="139.6"/>
  <unicode hex="006A"/>
  <note>
idem /i
12
</note>
  <outline>
    <contour>
      <point x="145.8" y="726.0" type="curve" smooth="yes"/>
      <point x="118.6" y="726.0"/>
      <point x="112.4" y="709.8"/>
      <point x="110.0" y="676.8" type="curve" smooth="yes"/>
      <point x="109.2" y="659.8"/>
      <point x="118.6" y="654.6"/>
      <point x="133.2" y="654.6" type="curve" smooth="yes"/>
      <point x="160.4" y="654.6"/>
      <point x="166.4" y="671.2"/>
      <point x="168.8" y="704.0" type="curve" smooth="yes"/>
      <point x="169.6" y="721.0"/>
      <point x="160.2" y="726.0"/>
    </contour>
    <contour>
      <point x="138.2" y="534.0" type="line"/>
      <point x="90.4" y="534.0" type="line"/>
      <point x="-2.2" y="-51.2" type="line" smooth="yes"/>
      <point x="-14.0" y="-125.2"/>
      <point x="-34.4" y="-172.8"/>
      <point x="-84.6" y="-172.8" type="curve" smooth="yes"/>
      <point x="-98.2" y="-172.8"/>
      <point x="-109.0" y="-171.2"/>
      <point x="-124.4" y="-166.2" type="curve"/>
      <point x="-136.0" y="-211.2" type="line"/>
      <point x="-118.6" y="-217.6"/>
      <point x="-99.4" y="-220.0"/>
      <point x="-79.6" y="-220.0" type="curve" smooth="yes"/>
      <point x="-6.399999999999999" y="-220.0"/>
      <point x="27.6" y="-164.8"/>
      <point x="44.6" y="-55.8" type="curve" smooth="yes"/>
    </contour>
  </outline>
</glyph>
<glyph name="k" format="2">
  <advance width="272.8"/>
  <unicode hex="006B"/>
  <anchor x="113.8" y="0.0" name="bottom"/>
  <anchor x="139.8" y="740.0" name="top"/>
  <outline>
    <contour>
      <point x="-1.6000000000000005" y="0.0" type="line"/>
      <point x="46.2" y="0.0" type="line"/>
      <point x="163.2" y="740.0" type="line"/>
      <point x="115.4" y="740.0" type="line"/>
    </contour>
    <contour>
      <point x="222.4" y="-10.0" type="curve" smooth="yes"/>
      <point x="230.4" y="-10.0"/>
      <point x="238.4" y="-9.0"/>
      <point x="247.4" y="-5.2" type="curve"/>
      <point x="250.4" y="42.800000000000004" type="line"/>
      <point x="244.0" y="41.2"/>
      <point x="239.0" y="40.6"/>
      <point x="234.6" y="41.0" type="curve" smooth="yes"/>
      <point x="209.4" y="43.0"/>
      <point x="188.8" y="72.6"/>
      <point x="149.2" y="184.6" type="curve" smooth="yes"/>
      <point x="92.4" y="346.6" type="line"/>
      <point x="76.4" y="276.8" type="line"/>
      <point x="130.0" y="119.6" type="line" smooth="yes"/>
      <point x="163.6" y="21.4"/>
      <point x="185.8" y="-10.0"/>
    </contour>
    <contour>
      <point x="123.2" y="241.4" type="line"/>
      <point x="194.8" y="306.4"/>
      <point x="260.8" y="417.0"/>
      <point x="298.2" y="534.8" type="curve"/>
      <point x="254.4" y="543.4" type="line"/>
      <point x="216.0" y="422.8"/>
      <point x="164.8" y="341.6"/>
      <point x="101.8" y="280.8" type="curve"/>
    </contour>
  </outline>
</glyph>
<glyph name="l" format="2">
  <advance width="137.8"/>
  <unicode hex="006C"/>
  <anchor x="57.4" y="0.0" name="bottom"/>
  <anchor x="81.8" y="370.0" name="center"/>
  <anchor x="138.8" y="740.0" name="top"/>
  <anchor x="218.6" y="740.0" name="topright"/>
  <outline>
    <contour>
      <point x="115.4" y="740.0" type="line"/>
      <point x="8.6" y="65.6" type="line" smooth="yes"/>
      <point x="7.4" y="56.8"/>
      <point x="6.4" y="47.6"/>
      <point x="6.4" y="40.0" type="curve" smooth="yes"/>
      <point x="6.4" y="8.600000000000001"/>
      <point x="21.2" y="-10.0"/>
      <point x="57.2" y="-10.0" type="curve" smooth="yes"/>
      <point x="72.4" y="-10.0"/>
      <point x="92.2" y="-5.6"/>
      <point x="106.2" y="1.4000000000000004" type="curve"/>
      <point x="107.4" y="42.2" type="line"/>
      <point x="94.8" y="38.0"/>
      <point x="85.2" y="36.400000000000006"/>
      <point x="78.4" y="36.400000000000006" type="curve" smooth="yes"/>
      <point x="61.0" y="36.400000000000006"/>
      <point x="55.6" y="43.0"/>
      <point x="55.6" y="54.8" type="curve" smooth="yes"/>
      <point x="55.6" y="64.6"/>
      <point x="58.2" y="77.2"/>
      <point x="61.6" y="99.4" type="curve" smooth="yes"/>
      <point x="163.0" y="740.0" type="line"/>
    </contour>
  </outline>
</glyph>
<glyph name="m" format="2">
  <advance width="428.8"/>
  <unicode hex="006D"/>
  <note>
24&gt;23 points
un point de trop dans la jointure avec 2e jambage
</note>
  <outline>
    <contour>
      <point x="352.8" y="-10.0" type="curve" smooth="yes"/>
      <point x="366.4" y="-10.0"/>
      <point x="381.2" y="-7.2"/>
      <point x="396.0" y="1.4000000000000004" type="curve"/>
      <point x="397.2" y="42.2" type="line"/>
      <point x="387.0" y="38.0"/>
      <point x="380.6" y="37.2"/>
      <point x="375.4" y="37.2" type="curve" smooth="yes"/>
      <point x="358.8" y="37.2"/>
      <point x="352.2" y="45.400000000000006"/>
      <point x="352.2" y="59.6" type="curve" smooth="yes"/>
      <point x="352.2" y="89.6"/>
      <point x="414.6" y="445.6"/>
      <point x="414.6" y="471.8" type="curve" smooth="yes"/>
      <point x="414.6" y="513.2"/>
      <point x="397.0" y="544.0"/>
      <point x="350.8" y="544.0" type="curve" smooth="yes"/>
      <point x="327.6" y="544.0"/>
      <point x="293.6" y="535.8"/>
      <point x="259.8" y="509.6" type="curve"/>
      <point x="249.8" y="531.0"/>
      <point x="228.8" y="544.0"/>
      <point x="202.0" y="544.0" type="curve" smooth="yes"/>
      <point x="177.6" y="544.0"/>
      <point x="149.4" y="533.4"/>
      <point x="123.2" y="515.6" type="curve"/>
      <point x="126.8" y="534.0" type="line"/>
      <point x="82.2" y="534.0" type="line"/>
      <point x="-2.4000000000000004" y="0.0" type="line"/>
      <point x="45.2" y="0.0" type="line"/>
      <point x="120.0" y="475.2" type="line"/>
      <point x="137.0" y="488.0"/>
      <point x="160.0" y="496.6"/>
      <point x="179.6" y="496.6" type="curve" smooth="yes"/>
      <point x="205.8" y="496.6"/>
      <point x="217.4" y="479.0"/>
      <point x="217.4" y="454.6" type="curve" smooth="yes"/>
      <point x="217.4" y="426.0"/>
      <point x="151.8" y="32.4"/>
      <point x="146.4" y="0.0" type="curve"/>
      <point x="194.6" y="0.0" type="line"/>
      <point x="198.6" y="24.200000000000003"/>
      <point x="260.8" y="407.0"/>
      <point x="264.8" y="456.8" type="curve" smooth="yes"/>
      <point x="265.0" y="462.2"/>
      <point x="264.6" y="468.4"/>
      <point x="264.0" y="472.8" type="curve"/>
      <point x="281.2" y="485.8"/>
      <point x="304.8" y="496.6"/>
      <point x="327.4" y="496.6" type="curve" smooth="yes"/>
      <point x="355.2" y="496.6"/>
      <point x="363.8" y="476.6"/>
      <point x="363.8" y="451.4" type="curve" smooth="yes"/>
      <point x="363.8" y="426.8"/>
      <point x="303.2" y="77.6"/>
      <point x="303.2" y="39.2" type="curve" smooth="yes"/>
      <point x="303.2" y="7.800000000000001"/>
      <point x="324.8" y="-10.0"/>
    </contour>
  </outline>
</glyph>
<glyph name="n" format="2">
  <advance width="285.2"/>
  <unicode hex="006E"/>
  <note>
16
</note>
  <anchor x="111.0" y="0.0" name="bottom"/>
  <anchor x="181.8" y="534.0" name="top"/>
  <outline>
    <contour>
      <point x="82.2" y="534.0" type="line"/>
      <point x="-2.4000000000000004" y="0.0" type="line"/>
      <point x="45.2" y="0.0" type="line"/>
      <point x="120.2" y="474.4" type="line"/>
      <point x="137.4" y="487.4"/>
      <point x="164.6" y="497.4"/>
      <point x="181.0" y="497.4" type="curve" smooth="yes"/>
      <point x="213.6" y="497.4"/>
      <point x="222.2" y="476.6"/>
      <point x="222.2" y="451.4" type="curve" smooth="yes"/>
      <point x="222.2" y="427.0"/>
      <point x="161.6" y="77.6"/>
      <point x="161.6" y="37.6" type="curve" smooth="yes"/>
      <point x="161.6" y="9.2"/>
      <point x="181.6" y="-10.0"/>
      <point x="209.6" y="-10.0" type="curve" smooth="yes"/>
      <point x="223.2" y="-10.0"/>
      <point x="237.6" y="-7.2"/>
      <point x="252.4" y="1.4000000000000004" type="curve"/>
      <point x="253.6" y="42.2" type="line"/>
      <point x="243.4" y="38.0"/>
      <point x="237.0" y="37.2"/>
      <point x="231.8" y="37.2" type="curve" smooth="yes"/>
      <point x="215.2" y="37.2"/>
      <point x="210.2" y="44.8"/>
      <point x="210.2" y="58.400000000000006" type="curve" smooth="yes"/>
      <point x="210.2" y="84.8"/>
      <point x="272.8" y="444.2"/>
      <point x="272.8" y="470.6" type="curve" smooth="yes"/>
      <point x="272.8" y="513.6"/>
      <point x="253.4" y="544.0"/>
      <point x="207.4" y="544.0" type="curve" smooth="yes"/>
      <point x="180.6" y="544.0"/>
      <point x="148.4" y="532.6"/>
      <point x="123.0" y="514.8" type="curve"/>
      <point x="126.4" y="534.0" type="line"/>
    </contour>
  </outline>
</glyph>
<glyph name="o" format="2">
  <advance width="277.4"/>
  <unicode hex="006F"/>
  <note>
8
</note>
  <anchor x="96.6" y="0.0" name="bottom"/>
  <anchor x="139.0" y="267.0" name="center"/>
  <anchor x="137.4" y="1.2" name="ogonek"/>
  <anchor x="180.6" y="534.0" name="top"/>
  <anchor x="235.6" y="524.0" name="topright"/>
  <outline>
    <contour>
      <point x="101.8" y="-10.0" type="curve" smooth="yes"/>
      <point x="223.4" y="-10.0"/>
      <point x="263.0" y="289.4"/>
      <point x="263.0" y="424.6" type="curve" smooth="yes"/>
      <point x="263.0" y="519.0"/>
      <point x="234.8" y="543.4"/>
      <point x="173.0" y="543.4" type="curve" smooth="yes"/>
      <point x="51.4" y="543.4"/>
      <point x="11.8" y="244.0"/>
      <point x="11.8" y="109.2" type="curve" smooth="yes"/>
      <point x="11.8" y="14.8"/>
      <point x="40.4" y="-10.0"/>
    </contour>
    <contour>
      <point x="102.6" y="35.400000000000006" type="curve" smooth="yes"/>
      <point x="75.2" y="35.400000000000006"/>
      <point x="57.8" y="46.400000000000006"/>
      <point x="57.8" y="108.0" type="curve" smooth="yes"/>
      <point x="57.8" y="189.6"/>
      <point x="93.2" y="498.0"/>
      <point x="172.6" y="498.0" type="curve" smooth="yes"/>
      <point x="200.0" y="498.0"/>
      <point x="217.4" y="487.4"/>
      <point x="217.4" y="425.8" type="curve" smooth="yes"/>
      <point x="217.4" y="343.8"/>
      <point x="182.0" y="35.400000000000006"/>
    </contour>
  </outline>
</glyph>
<glyph name="p" format="2">
  <advance width="284.8"/>
  <unicode hex="0070"/>
  <note>
14 point
</note>
  <outline>
    <contour>
      <point x="-34.6" y="-210.0" type="line"/>
      <point x="12.0" y="-210.0" type="line"/>
      <point x="45.0" y="-3.0" type="line"/>
      <point x="58.400000000000006" y="-7.4"/>
      <point x="71.8" y="-9.6"/>
      <point x="88.8" y="-9.6" type="curve" smooth="yes"/>
      <point x="202.4" y="-9.6"/>
      <point x="269.4" y="190.2"/>
      <point x="269.4" y="391.2" type="curve" smooth="yes"/>
      <point x="269.4" y="496.8"/>
      <point x="244.8" y="544.0"/>
      <point x="189.6" y="544.0" type="curve" smooth="yes"/>
      <point x="164.6" y="544.0"/>
      <point x="145.4" y="533.8"/>
      <point x="127.2" y="522.8" type="curve"/>
      <point x="124.6" y="542.0" type="line"/>
      <point x="83.8" y="542.0" type="line"/>
    </contour>
    <contour>
      <point x="83.4" y="34.8" type="curve" smooth="yes"/>
      <point x="72.6" y="34.8"/>
      <point x="61.6" y="36.400000000000006"/>
      <point x="52.2" y="41.400000000000006" type="curve"/>
      <point x="121.6" y="479.8" type="line"/>
      <point x="134.0" y="488.0"/>
      <point x="157.0" y="496.2"/>
      <point x="171.4" y="496.2" type="curve" smooth="yes"/>
      <point x="204.6" y="496.2"/>
      <point x="221.0" y="462.0"/>
      <point x="221.0" y="386.0" type="curve" smooth="yes"/>
      <point x="221.0" y="214.2"/>
      <point x="166.4" y="34.8"/>
    </contour>
  </outline>
</glyph>
<glyph name="q" format="2">
  <advance width="279.4"/>
  <unicode hex="0071"/>
  <note>
12
</note>
  <outline>
    <contour>
      <point x="278.8" y="527.0" type="line"/>
      <point x="256.4" y="536.0"/>
      <point x="227.8" y="544.0"/>
      <point x="198.0" y="544.0" type="curve" smooth="yes"/>
      <point x="55.4" y="544.0"/>
      <point x="13.0" y="282.2"/>
      <point x="13.0" y="124.6" type="curve" smooth="yes"/>
      <point x="13.0" y="29.6"/>
      <point x="46.0" y="-10.0"/>
      <point x="92.2" y="-10.0" type="curve" smooth="yes"/>
      <point x="116.4" y="-10.0"/>
      <point x="134.8" y="0.0"/>
      <point x="149.0" y="10.8" type="curve"/>
      <point x="112.4" y="-210.0" type="line"/>
      <point x="161.2" y="-210.0" type="line"/>
    </contour>
    <contour>
      <point x="225.4" y="492.8" type="curve"/>
      <point x="156.0" y="55.8" type="line"/>
      <point x="143.4" y="44.2"/>
      <point x="124.2" y="37.6"/>
      <point x="109.4" y="37.6" type="curve" smooth="yes"/>
      <point x="75.8" y="37.6"/>
      <point x="60.8" y="79.0"/>
      <point x="60.8" y="123.2" type="curve" smooth="yes"/>
      <point x="60.8" y="278.2"/>
      <point x="100.0" y="499.4"/>
      <point x="193.6" y="499.4" type="curve" smooth="yes"/>
      <point x="202.0" y="499.4"/>
      <point x="213.6" y="497.0"/>
    </contour>
  </outline>
</glyph>
<glyph name="r" format="2">
  <advance width="192.6"/>
  <unicode hex="0072"/>
  <anchor x="20.8" y="0.0" name="bottom"/>
  <anchor x="163.0" y="534.0" name="top"/>
  <outline>
    <contour>
      <point x="126.4" y="534.0" type="line"/>
      <point x="82.2" y="534.0" type="line"/>
      <point x="-2.4000000000000004" y="0.0" type="line"/>
      <point x="44.6" y="0.0" type="line"/>
      <point x="115.4" y="447.2" type="line"/>
      <point x="144.0" y="478.6"/>
      <point x="167.8" y="491.0"/>
      <point x="192.2" y="491.0" type="curve" smooth="yes"/>
      <point x="203.0" y="491.0"/>
      <point x="215.0" y="489.2"/>
      <point x="226.8" y="485.2" type="curve"/>
      <point x="243.2" y="536.6" type="line"/>
      <point x="230.6" y="542.2"/>
      <point x="218.0" y="544.0"/>
      <point x="204.0" y="544.0" type="curve" smooth="yes"/>
      <point x="175.6" y="544.0"/>
      <point x="145.2" y="527.4"/>
      <point x="120.2" y="498.6" type="curve"/>
    </contour>
  </outline>
</glyph>
<glyph name="s" format="2">
  <advance width="234.6"/>
  <unicode hex="0073"/>
  <anchor x="67.2" y="0.0" name="bottom"/>
  <anchor x="172.4" y="534.0" name="top"/>
  <outline>
    <contour>
      <point x="-19.2" y="9.0" type="line"/>
      <point x="3.2" y="-3.4"/>
      <point x="31.2" y="-10.0"/>
      <point x="64.8" y="-10.0" type="curve" smooth="yes"/>
      <point x="157.0" y="-10.0"/>
      <point x="201.2" y="68.4"/>
      <point x="201.2" y="149.2" type="curve" smooth="yes"/>
      <point x="201.2" y="262.0"/>
      <point x="95.6" y="310.6"/>
      <point x="95.6" y="398.2" type="curve" smooth="yes"/>
      <point x="95.6" y="449.2"/>
      <point x="124.2" y="496.6"/>
      <point x="174.8" y="496.6" type="curve" smooth="yes"/>
      <point x="197.4" y="496.6"/>
      <point x="217.8" y="489.2"/>
      <point x="235.4" y="481.0" type="curve"/>
      <point x="251.2" y="526.0" type="line"/>
      <point x="235.4" y="536.2"/>
      <point x="207.8" y="544.0"/>
      <point x="179.0" y="544.0" type="curve" smooth="yes"/>
      <point x="88.6" y="544.0"/>
      <point x="49.0" y="464.6"/>
      <point x="49.0" y="394.6" type="curve" smooth="yes"/>
      <point x="49.0" y="272.6"/>
      <point x="154.0" y="235.8"/>
      <point x="154.0" y="144.2" type="curve" smooth="yes"/>
      <point x="154.0" y="90.6"/>
      <point x="123.2" y="36.6"/>
      <point x="67.4" y="36.6" type="curve" smooth="yes"/>
      <point x="44.0" y="36.6"/>
      <point x="18.8" y="42.2"/>
      <point x="-2.1999999999999993" y="53.0" type="curve"/>
    </contour>
  </outline>
</glyph>
<glyph name="u" format="2">
  <advance width="284.8"/>
  <unicode hex="0075"/>
  <note>
15
</note>
  <anchor x="101.8" y="0.0" name="bottom"/>
  <anchor x="252.2" y="3.0" name="ogonek"/>
  <anchor x="181.5112" y="534.0" name="top"/>
  <anchor x="275.6" y="534.0" name="topright"/>
  <outline>
    <contour>
      <point x="74.4" y="-10.0" type="curve" smooth="yes"/>
      <point x="104.0" y="-10.0"/>
      <point x="130.0" y="1.4000000000000001"/>
      <point x="160.4" y="25.2" type="curve"/>
      <point x="165.0" y="2.2"/>
      <point x="182.6" y="-10.0"/>
      <point x="206.2" y="-10.0" type="curve" smooth="yes"/>
      <point x="218.2" y="-10.0"/>
      <point x="239.0" y="-4.8"/>
      <point x="252.2" y="3.0" type="curve"/>
      <point x="252.6" y="42.8" type="line"/>
      <point x="242.4" y="38.6"/>
      <point x="232.0" y="36.2"/>
      <point x="226.0" y="36.2" type="curve" smooth="yes"/>
      <point x="211.0" y="36.2"/>
      <point x="207.2" y="45.2"/>
      <point x="207.2" y="56.2" type="curve" smooth="yes"/>
      <point x="207.2" y="66.0"/>
      <point x="209.8" y="84.4"/>
      <point x="281.6" y="534.0" type="curve"/>
      <point x="234.6" y="534.0" type="line"/>
      <point x="160.2" y="62.400000000000006" type="line"/>
      <point x="137.4" y="44.6"/>
      <point x="115.2" y="36.2"/>
      <point x="95.4" y="36.2" type="curve" smooth="yes"/>
      <point x="70.6" y="36.2"/>
      <point x="57.0" y="55.2"/>
      <point x="57.400000000000006" y="78.8" type="curve" smooth="yes"/>
      <point x="61.0" y="113.2"/>
      <point x="66.4" y="146.8"/>
      <point x="127.0" y="534.0" type="curve"/>
      <point x="79.8" y="534.0" type="line"/>
      <point x="32.4" y="225.6"/>
      <point x="8.0" y="103.2"/>
      <point x="8.0" y="56.8" type="curve" smooth="yes"/>
      <point x="8.0" y="16.6"/>
      <point x="33.2" y="-10.0"/>
    </contour>
  </outline>
</glyph>
<glyph name="v" format="2">
  <advance width="256.8"/>
  <unicode hex="0076"/>
  <outline>
    <contour>
      <point x="115.0" y="-3.2" type="line"/>
      <point x="220.4" y="316.8"/>
      <point x="271.8" y="411.6"/>
      <point x="272.8" y="534.0" type="curve"/>
      <point x="224.2" y="534.0" type="line"/>
      <point x="221.8" y="424.4"/>
      <point x="198.0" y="375.6"/>
      <point x="93.8" y="58.6" type="curve"/>
      <point x="101.4" y="534.0" type="line"/>
      <point x="51.8" y="534.0" type="line"/>
      <point x="55.0" y="-3.2" type="line"/>
    </contour>
  </outline>
</glyph>
<glyph name="w" format="2">
  <advance width="430.2"/>
  <unicode hex="0077"/>
  <note>
15
</note>
  <anchor x="182.2" y="0.0" name="bottom"/>
  <anchor x="248.0" y="534.0" name="top"/>
  <outline>
    <contour>
      <point x="305.0" y="0.0" type="line"/>
      <point x="408.4" y="346.8"/>
      <point x="436.8" y="406.0"/>
      <point x="444.2" y="534.0" type="curve"/>
      <point x="396.2" y="534.0" type="line"/>
      <point x="386.4" y="409.6"/>
      <point x="369.0" y="359.6"/>
      <point x="285.4" y="63.6" type="curve"/>
      <point x="275.6" y="486.8" type="line"/>
      <point x="221.6" y="486.8" type="line"/>
      <point x="182.6" y="344.8"/>
      <point x="144.4" y="203.0"/>
      <point x="105.4" y="61.0" type="curve"/>
      <point x="96.0" y="534.0" type="line"/>
      <point x="47.0" y="534.0" type="line"/>
      <point x="66.2" y="0.0" type="line"/>
      <point x="124.8" y="0.0" type="line"/>
      <point x="162.2" y="136.0"/>
      <point x="200.2" y="272.8"/>
      <point x="237.6" y="408.8" type="curve"/>
      <point x="248.4" y="0.0" type="line"/>
    </contour>
  </outline>
</glyph>
<glyph name="x" format="2">
  <advance width="259.6"/>
  <unicode hex="0078"/>
  <outline>
    <contour>
      <point x="221.2" y="534.0" type="line"/>
      <point x="221.2" y="468.4"/>
      <point x="199.0" y="393.0"/>
      <point x="137.2" y="298.8" type="curve"/>
      <point x="106.6" y="537.2" type="line"/>
      <point x="56.6" y="534.0" type="line"/>
      <point x="95.6" y="269.2" type="line"/>
      <point x="25.6" y="166.2"/>
      <point x="-13.4" y="77.0"/>
      <point x="-15.6" y="0.0" type="curve"/>
      <point x="33.8" y="0.0" type="line"/>
      <point x="36.0" y="71.8"/>
      <point x="68.8" y="147.2"/>
      <point x="124.6" y="233.6" type="curve"/>
      <point x="155.8" y="-1.6" type="line"/>
      <point x="206.4" y="0.8" type="line"/>
      <point x="166.2" y="264.0" type="line"/>
      <point x="241.2" y="368.0"/>
      <point x="271.0" y="471.4"/>
      <point x="271.0" y="534.0" type="curve"/>
    </contour>
  </outline>
</glyph>
<glyph name="y" format="2">
  <advance width="255.6"/>
  <unicode hex="0079"/>
  <anchor x="67.0" y="-210.0" name="bottom"/>
  <anchor x="158.2" y="534.0" name="top"/>
  <outline>
    <contour>
      <point x="227.8" y="542.0" type="line"/>
      <point x="201.4" y="341.2"/>
      <point x="155.4" y="196.4"/>
      <point x="105.2" y="54.8" type="curve"/>
      <point x="91.0" y="542.0" type="line"/>
      <point x="44.0" y="540.4" type="line"/>
      <point x="61.4" y="0.0" type="line"/>
      <point x="79.2" y="0.0" type="line"/>
      <point x="51.8" y="-74.0"/>
      <point x="20.4" y="-142.0"/>
      <point x="-14.0" y="-210.0" type="curve"/>
      <point x="33.0" y="-218.0" type="line"/>
      <point x="147.4" y="24.200000000000003"/>
      <point x="238.2" y="278.4"/>
      <point x="274.6" y="538.8" type="curve"/>
    </contour>
  </outline>
</glyph>
<glyph name="z" format="2">
  <advance width="247.8"/>
  <unicode hex="007A"/>
  <anchor x="95.2" y="0.0" name="bottom"/>
  <anchor x="120.4" y="275.0" name="center"/>
  <anchor x="171.6" y="534.0" name="top"/>
  <outline>
    <contour>
      <point x="-18.0" y="0.0" type="line"/>
      <point x="203.6" y="0.0" type="line"/>
      <point x="210.8" y="46.400000000000006" type="line"/>
      <point x="39.0" y="46.400000000000006" type="line"/>
      <point x="264.6" y="489.2" type="line"/>
      <point x="272.4" y="534.0" type="line"/>
      <point x="71.8" y="534.0" type="line"/>
      <point x="64.4" y="487.2" type="line"/>
      <point x="214.8" y="487.2" type="line"/>
      <point x="-12.0" y="42.400000000000006" type="line"/>
    </contour>
  </outline>
</glyph>
<glyph name="braceleft" format="2">
  <advance width="195.8"/>
  <unicode hex="007B"/>
  <outline>
    <contour>
      <point x="3.8" y="-117.4" type="curve" smooth="yes"/>
      <point x="3.8" y="-174.4"/>
      <point x="26.0" y="-210.0"/>
      <point x="65.4" y="-210.0" type="curve" smooth="yes"/>
      <point x="93.6" y="-210.0" type="line"/>
      <point x="101.2" y="-164.4" type="line"/>
      <point x="82.4" y="-164.4" type="line" smooth="yes"/>
      <point x="58.400000000000006" y="-164.4"/>
      <point x="47.400000000000006" y="-140.6"/>
      <point x="47.400000000000006" y="-105.2" type="curve" smooth="yes"/>
      <point x="47.400000000000006" y="5.4"/>
      <point x="117.2" y="102.2"/>
      <point x="117.2" y="205.2" type="curve" smooth="yes"/>
      <point x="117.2" y="233.0"/>
      <point x="113.4" y="259.4"/>
      <point x="91.4" y="272.2" type="curve"/>
      <point x="135.2" y="284.4"/>
      <point x="152.6" y="361.0"/>
      <point x="152.6" y="414.2" type="curve" smooth="yes"/>
      <point x="152.6" y="460.8"/>
      <point x="150.4" y="488.8"/>
      <point x="150.4" y="549.0" type="curve" smooth="yes"/>
      <point x="150.4" y="618.2"/>
      <point x="169.2" y="694.4"/>
      <point x="221.8" y="694.4" type="curve" smooth="yes"/>
      <point x="237.0" y="694.4" type="line"/>
      <point x="244.2" y="740.0" type="line"/>
      <point x="220.0" y="740.0" type="line" smooth="yes"/>
      <point x="135.4" y="740.0"/>
      <point x="108.0" y="637.0"/>
      <point x="108.0" y="539.8" type="curve" smooth="yes"/>
      <point x="108.0" y="482.8"/>
      <point x="110.8" y="453.2"/>
      <point x="110.8" y="420.2" type="curve" smooth="yes"/>
      <point x="110.8" y="371.4"/>
      <point x="102.8" y="296.6"/>
      <point x="62.2" y="296.6" type="curve" smooth="yes"/>
      <point x="49.0" y="296.6" type="line"/>
      <point x="41.6" y="250.0" type="line"/>
      <point x="53.2" y="250.0" type="line" smooth="yes"/>
      <point x="73.0" y="250.0"/>
      <point x="77.2" y="230.8"/>
      <point x="77.2" y="207.4" type="curve" smooth="yes"/>
      <point x="77.2" y="99.0"/>
      <point x="3.8" y="10.4"/>
    </contour>
  </outline>
</glyph>
<glyph name="bar" format="2">
  <advance width="117.2"/>
  <unicode hex="007C"/>
  <outline>
    <contour>
      <point x="161.8" y="790.2" type="line"/>
      <point x="119.2" y="790.2" type="line"/>
      <point x="-39.8" y="-210.0" type="line"/>
      <point x="3.0" y="-210.0" type="line"/>
    </contour>
  </outline>
</glyph>
<glyph name="braceright" format="2">
  <advance width="195.8"/>
  <unicode hex="007D"/>
  <outline>
    <contour>
      <point x="189.0" y="647.4" type="curve" smooth="yes"/>
      <point x="189.0" y="704.6"/>
      <point x="166.6" y="740.2"/>
      <point x="127.2" y="740.2" type="curve" smooth="yes"/>
      <point x="99.0" y="740.2" type="line"/>
      <point x="91.4" y="694.6" type="line"/>
      <point x="108.2" y="694.6" type="line" smooth="yes"/>
      <point x="132.4" y="694.6"/>
      <point x="143.6" y="670.6"/>
      <point x="143.6" y="635.2" type="curve" smooth="yes"/>
      <point x="143.6" y="524.2"/>
      <point x="73.8" y="438.6"/>
      <point x="73.8" y="331.4" type="curve" smooth="yes"/>
      <point x="73.8" y="304.2"/>
      <point x="77.4" y="277.8"/>
      <point x="99.8" y="265.2" type="curve"/>
      <point x="56.0" y="252.8"/>
      <point x="38.4" y="176.6"/>
      <point x="38.4" y="123.2" type="curve" smooth="yes"/>
      <point x="38.4" y="76.6"/>
      <point x="40.6" y="41.4"/>
      <point x="40.6" y="-18.4" type="curve" smooth="yes"/>
      <point x="40.6" y="-87.6"/>
      <point x="22.0" y="-164.2"/>
      <point x="-30.6" y="-164.2" type="curve" smooth="yes"/>
      <point x="-44.2" y="-164.2" type="line"/>
      <point x="-51.4" y="-210.0" type="line"/>
      <point x="-27.4" y="-210.0" type="line" smooth="yes"/>
      <point x="57.2" y="-210.0"/>
      <point x="84.6" y="-104.4"/>
      <point x="84.6" y="-13.6" type="curve" smooth="yes"/>
      <point x="84.6" y="48.8"/>
      <point x="81.8" y="86.4"/>
      <point x="81.8" y="118.0" type="curve" smooth="yes"/>
      <point x="81.8" y="166.4"/>
      <point x="90.2" y="240.8"/>
      <point x="130.4" y="240.8" type="curve" smooth="yes"/>
      <point x="143.6" y="240.8" type="line"/>
      <point x="151.0" y="287.2" type="line"/>
      <point x="139.4" y="287.2" type="line" smooth="yes"/>
      <point x="119.6" y="287.2"/>
      <point x="115.4" y="306.4"/>
      <point x="115.4" y="329.8" type="curve" smooth="yes"/>
      <point x="115.4" y="438.4"/>
      <point x="189.0" y="516.8"/>
    </contour>
  </outline>
</glyph>
<glyph name="asciitilde" format="2">
  <advance width="353.8"/>
  <unicode hex="007E"/>
  <outline>
    <contour>
      <point x="295.8" y="249.0" type="curve"/>
      <point x="303.8" y="300.2" type="line"/>
      <point x="283.2" y="274.6"/>
      <point x="267.2" y="264.2"/>
      <point x="247.0" y="264.2" type="curve" smooth="yes"/>
      <point x="192.8" y="264.2"/>
      <point x="182.0" y="373.8"/>
      <point x="124.2" y="373.8" type="curve" smooth="yes"/>
      <point x="99.2" y="373.8"/>
      <point x="80.8" y="361.6"/>
      <point x="65.4" y="341.8" type="curve"/>
      <point x="57.4" y="290.6" type="line"/>
      <point x="74.4" y="312.8"/>
      <point x="92.8" y="326.6"/>
      <point x="115.4" y="326.6" type="curve" smooth="yes"/>
      <point x="166.0" y="326.6"/>
      <point x="177.6" y="217.0"/>
      <point x="239.0" y="217.0" type="curve" smooth="yes"/>
      <point x="261.6" y="217.0"/>
      <point x="276.8" y="225.8"/>
    </contour>
  </outline>
</glyph>
<glyph name="cent" format="2">
  <advance width="284.0"/>
  <unicode hex="00A2"/>
  <outline>
    <contour>
      <point x="94.0" y="-105.2" type="line"/>
      <point x="137.4" y="-105.2" type="line"/>
      <point x="152.6" y="-8.4" type="line"/>
      <point x="170.0" y="-6.8"/>
      <point x="187.0" y="-4.0"/>
      <point x="200.6" y="1.6" type="curve"/>
      <point x="198.2" y="49.6" type="line"/>
      <point x="183.6" y="44.800000000000004"/>
      <point x="164.6" y="42.0"/>
      <point x="153.4" y="42.0" type="curve" smooth="yes"/>
      <point x="109.80000000000001" y="42.0"/>
      <point x="96.6" y="80.0"/>
      <point x="96.6" y="142.4" type="curve" smooth="yes"/>
      <point x="96.6" y="331.8"/>
      <point x="154.0" y="490.2"/>
      <point x="223.6" y="490.2" type="curve" smooth="yes"/>
      <point x="235.4" y="490.2"/>
      <point x="248.0" y="487.4"/>
      <point x="260.8" y="483.2" type="curve"/>
      <point x="277.6" y="534.2" type="line"/>
      <point x="266.6" y="537.6"/>
      <point x="256.2" y="540.8"/>
      <point x="244.6" y="542.2" type="curve"/>
      <point x="260.6" y="638.8" type="line"/>
      <point x="217.2" y="638.8" type="line"/>
      <point x="200.8" y="539.4" type="line"/>
      <point x="111.0" y="520.6"/>
      <point x="46.4" y="340.6"/>
      <point x="46.4" y="124.0" type="curve" smooth="yes"/>
      <point x="46.4" y="35.6"/>
      <point x="74.8" y="3.6000000000000005"/>
      <point x="108.6" y="-5.8" type="curve"/>
    </contour>
  </outline>
</glyph>
<glyph name="sterling" format="2">
  <advance width="284.0"/>
  <unicode hex="00A3"/>
  <outline>
    <contour>
      <point x="16.8" y="0.0" type="line"/>
      <point x="201.6" y="0.0" type="line"/>
      <point x="209.0" y="48.0" type="line"/>
      <point x="79.80000000000001" y="48.0" type="line"/>
      <point x="128.8" y="119.4"/>
      <point x="164.6" y="189.6"/>
      <point x="164.6" y="296.0" type="curve" smooth="yes"/>
      <point x="164.6" y="355.6"/>
      <point x="150.4" y="406.4"/>
      <point x="150.4" y="465.6" type="curve" smooth="yes"/>
      <point x="150.4" y="606.6"/>
      <point x="204.6" y="658.4"/>
      <point x="243.8" y="658.4" type="curve" smooth="yes"/>
      <point x="262.8" y="658.4"/>
      <point x="278.0" y="654.2"/>
      <point x="294.0" y="644.6" type="curve"/>
      <point x="311.6" y="689.8" type="line"/>
      <point x="294.8" y="702.2"/>
      <point x="271.0" y="710.0"/>
      <point x="248.4" y="710.0" type="curve" smooth="yes"/>
      <point x="162.0" y="710.0"/>
      <point x="104.4" y="625.0"/>
      <point x="104.4" y="474.8" type="curve" smooth="yes"/>
      <point x="104.4" y="392.8"/>
      <point x="119.6" y="359.4"/>
      <point x="119.6" y="287.2" type="curve" smooth="yes"/>
      <point x="119.6" y="178.8"/>
      <point x="74.6" y="109.2"/>
      <point x="20.4" y="39.6" type="curve"/>
    </contour>
    <contour>
      <point x="60.8" y="350.8" type="line"/>
      <point x="246.4" y="350.8" type="line"/>
      <point x="251.8" y="388.2" type="line"/>
      <point x="66.6" y="388.2" type="line"/>
    </contour>
  </outline>
</glyph>
<glyph name="currency" format="2">
  <advance width="377.2"/>
  <unicode hex="00A4"/>
  <outline>
    <contour>
      <point x="35.2" y="110.0" type="line"/>
      <point x="110.0" y="180.4" type="line"/>
      <point x="125.2" y="164.0"/>
      <point x="147.0" y="155.2"/>
      <point x="173.0" y="155.2" type="curve" smooth="yes"/>
      <point x="198.6" y="155.2"/>
      <point x="223.4" y="164.0"/>
      <point x="244.2" y="180.2" type="curve"/>
      <point x="296.8" y="110.0" type="line"/>
      <point x="333.2" y="143.8" type="line"/>
      <point x="281.6" y="211.8" type="line"/>
      <point x="304.4" y="237.0"/>
      <point x="319.6" y="271.8"/>
      <point x="320.0" y="309.0" type="curve" smooth="yes"/>
      <point x="320.4" y="330.6"/>
      <point x="315.6" y="350.0"/>
      <point x="306.6" y="367.0" type="curve"/>
      <point x="379.2" y="435.0" type="line"/>
      <point x="353.8" y="468.8" type="line"/>
      <point x="279.4" y="399.2" type="line"/>
      <point x="263.4" y="415.4"/>
      <point x="241.6" y="425.2"/>
      <point x="215.8" y="425.2" type="curve" smooth="yes"/>
      <point x="189.6" y="425.2"/>
      <point x="164.4" y="415.2"/>
      <point x="143.2" y="399.0" type="curve"/>
      <point x="92.2" y="468.8" type="line"/>
      <point x="57.0" y="435.0" type="line"/>
      <point x="106.8" y="366.8" type="line"/>
      <point x="84.4" y="341.4"/>
      <point x="70.2" y="308.0"/>
      <point x="69.8" y="271.4" type="curve" smooth="yes"/>
      <point x="69.4" y="249.0"/>
      <point x="74.0" y="228.8"/>
      <point x="83.0" y="212.0" type="curve"/>
      <point x="11.0" y="143.8" type="line"/>
    </contour>
    <contour>
      <point x="180.0" y="194.2" type="curve" smooth="yes"/>
      <point x="136.6" y="194.2"/>
      <point x="106.2" y="228.2"/>
      <point x="106.8" y="273.6" type="curve" smooth="yes"/>
      <point x="107.4" y="334.6"/>
      <point x="157.6" y="386.0"/>
      <point x="209.8" y="386.0" type="curve" smooth="yes"/>
      <point x="254.0" y="386.0"/>
      <point x="283.4" y="351.4"/>
      <point x="282.8" y="305.6" type="curve" smooth="yes"/>
      <point x="282.2" y="245.0"/>
      <point x="233.0" y="194.2"/>
    </contour>
  </outline>
</glyph>
<glyph name="yen" format="2">
  <advance width="284.0"/>
  <unicode hex="00A5"/>
  <outline>
    <contour>
      <point x="66.2" y="345.4" type="line"/>
      <point x="131.2" y="345.4" type="line"/>
      <point x="114.0" y="238.8" type="line"/>
      <point x="50.6" y="238.8" type="line"/>
      <point x="43.8" y="201.8" type="line"/>
      <point x="108.2" y="201.8" type="line"/>
      <point x="76.4" y="0.0" type="line"/>
      <point x="123.2" y="0.0" type="line"/>
      <point x="155.0" y="201.8" type="line"/>
      <point x="223.2" y="201.8" type="line"/>
      <point x="229.0" y="238.8" type="line"/>
      <point x="160.8" y="238.8" type="line"/>
      <point x="178.0" y="345.4" type="line"/>
      <point x="245.6" y="345.4" type="line"/>
      <point x="252.0" y="382.4" type="line"/>
      <point x="185.4" y="382.4" type="line"/>
      <point x="312.8" y="701.0" type="line"/>
      <point x="263.2" y="706.4" type="line"/>
      <point x="169.8" y="432.8" type="line"/>
      <point x="155.8" y="701.6" type="line"/>
      <point x="106.2" y="700.0" type="line"/>
      <point x="137.0" y="382.4" type="line"/>
      <point x="72.6" y="382.4" type="line"/>
    </contour>
  </outline>
</glyph>
<glyph name="brokenbar" format="2">
  <advance width="119.0"/>
  <unicode hex="00A6"/>
  <outline>
    <contour>
      <point x="98.6" y="391.0" type="line"/>
      <point x="163.0" y="790.2" type="line"/>
      <point x="120.4" y="790.2" type="line"/>
      <point x="56.0" y="391.0" type="line"/>
    </contour>
    <contour>
      <point x="24.4" y="190.2" type="line"/>
      <point x="-39.0" y="-210.0" type="line"/>
      <point x="3.6000000000000014" y="-210.0" type="line"/>
      <point x="67.2" y="190.2" type="line"/>
    </contour>
  </outline>
</glyph>
<glyph name="section" format="2">
  <advance width="336.6"/>
  <unicode hex="00A7"/>
  <outline>
    <contour>
      <point x="-0.7999999999999998" y="-135.4" type="curve"/>
      <point x="-25.0" y="-185.0" type="line"/>
      <point x="2.8" y="-210.0"/>
      <point x="33.2" y="-220.0"/>
      <point x="65.2" y="-220.0" type="curve" smooth="yes"/>
      <point x="195.6" y="-220.0"/>
      <point x="292.2" y="-39.2"/>
      <point x="292.2" y="149.2" type="curve" smooth="yes"/>
      <point x="292.2" y="317.8"/>
      <point x="208.8" y="425.4"/>
      <point x="208.8" y="572.2" type="curve" smooth="yes"/>
      <point x="208.8" y="642.0"/>
      <point x="236.6" y="693.6"/>
      <point x="278.6" y="693.6" type="curve" smooth="yes"/>
      <point x="288.8" y="693.6"/>
      <point x="298.6" y="690.2"/>
      <point x="311.4" y="683.2" type="curve"/>
      <point x="333.6" y="735.4" type="line"/>
      <point x="316.2" y="745.0"/>
      <point x="290.4" y="749.2"/>
      <point x="271.4" y="749.2" type="curve" smooth="yes"/>
      <point x="133.2" y="749.2"/>
      <point x="44.2" y="588.0"/>
      <point x="44.2" y="396.0" type="curve" smooth="yes"/>
      <point x="44.2" y="206.6"/>
      <point x="126.8" y="78.6"/>
      <point x="126.8" y="-57.599999999999994" type="curve" smooth="yes"/>
      <point x="126.8" y="-119.2"/>
      <point x="99.0" y="-165.4"/>
      <point x="56.8" y="-165.4" type="curve" smooth="yes"/>
      <point x="37.2" y="-165.4"/>
      <point x="15.2" y="-154.8"/>
    </contour>
    <contour>
      <point x="223.4" y="707.4" type="curve"/>
      <point x="191.0" y="676.8"/>
      <point x="173.4" y="621.4"/>
      <point x="173.4" y="569.6" type="curve" smooth="yes"/>
      <point x="173.4" y="401.6"/>
      <point x="254.8" y="308.8"/>
      <point x="254.8" y="131.2" type="curve" smooth="yes"/>
      <point x="254.8" y="-9.799999999999999"/>
      <point x="181.6" y="-157.0"/>
      <point x="104.8" y="-176.8" type="curve"/>
      <point x="147.0" y="-143.0"/>
      <point x="163.4" y="-94.4"/>
      <point x="163.4" y="-40.8" type="curve" smooth="yes"/>
      <point x="163.4" y="98.2"/>
      <point x="81.6" y="235.0"/>
      <point x="81.6" y="393.2" type="curve" smooth="yes"/>
      <point x="81.6" y="545.8"/>
      <point x="132.8" y="668.4"/>
    </contour>
  </outline>
</glyph>
<glyph name="copyright" format="2">
  <advance width="358.4"/>
  <unicode hex="00A9"/>
  <outline>
    <contour>
      <point x="139.6" y="-10.0" type="curve" smooth="yes"/>
      <point x="277.2" y="-10.0"/>
      <point x="352.0" y="310.8"/>
      <point x="352.0" y="556.4" type="curve" smooth="yes"/>
      <point x="352.0" y="665.0"/>
      <point x="311.0" y="712.4"/>
      <point x="243.4" y="712.4" type="curve" smooth="yes"/>
      <point x="105.0" y="712.4"/>
      <point x="30.2" y="391.6"/>
      <point x="30.2" y="146.0" type="curve" smooth="yes"/>
      <point x="30.2" y="37.4"/>
      <point x="71.2" y="-10.0"/>
    </contour>
    <contour>
      <point x="173.0" y="155.2" type="curve" smooth="yes"/>
      <point x="183.4" y="155.2"/>
      <point x="201.4" y="158.0"/>
      <point x="211.8" y="161.8" type="curve"/>
      <point x="211.8" y="195.4" type="line"/>
      <point x="205.2" y="193.0"/>
      <point x="189.2" y="191.6"/>
      <point x="183.0" y="191.6" type="curve" smooth="yes"/>
      <point x="158.8" y="191.6"/>
      <point x="148.0" y="217.2"/>
      <point x="148.0" y="259.8" type="curve" smooth="yes"/>
      <point x="148.0" y="370.8"/>
      <point x="183.4" y="493.2"/>
      <point x="228.6" y="493.2" type="curve" smooth="yes"/>
      <point x="238.2" y="493.2"/>
      <point x="245.6" y="492.8"/>
      <point x="253.4" y="489.4" type="curve"/>
      <point x="265.0" y="526.2" type="line"/>
      <point x="256.6" y="530.0"/>
      <point x="245.0" y="532.2"/>
      <point x="230.0" y="532.2" type="curve" smooth="yes"/>
      <point x="167.6" y="532.2"/>
      <point x="111.2" y="407.6"/>
      <point x="111.2" y="259.8" type="curve" smooth="yes"/>
      <point x="111.2" y="189.4"/>
      <point x="132.0" y="155.2"/>
    </contour>
    <contour>
      <point x="140.6" y="14.8" type="curve" smooth="yes"/>
      <point x="87.6" y="14.8"/>
      <point x="56.4" y="54.2"/>
      <point x="56.4" y="149.8" type="curve" smooth="yes"/>
      <point x="56.4" y="372.8"/>
      <point x="123.2" y="687.6"/>
      <point x="241.6" y="687.6" type="curve" smooth="yes"/>
      <point x="294.6" y="687.6"/>
      <point x="325.8" y="648.2"/>
      <point x="325.8" y="552.6" type="curve" smooth="yes"/>
      <point x="325.8" y="329.6"/>
      <point x="259.0" y="14.8"/>
    </contour>
  </outline>
</glyph>
<glyph name="ordfeminine" format="2">
  <advance width="209.0"/>
  <unicode hex="00AA"/>
  <outline>
    <contour>
      <point x="35.6" y="289.8" type="line"/>
      <point x="186.0" y="289.8" type="line"/>
      <point x="191.0" y="319.8" type="line"/>
      <point x="40.6" y="319.8" type="line"/>
    </contour>
    <component base="a.superior" xOffset="9.6"/>
  </outline>
</glyph>
<glyph name="logicalnot" format="2">
  <advance width="348.6"/>
  <unicode hex="00AC"/>
  <outline>
    <contour>
      <point x="57.0" y="368.2" type="line"/>
      <point x="275.0" y="368.2" type="line"/>
      <point x="245.2" y="177.4" type="line"/>
      <point x="290.8" y="177.4" type="line"/>
      <point x="328.0" y="412.6" type="line"/>
      <point x="64.4" y="412.6" type="line"/>
    </contour>
  </outline>
</glyph>
<glyph name="registered" format="2">
  <advance width="342.0"/>
  <unicode hex="00AE"/>
  <outline>
    <contour>
      <point x="167.0" y="208.0" type="curve" smooth="yes"/>
      <point x="275.6" y="208.0"/>
      <point x="365.8" y="460.6"/>
      <point x="365.8" y="734.0" type="curve" smooth="yes"/>
      <point x="365.8" y="841.8"/>
      <point x="330.8" y="894.6"/>
      <point x="262.8" y="894.6" type="curve" smooth="yes"/>
      <point x="154.2" y="894.6"/>
      <point x="64.0" y="642.0"/>
      <point x="64.0" y="368.6" type="curve" smooth="yes"/>
      <point x="64.0" y="260.8"/>
      <point x="99.0" y="208.0"/>
    </contour>
    <contour>
      <point x="167.8" y="230.6" type="curve" smooth="yes"/>
      <point x="115.0" y="230.6"/>
      <point x="87.6" y="276.8"/>
      <point x="87.6" y="369.6" type="curve" smooth="yes"/>
      <point x="87.6" y="624.2"/>
      <point x="167.8" y="872.0"/>
      <point x="262.0" y="872.0" type="curve" smooth="yes"/>
      <point x="314.8" y="872.0"/>
      <point x="342.2" y="825.8"/>
      <point x="342.2" y="733.0" type="curve" smooth="yes"/>
      <point x="342.2" y="478.4"/>
      <point x="262.0" y="230.6"/>
    </contour>
    <contour>
      <point x="134.4" y="395.2" type="line"/>
      <point x="168.2" y="395.2" type="line"/>
      <point x="189.8" y="527.8" type="line"/>
      <point x="198.2" y="526.2"/>
      <point x="206.6" y="524.6"/>
      <point x="217.6" y="525.4" type="curve"/>
      <point x="224.4" y="529.4" type="line"/>
      <point x="268.4" y="543.0"/>
      <point x="292.4" y="594.6"/>
      <point x="292.4" y="653.4" type="curve" smooth="yes"/>
      <point x="292.4" y="711.8"/>
      <point x="272.8" y="733.0"/>
      <point x="237.0" y="733.0" type="curve" smooth="yes"/>
      <point x="217.0" y="733.0"/>
      <point x="202.4" y="730.8"/>
      <point x="186.6" y="726.8" type="curve"/>
    </contour>
    <contour>
      <point x="210.8" y="554.4" type="curve" smooth="yes"/>
      <point x="203.2" y="554.4"/>
      <point x="197.8" y="556.2"/>
      <point x="194.0" y="557.2" type="curve"/>
      <point x="216.0" y="698.4" type="line"/>
      <point x="223.2" y="700.2"/>
      <point x="228.8" y="701.2"/>
      <point x="236.6" y="701.2" type="curve" smooth="yes"/>
      <point x="252.2" y="701.2"/>
      <point x="259.6" y="685.8"/>
      <point x="259.6" y="655.0" type="curve" smooth="yes"/>
      <point x="259.6" y="593.8"/>
      <point x="238.6" y="554.4"/>
    </contour>
    <contour>
      <point x="249.8" y="391.6" type="curve" smooth="yes"/>
      <point x="253.8" y="391.6"/>
      <point x="260.0" y="393.0"/>
      <point x="263.2" y="394.6" type="curve"/>
      <point x="266.4" y="431.4" type="line"/>
      <point x="264.4" y="429.8"/>
      <point x="262.4" y="429.8"/>
      <point x="261.2" y="429.8" type="curve" smooth="yes"/>
      <point x="247.8" y="429.8"/>
      <point x="246.2" y="456.8"/>
      <point x="240.2" y="545.2" type="curve"/>
      <point x="212.0" y="538.0" type="line"/>
      <point x="219.6" y="403.4"/>
      <point x="226.6" y="391.6"/>
    </contour>
  </outline>
</glyph>
<glyph name="degree" format="2">
  <advance width="220.8"/>
  <unicode hex="00B0"/>
  <outline>
    <contour>
      <point x="144.4" y="490.4" type="curve" smooth="yes"/>
      <point x="208.8" y="490.4"/>
      <point x="247.6" y="565.8"/>
      <point x="247.6" y="637.8" type="curve" smooth="yes"/>
      <point x="247.6" y="687.4"/>
      <point x="227.0" y="724.4"/>
      <point x="181.4" y="724.4" type="curve" smooth="yes"/>
      <point x="115.6" y="724.4"/>
      <point x="78.0" y="647.0"/>
      <point x="78.0" y="575.0" type="curve" smooth="yes"/>
      <point x="78.0" y="526.2"/>
      <point x="98.8" y="490.4"/>
    </contour>
    <contour>
      <point x="150.6" y="531.6" type="curve" smooth="yes"/>
      <point x="124.4" y="531.6"/>
      <point x="113.6" y="552.8"/>
      <point x="113.6" y="582.6" type="curve" smooth="yes"/>
      <point x="113.6" y="632.0"/>
      <point x="136.0" y="682.4"/>
      <point x="174.8" y="682.4" type="curve" smooth="yes"/>
      <point x="201.2" y="682.4"/>
      <point x="212.0" y="659.6"/>
      <point x="212.0" y="630.0" type="curve" smooth="yes"/>
      <point x="212.0" y="580.0"/>
      <point x="189.4" y="531.6"/>
    </contour>
  </outline>
</glyph>
<glyph name="plusminus" format="2">
  <advance width="350.2"/>
  <unicode hex="00B1"/>
  <outline>
    <contour>
      <point x="276.2" y="59.2" type="line"/>
      <point x="283.6" y="106.4" type="line"/>
      <point x="170.2" y="106.4" type="line"/>
      <point x="199.2" y="287.4" type="line"/>
      <point x="311.8" y="287.4" type="line"/>
      <point x="319.2" y="334.6" type="line"/>
      <point x="206.6" y="334.6" type="line"/>
      <point x="235.8" y="499.4" type="line"/>
      <point x="191.8" y="499.4" type="line"/>
      <point x="163.4" y="334.6" type="line"/>
      <point x="49.2" y="334.6" type="line"/>
      <point x="41.8" y="287.4" type="line"/>
      <point x="155.2" y="287.4" type="line"/>
      <point x="126.2" y="106.4" type="line"/>
      <point x="13.6" y="106.4" type="line"/>
      <point x="6.2" y="59.2" type="line"/>
    </contour>
  </outline>
</glyph>
<glyph name="uni00B2" format="2">
  <advance width="206.6"/>
  <unicode hex="00B2"/>
  <outline>
    <contour>
      <point x="51.4" y="367.6" type="line"/>
      <point x="180.6" y="367.6" type="line"/>
      <point x="185.2" y="397.4" type="line"/>
      <point x="91.4" y="397.4" type="line"/>
      <point x="153.6" y="501.4"/>
      <point x="218.6" y="614.2"/>
      <point x="218.6" y="708.0" type="curve" smooth="yes"/>
      <point x="218.6" y="747.8"/>
      <point x="202.0" y="773.2"/>
      <point x="168.6" y="773.2" type="curve" smooth="yes"/>
      <point x="144.0" y="773.2"/>
      <point x="121.2" y="762.4"/>
      <point x="100.8" y="740.0" type="curve"/>
      <point x="112.2" y="710.2" type="line"/>
      <point x="131.8" y="729.4"/>
      <point x="141.6" y="734.6"/>
      <point x="156.8" y="734.6" type="curve" smooth="yes"/>
      <point x="174.2" y="734.6"/>
      <point x="182.4" y="718.0"/>
      <point x="182.4" y="692.2" type="curve" smooth="yes"/>
      <point x="181.6" y="611.6"/>
      <point x="107.6" y="482.0"/>
      <point x="53.2" y="393.6" type="curve"/>
    </contour>
  </outline>
</glyph>
<glyph name="uni00B3" format="2">
  <advance width="216.8"/>
  <unicode hex="00B3"/>
  <outline>
    <contour>
      <point x="48.8" y="392.2" type="line"/>
      <point x="61.6" y="373.8"/>
      <point x="79.8" y="364.4"/>
      <point x="105.2" y="364.4" type="curve" smooth="yes"/>
      <point x="167.0" y="364.4"/>
      <point x="203.0" y="437.4"/>
      <point x="203.0" y="520.8" type="curve" smooth="yes"/>
      <point x="203.0" y="550.8"/>
      <point x="193.8" y="571.4"/>
      <point x="178.8" y="579.6" type="curve"/>
      <point x="205.6" y="597.2"/>
      <point x="227.2" y="648.8"/>
      <point x="227.2" y="702.2" type="curve" smooth="yes"/>
      <point x="227.2" y="751.8"/>
      <point x="202.6" y="774.4"/>
      <point x="169.4" y="774.4" type="curve" smooth="yes"/>
      <point x="151.8" y="774.4"/>
      <point x="130.0" y="768.6"/>
      <point x="109.8" y="751.0" type="curve"/>
      <point x="121.8" y="725.2" type="line"/>
      <point x="134.8" y="735.8"/>
      <point x="149.6" y="740.0"/>
      <point x="160.0" y="740.0" type="curve" smooth="yes"/>
      <point x="178.4" y="740.0"/>
      <point x="192.0" y="724.6"/>
      <point x="192.0" y="691.2" type="curve" smooth="yes"/>
      <point x="192.0" y="641.2"/>
      <point x="171.4" y="591.0"/>
      <point x="145.8" y="591.0" type="curve" smooth="yes"/>
      <point x="122.8" y="591.0" type="line"/>
      <point x="118.4" y="563.8" type="line"/>
      <point x="145.6" y="563.8" type="line" smooth="yes"/>
      <point x="161.6" y="563.8"/>
      <point x="171.0" y="547.4"/>
      <point x="171.0" y="517.8" type="curve" smooth="yes"/>
      <point x="171.0" y="464.4"/>
      <point x="152.6" y="397.8"/>
      <point x="106.0" y="397.8" type="curve" smooth="yes"/>
      <point x="90.2" y="397.8"/>
      <point x="78.6" y="404.0"/>
      <point x="69.0" y="418.0" type="curve"/>
    </contour>
  </outline>
</glyph>
<glyph name="uni00B5" format="2">
  <advance width="287.4"/>
  <unicode hex="00B5"/>
  <outline>
    <contour>
      <point x="-34.0" y="-210.0" type="line"/>
      <point x="12.400000000000002" y="-210.0" type="line"/>
      <point x="47.6" y="11.6" type="line"/>
      <point x="55.0" y="-3.6"/>
      <point x="69.4" y="-10.0"/>
      <point x="87.2" y="-10.0" type="curve" smooth="yes"/>
      <point x="112.2" y="-10.0"/>
      <point x="137.4" y="0.0"/>
      <point x="164.8" y="22.8" type="curve"/>
      <point x="169.4" y="1.8000000000000003"/>
      <point x="186.2" y="-10.0"/>
      <point x="208.8" y="-10.0" type="curve" smooth="yes"/>
      <point x="220.8" y="-10.0"/>
      <point x="241.6" y="-4.8"/>
      <point x="254.8" y="3.0" type="curve"/>
      <point x="255.2" y="42.8" type="line"/>
      <point x="245.0" y="38.6"/>
      <point x="234.6" y="36.2"/>
      <point x="228.6" y="36.2" type="curve" smooth="yes"/>
      <point x="213.6" y="36.2"/>
      <point x="209.8" y="45.2"/>
      <point x="209.8" y="56.2" type="curve" smooth="yes"/>
      <point x="209.8" y="66.0"/>
      <point x="212.4" y="84.4"/>
      <point x="284.2" y="534.0" type="curve"/>
      <point x="237.2" y="534.0" type="line"/>
      <point x="162.8" y="62.400000000000006" type="line"/>
      <point x="140.0" y="44.6"/>
      <point x="111.4" y="36.2"/>
      <point x="96.4" y="36.2" type="curve" smooth="yes"/>
      <point x="71.6" y="36.2"/>
      <point x="58.8" y="51.2"/>
      <point x="59.2" y="74.8" type="curve" smooth="yes"/>
      <point x="63.8" y="112.4"/>
      <point x="85.8" y="255.6"/>
      <point x="129.6" y="534.0" type="curve"/>
      <point x="82.4" y="534.0" type="line"/>
    </contour>
  </outline>
</glyph>
<glyph name="paragraph" format="2">
  <advance width="384.0"/>
  <unicode hex="00B6"/>
  <outline>
    <contour>
      <point x="227.6" y="-210.0" type="line"/>
      <point x="266.8" y="-210.0" type="line"/>
      <point x="417.4" y="740.0" type="line"/>
      <point x="378.2" y="740.0" type="line"/>
    </contour>
    <contour>
      <point x="151.8" y="231.4" type="line"/>
      <point x="106.8" y="243.4"/>
      <point x="85.2" y="293.8"/>
      <point x="85.2" y="369.4" type="curve" smooth="yes"/>
      <point x="85.2" y="529.8"/>
      <point x="148.2" y="688.0"/>
      <point x="257.2" y="693.2" type="curve"/>
      <point x="114.4" y="-210.0" type="line"/>
      <point x="153.6" y="-210.0" type="line"/>
      <point x="304.2" y="740.0" type="line"/>
      <point x="277.8" y="740.0" type="line" smooth="yes"/>
      <point x="127.8" y="740.0"/>
      <point x="42.0" y="555.2"/>
      <point x="42.0" y="366.6" type="curve" smooth="yes"/>
      <point x="42.0" y="275.0"/>
      <point x="72.0" y="210.0"/>
      <point x="140.2" y="191.6" type="curve"/>
    </contour>
  </outline>
</glyph>
<glyph name="periodcentered" format="2">
  <advance width="110.0"/>
  <unicode hex="00B7"/>
  <outline>
    <contour>
      <point x="28.8" y="287.2" type="curve" smooth="yes"/>
      <point x="27.2" y="265.6"/>
      <point x="32.4" y="258.2"/>
      <point x="52.2" y="258.2" type="curve" smooth="yes"/>
      <point x="78.8" y="258.2"/>
      <point x="84.4" y="278.0"/>
      <point x="86.0" y="303.8" type="curve" smooth="yes"/>
      <point x="87.6" y="324.2"/>
      <point x="83.2" y="332.4"/>
      <point x="63.6" y="332.4" type="curve" smooth="yes"/>
      <point x="37.2" y="332.4"/>
      <point x="30.4" y="313.0"/>
    </contour>
  </outline>
</glyph>
<glyph name="uni00B9" format="2">
  <advance width="208.0"/>
  <unicode hex="00B9"/>
  <outline>
    <contour>
      <point x="43.4" y="370.0" type="line"/>
      <point x="197.0" y="370.0" type="line"/>
      <point x="202.0" y="401.8" type="line"/>
      <point x="145.0" y="401.8" type="line"/>
      <point x="204.8" y="769.6" type="line"/>
      <point x="185.8" y="769.6" type="line"/>
      <point x="96.8" y="708.8" type="line"/>
      <point x="103.2" y="676.6" type="line"/>
      <point x="162.6" y="721.4" type="line"/>
      <point x="111.2" y="401.8" type="line"/>
      <point x="48.8" y="401.8" type="line"/>
    </contour>
  </outline>
</glyph>
<glyph name="ordmasculine" format="2">
  <advance width="201.4"/>
  <unicode hex="00BA"/>
  <outline>
    <contour>
      <point x="36.4" y="289.8" type="line"/>
      <point x="166.2" y="289.8" type="line"/>
      <point x="170.4" y="319.8" type="line"/>
      <point x="40.6" y="319.8" type="line"/>
    </contour>
    <component base="o.superior" xOffset="16.0"/>
  </outline>
</glyph>
<glyph name="AE" format="2">
  <advance width="416.0"/>
  <unicode hex="00C6"/>
  <anchor x="177.4888" y="0.0" name="bottom"/>
  <anchor x="295.0" y="700.0" name="top"/>
  <outline>
    <contour>
      <point x="161.2" y="0.0" type="line"/>
      <point x="361.2" y="0.0" type="line"/>
      <point x="368.6" y="46.8" type="line"/>
      <point x="216.2" y="46.8" type="line"/>
      <point x="259.0" y="322.0" type="line"/>
      <point x="387.6" y="322.0" type="line"/>
      <point x="395.0" y="366.8" type="line"/>
      <point x="266.2" y="366.8" type="line"/>
      <point x="311.4" y="652.2" type="line"/>
      <point x="454.8" y="652.2" type="line"/>
      <point x="463.4" y="700.0" type="line"/>
      <point x="237.6" y="700.0" type="line"/>
      <point x="-37.6" y="0.0" type="line"/>
      <point x="12.0" y="0.0" type="line"/>
      <point x="126.0" y="286.4" type="line"/>
      <point x="205.8" y="286.4" type="line"/>
    </contour>
    <contour>
      <point x="141.0" y="333.6" type="line"/>
      <point x="264.0" y="656.8" type="line"/>
      <point x="213.2" y="333.6" type="line"/>
    </contour>
  </outline>
</glyph>
<glyph name="multiply" format="2">
  <advance width="332.8"/>
  <unicode hex="00D7"/>
  <outline>
    <contour>
      <point x="52.0" y="94.0" type="line"/>
      <point x="163.4" y="258.4" type="line"/>
      <point x="222.8" y="94.0" type="line"/>
      <point x="261.0" y="123.80000000000001" type="line"/>
      <point x="197.8" y="298.6" type="line"/>
      <point x="318.0" y="475.0" type="line"/>
      <point x="288.4" y="504.8" type="line"/>
      <point x="175.4" y="338.8" type="line"/>
      <point x="116.0" y="504.8" type="line"/>
      <point x="77.6" y="475.0" type="line"/>
      <point x="140.2" y="299.4" type="line"/>
      <point x="22.2" y="123.80000000000001" type="line"/>
    </contour>
  </outline>
</glyph>
<glyph name="Oslash" format="2">
  <advance width="320.8"/>
  <unicode hex="00D8"/>
  <anchor x="223.0" y="700.0" name="top"/>
  <outline>
    <contour>
      <point x="345.2" y="710.0" type="line"/>
      <point x="308.2" y="710.0" type="line"/>
      <point x="282.6" y="652.2" type="line"/>
      <point x="279.8" y="652.6" type="line"/>
      <point x="43.6" y="93.6" type="line"/>
      <point x="41.2" y="94.4" type="line"/>
      <point x="-4.0" y="-8.0" type="line"/>
      <point x="33.0" y="-8.0" type="line"/>
      <point x="58.0" y="49.6" type="line"/>
      <point x="60.8" y="49.2" type="line"/>
      <point x="297.6" y="608.8" type="line"/>
      <point x="300.0" y="608.0" type="line"/>
    </contour>
    <contour>
      <point x="119.6" y="-10.0" type="curve" smooth="yes"/>
      <point x="253.8" y="-10.0"/>
      <point x="324.8" y="322.6"/>
      <point x="324.8" y="554.8" type="curve" smooth="yes"/>
      <point x="324.8" y="668.4"/>
      <point x="294.2" y="710.0"/>
      <point x="222.8" y="710.0" type="curve" smooth="yes"/>
      <point x="90.6" y="710.0"/>
      <point x="17.6" y="377.4"/>
      <point x="17.6" y="145.6" type="curve" smooth="yes"/>
      <point x="17.6" y="31.6"/>
      <point x="48.2" y="-10.0"/>
    </contour>
    <contour>
      <point x="122.6" y="36.8" type="curve" smooth="yes"/>
      <point x="81.0" y="36.8"/>
      <point x="63.8" y="62.0"/>
      <point x="63.8" y="144.0" type="curve" smooth="yes"/>
      <point x="63.8" y="341.4"/>
      <point x="131.8" y="663.2"/>
      <point x="220.6" y="663.2" type="curve" smooth="yes"/>
      <point x="261.8" y="663.2"/>
      <point x="279.0" y="638.4"/>
      <point x="279.0" y="556.8" type="curve" smooth="yes"/>
      <point x="279.0" y="361.0"/>
      <point x="210.6" y="36.8"/>
    </contour>
  </outline>
</glyph>
<glyph name="Thorn" format="2">
  <advance width="276.6"/>
  <unicode hex="00DE"/>
  <outline>
    <contour>
      <point x="-5.2" y="0.0" type="line"/>
      <point x="42.400000000000006" y="0.0" type="line"/>
      <point x="68.8" y="165.0" type="line"/>
      <point x="81.2" y="163.4"/>
      <point x="99.4" y="163.4"/>
      <point x="116.2" y="163.4" type="curve" smooth="yes"/>
      <point x="215.0" y="163.4"/>
      <point x="284.2" y="290.2"/>
      <point x="284.2" y="471.2" type="curve" smooth="yes"/>
      <point x="284.2" y="565.4"/>
      <point x="252.6" y="607.6"/>
      <point x="175.6" y="607.6" type="curve" smooth="yes"/>
      <point x="163.6" y="607.6"/>
      <point x="150.6" y="606.8"/>
      <point x="137.8" y="605.2" type="curve"/>
      <point x="152.8" y="700.0" type="line"/>
      <point x="105.2" y="700.0" type="line"/>
    </contour>
    <contour>
      <point x="113.2" y="209.6" type="curve" smooth="yes"/>
      <point x="93.2" y="209.6"/>
      <point x="84.4" y="210.4"/>
      <point x="76.8" y="211.6" type="curve"/>
      <point x="131.0" y="557.6" type="line"/>
      <point x="145.0" y="560.4"/>
      <point x="157.4" y="561.4"/>
      <point x="168.8" y="561.4" type="curve" smooth="yes"/>
      <point x="215.2" y="561.4"/>
      <point x="237.4" y="539.2"/>
      <point x="237.4" y="465.6" type="curve" smooth="yes"/>
      <point x="237.4" y="319.6"/>
      <point x="187.6" y="209.6"/>
    </contour>
  </outline>
</glyph>
<glyph name="germandbls" format="2">
  <advance width="339.0"/>
  <unicode hex="00DF"/>
  <outline>
    <contour>
      <point x="8.0" y="-52.4" type="line" smooth="yes"/>
      <point x="-3.8" y="-126.4"/>
      <point x="-22.8" y="-174.4"/>
      <point x="-73.0" y="-174.4" type="curve" smooth="yes"/>
      <point x="-86.6" y="-174.4"/>
      <point x="-97.0" y="-172.8"/>
      <point x="-112.8" y="-167.8" type="curve"/>
      <point x="-125.4" y="-210.8" type="line"/>
      <point x="-108.0" y="-217.2"/>
      <point x="-90.2" y="-220.0"/>
      <point x="-69.4" y="-220.0" type="curve" smooth="yes"/>
      <point x="3.8000000000000007" y="-220.0"/>
      <point x="37.8" y="-163.8"/>
      <point x="54.6" y="-56.8" type="curve" smooth="yes"/>
      <point x="148.6" y="540.2" type="line" smooth="yes"/>
      <point x="164.6" y="640.8"/>
      <point x="196.6" y="702.0"/>
      <point x="253.8" y="702.0" type="curve" smooth="yes"/>
      <point x="284.0" y="702.0"/>
      <point x="302.4" y="688.6"/>
      <point x="302.4" y="649.4" type="curve" smooth="yes"/>
      <point x="302.4" y="609.8"/>
      <point x="289.6" y="583.0"/>
      <point x="246.4" y="539.2" type="curve" smooth="yes"/>
      <point x="197.0" y="489.0"/>
      <point x="173.2" y="448.2"/>
      <point x="173.2" y="383.2" type="curve" smooth="yes"/>
      <point x="173.2" y="332.6"/>
      <point x="198.4" y="290.8"/>
      <point x="233.0" y="242.4" type="curve" smooth="yes"/>
      <point x="260.8" y="203.6"/>
      <point x="269.2" y="179.2"/>
      <point x="269.2" y="145.6" type="curve" smooth="yes"/>
      <point x="269.2" y="85.2"/>
      <point x="231.8" y="38.2"/>
      <point x="181.6" y="38.2" type="curve" smooth="yes"/>
      <point x="156.8" y="38.2"/>
      <point x="134.2" y="44.2"/>
      <point x="114.0" y="54.0" type="curve"/>
      <point x="99.2" y="10.8" type="line"/>
      <point x="119.6" y="-1.7999999999999998"/>
      <point x="149.0" y="-10.0"/>
      <point x="181.6" y="-10.0" type="curve" smooth="yes"/>
      <point x="264.8" y="-10.0"/>
      <point x="318.2" y="56.8"/>
      <point x="318.2" y="152.2" type="curve" smooth="yes"/>
      <point x="318.2" y="200.4"/>
      <point x="301.8" y="232.6"/>
      <point x="267.0" y="282.4" type="curve" smooth="yes"/>
      <point x="233.2" y="332.2"/>
      <point x="219.4" y="355.6"/>
      <point x="219.4" y="390.6" type="curve" smooth="yes"/>
      <point x="219.4" y="431.6"/>
      <point x="235.4" y="461.6"/>
      <point x="281.6" y="509.4" type="curve" smooth="yes"/>
      <point x="331.0" y="560.8"/>
      <point x="352.2" y="596.0"/>
      <point x="352.2" y="656.0" type="curve" smooth="yes"/>
      <point x="352.2" y="720.8"/>
      <point x="316.0" y="750.0"/>
      <point x="257.4" y="750.0" type="curve" smooth="yes"/>
      <point x="168.8" y="750.0"/>
      <point x="122.4" y="679.6"/>
      <point x="102.2" y="545.8" type="curve" smooth="yes"/>
      <point x="94.2" y="493.0" type="line"/>
      <point x="43.2" y="486.8" type="line"/>
      <point x="36.8" y="447.8" type="line"/>
      <point x="86.2" y="447.8" type="line"/>
    </contour>
  </outline>
</glyph>
<glyph name="ae" format="2">
  <advance width="437.6"/>
  <unicode hex="00E6"/>
  <anchor x="190.0" y="0.0" name="bottom"/>
  <anchor x="264.8" y="534.0" name="top"/>
  <outline>
    <contour>
      <point x="96.2" y="-10.0" type="curve" smooth="yes"/>
      <point x="120.0" y="-10.0"/>
      <point x="137.8" y="-2.4"/>
      <point x="154.2" y="14.600000000000001" type="curve"/>
      <point x="150.4" y="-6.8" type="line"/>
      <point x="194.8" y="-6.8" type="line"/>
      <point x="212.0" y="99.6" type="line"/>
      <point x="221.8" y="31.799999999999997"/>
      <point x="258.0" y="-9.6"/>
      <point x="310.6" y="-9.6" type="curve" smooth="yes"/>
      <point x="341.2" y="-9.6"/>
      <point x="371.6" y="-2.2"/>
      <point x="393.8" y="13.0" type="curve"/>
      <point x="384.4" y="56.2" type="line"/>
      <point x="358.0" y="43.0"/>
      <point x="335.6" y="37.0"/>
      <point x="312.8" y="37.0" type="curve" smooth="yes"/>
      <point x="264.8" y="37.0"/>
      <point x="233.4" y="90.6"/>
      <point x="233.4" y="177.8" type="curve" smooth="yes"/>
      <point x="233.4" y="357.0"/>
      <point x="288.4" y="499.8"/>
      <point x="363.2" y="499.8" type="curve" smooth="yes"/>
      <point x="392.2" y="499.8"/>
      <point x="403.6" y="481.0"/>
      <point x="403.6" y="447.2" type="curve" smooth="yes"/>
      <point x="403.6" y="390.2"/>
      <point x="363.6" y="331.8"/>
      <point x="305.4" y="298.2" type="curve" smooth="yes"/>
      <point x="280.2" y="283.2"/>
      <point x="251.4" y="273.4"/>
      <point x="219.8" y="269.0" type="curve"/>
      <point x="213.2" y="229.8" type="line"/>
      <point x="246.2" y="234.2"/>
      <point x="282.0" y="243.4"/>
      <point x="312.2" y="259.6" type="curve" smooth="yes"/>
      <point x="391.6" y="299.8"/>
      <point x="448.0" y="373.0"/>
      <point x="448.0" y="456.0" type="curve" smooth="yes"/>
      <point x="448.0" y="510.4"/>
      <point x="423.4" y="544.0"/>
      <point x="377.2" y="544.0" type="curve" smooth="yes"/>
      <point x="334.4" y="544.0"/>
      <point x="296.6" y="514.4"/>
      <point x="265.8" y="456.8" type="curve"/>
      <point x="280.4" y="544.0" type="line"/>
      <point x="237.8" y="544.0" type="line"/>
      <point x="235.4" y="530.6" type="line"/>
      <point x="224.0" y="540.6"/>
      <point x="208.8" y="544.0"/>
      <point x="195.4" y="544.0" type="curve" smooth="yes"/>
      <point x="90.2" y="544.0"/>
      <point x="14.6" y="379.0"/>
      <point x="14.6" y="138.6" type="curve" smooth="yes"/>
      <point x="14.6" y="41.8"/>
      <point x="43.4" y="-10.0"/>
    </contour>
    <contour>
      <point x="110.8" y="32.400000000000006" type="curve" smooth="yes"/>
      <point x="81.4" y="32.400000000000006"/>
      <point x="63.6" y="72.0"/>
      <point x="63.6" y="139.4" type="curve" smooth="yes"/>
      <point x="63.6" y="325.4"/>
      <point x="117.2" y="499.4"/>
      <point x="198.2" y="499.4" type="curve" smooth="yes"/>
      <point x="209.0" y="499.4"/>
      <point x="221.0" y="496.8"/>
      <point x="228.8" y="487.8" type="curve"/>
      <point x="160.0" y="50.2" type="line"/>
      <point x="147.0" y="39.8"/>
      <point x="128.6" y="32.400000000000006"/>
    </contour>
  </outline>
</glyph>
<glyph name="eth" format="2">
  <advance width="277.0"/>
  <unicode hex="00F0"/>
  <outline>
    <contour>
      <point x="244.8" y="470.8" type="curve"/>
      <point x="254.6" y="512.0" type="line"/>
      <point x="239.6" y="527.2"/>
      <point x="214.4" y="534.8"/>
      <point x="188.4" y="534.8" type="curve" smooth="yes"/>
      <point x="60.6" y="534.8"/>
      <point x="10.6" y="294.0"/>
      <point x="10.6" y="121.6" type="curve" smooth="yes"/>
      <point x="10.6" y="28.6"/>
      <point x="40.4" y="-10.0"/>
      <point x="102.6" y="-10.0" type="curve" smooth="yes"/>
      <point x="186.8" y="-10.0"/>
      <point x="222.0" y="64.6"/>
      <point x="260.4" y="313.2" type="curve" smooth="yes"/>
      <point x="274.8" y="408.0"/>
      <point x="284.0" y="482.2"/>
      <point x="284.0" y="539.2" type="curve" smooth="yes"/>
      <point x="284.0" y="660.2"/>
      <point x="247.6" y="718.8"/>
      <point x="155.8" y="718.8" type="curve" smooth="yes"/>
      <point x="135.8" y="718.8"/>
      <point x="111.0" y="714.4"/>
      <point x="89.6" y="708.6" type="curve"/>
      <point x="93.8" y="669.2" type="line"/>
      <point x="110.8" y="673.2"/>
      <point x="128.4" y="676.6"/>
      <point x="148.2" y="676.6" type="curve" smooth="yes"/>
      <point x="210.4" y="676.6"/>
      <point x="237.6" y="642.4"/>
      <point x="237.6" y="545.4" type="curve" smooth="yes"/>
      <point x="237.6" y="493.2"/>
      <point x="230.6" y="418.0"/>
      <point x="215.2" y="321.4" type="curve" smooth="yes"/>
      <point x="179.2" y="92.8"/>
      <point x="153.0" y="29.400000000000002"/>
      <point x="106.4" y="29.400000000000002" type="curve" smooth="yes"/>
      <point x="72.6" y="29.400000000000002"/>
      <point x="55.8" y="53.6"/>
      <point x="55.8" y="112.4" type="curve" smooth="yes"/>
      <point x="55.8" y="247.8"/>
      <point x="95.2" y="494.2"/>
      <point x="193.2" y="494.2" type="curve" smooth="yes"/>
      <point x="210.4" y="494.2"/>
      <point x="230.6" y="490.2"/>
    </contour>
    <contour>
      <point x="127.4" y="563.6" type="line"/>
      <point x="239.6" y="646.2" type="line"/>
      <point x="240.4" y="648.2" type="line"/>
      <point x="343.0" y="722.8" type="line"/>
      <point x="298.2" y="722.8" type="line"/>
      <point x="224.6" y="669.6" type="line"/>
      <point x="224.6" y="668.0" type="line"/>
      <point x="81.6" y="563.6" type="line"/>
    </contour>
  </outline>
</glyph>
<glyph name="divide" format="2">
  <advance width="349.6"/>
  <unicode hex="00F7"/>
  <outline>
    <contour>
      <point x="119.0" y="98.4" type="curve" smooth="yes"/>
      <point x="118.0" y="83.6"/>
      <point x="123.4" y="77.6"/>
      <point x="142.0" y="77.6" type="curve" smooth="yes"/>
      <point x="166.8" y="77.6"/>
      <point x="173.6" y="86.2"/>
      <point x="176.2" y="119.6" type="curve" smooth="yes"/>
      <point x="177.2" y="135.4"/>
      <point x="170.2" y="140.4"/>
      <point x="153.0" y="140.4" type="curve" smooth="yes"/>
      <point x="128.6" y="140.4"/>
      <point x="121.6" y="128.6"/>
    </contour>
    <contour>
      <point x="179.4" y="474.8" type="curve" smooth="yes"/>
      <point x="178.4" y="460.0"/>
      <point x="183.8" y="454.4"/>
      <point x="202.0" y="454.4" type="curve" smooth="yes"/>
      <point x="226.8" y="454.4"/>
      <point x="234.0" y="463.0"/>
      <point x="236.6" y="496.0" type="curve" smooth="yes"/>
      <point x="237.6" y="511.8"/>
      <point x="230.6" y="516.8"/>
      <point x="213.4" y="516.8" type="curve" smooth="yes"/>
      <point x="188.2" y="516.8"/>
      <point x="182.0" y="504.2"/>
    </contour>
    <contour>
      <point x="40.0" y="273.4" type="line"/>
      <point x="310.0" y="273.4" type="line"/>
      <point x="317.4" y="321.4" type="line"/>
      <point x="47.4" y="321.4" type="line"/>
    </contour>
  </outline>
</glyph>
<glyph name="oslash" format="2">
  <advance width="277.4"/>
  <unicode hex="00F8"/>
  <anchor x="181.0" y="534.0" name="top"/>
  <outline>
    <contour>
      <point x="261.2" y="543.4" type="line"/>
      <point x="230.8" y="484.4" type="line"/>
      <point x="228.0" y="484.8" type="line"/>
      <point x="35.8" y="90.2" type="line"/>
      <point x="33.8" y="91.0" type="line"/>
      <point x="-19.0" y="-10.0" type="line"/>
      <point x="16.8" y="-10.0" type="line"/>
      <point x="46.2" y="46.4" type="line"/>
      <point x="49.0" y="46.0" type="line"/>
      <point x="241.8" y="441.6" type="line"/>
      <point x="243.8" y="440.8" type="line"/>
      <point x="297.0" y="543.4" type="line"/>
    </contour>
    <contour>
      <point x="102.2" y="-10.0" type="curve" smooth="yes"/>
      <point x="223.8" y="-10.0"/>
      <point x="263.4" y="289.4"/>
      <point x="263.4" y="424.6" type="curve" smooth="yes"/>
      <point x="263.4" y="519.0"/>
      <point x="235.2" y="543.4"/>
      <point x="173.4" y="543.4" type="curve" smooth="yes"/>
      <point x="51.8" y="543.4"/>
      <point x="12.2" y="244.0"/>
      <point x="12.2" y="109.2" type="curve" smooth="yes"/>
      <point x="12.2" y="14.8"/>
      <point x="40.8" y="-10.0"/>
    </contour>
    <contour>
      <point x="103.0" y="33.8" type="curve" smooth="yes"/>
      <point x="72.0" y="33.8"/>
      <point x="55.400000000000006" y="48.0"/>
      <point x="55.400000000000006" y="109.2" type="curve" smooth="yes"/>
      <point x="55.400000000000006" y="190.8"/>
      <point x="90.8" y="499.6"/>
      <point x="173.0" y="499.6" type="curve" smooth="yes"/>
      <point x="204.0" y="499.6"/>
      <point x="220.6" y="485.4"/>
      <point x="220.6" y="424.6" type="curve" smooth="yes"/>
      <point x="220.6" y="342.6"/>
      <point x="185.2" y="33.8"/>
    </contour>
  </outline>
</glyph>
<glyph name="thorn" format="2">
  <advance width="284.8"/>
  <unicode hex="00FE"/>
  <outline>
    <contour>
      <point x="-34.6" y="-210.0" type="line"/>
      <point x="12.0" y="-210.0" type="line"/>
      <point x="45.0" y="-3.0" type="line"/>
      <point x="58.400000000000006" y="-7.4"/>
      <point x="71.8" y="-9.6"/>
      <point x="88.8" y="-9.6" type="curve" smooth="yes"/>
      <point x="202.4" y="-9.6"/>
      <point x="269.4" y="190.2"/>
      <point x="269.4" y="391.2" type="curve" smooth="yes"/>
      <point x="269.4" y="498.8"/>
      <point x="247.0" y="544.0"/>
      <point x="191.2" y="544.0" type="curve" smooth="yes"/>
      <point x="165.6" y="544.0"/>
      <point x="146.6" y="533.8"/>
      <point x="128.2" y="522.8" type="curve"/>
      <point x="163.0" y="740.0" type="line"/>
      <point x="115.4" y="740.0" type="line"/>
    </contour>
    <contour>
      <point x="83.4" y="34.8" type="curve" smooth="yes"/>
      <point x="72.6" y="34.8"/>
      <point x="61.6" y="36.400000000000006"/>
      <point x="52.2" y="41.400000000000006" type="curve"/>
      <point x="121.6" y="479.8" type="line"/>
      <point x="134.0" y="488.0"/>
      <point x="157.0" y="496.2"/>
      <point x="171.4" y="496.2" type="curve" smooth="yes"/>
      <point x="204.6" y="496.2"/>
      <point x="220.8" y="462.0"/>
      <point x="220.8" y="386.0" type="curve" smooth="yes"/>
      <point x="220.8" y="214.2"/>
      <point x="166.0" y="34.8"/>
    </contour>
  </outline>
</glyph>
<glyph name="Dcroat" format="2">
  <advance width="317.4"/>
  <unicode hex="0110"/>
  <outline>
    <contour>
      <point x="18.4" y="336.0" type="line"/>
      <point x="182.6" y="336.0" type="line"/>
      <point x="190.4" y="382.2" type="line"/>
      <point x="26.2" y="382.2" type="line"/>
    </contour>
    <component base="D" xOffset="8.0"/>
  </outline>
</glyph>
<glyph name="dcroat" format="2">
  <advance width="289.2"/>
  <unicode hex="0111"/>
  <outline>
    <contour>
      <point x="153.8" y="619.6" type="line"/>
      <point x="345.6" y="619.6" type="line"/>
      <point x="351.0" y="650.8" type="line"/>
      <point x="159.4" y="650.8" type="line"/>
    </contour>
    <component base="d"/>
  </outline>
</glyph>
<glyph name="Hbar" format="2">
  <advance width="323.8"/>
  <unicode hex="0126"/>
  <outline>
    <contour>
      <point x="39.4" y="502.0" type="line"/>
      <point x="356.4" y="502.0" type="line"/>
      <point x="362.8" y="543.4" type="line"/>
      <point x="45.8" y="543.4" type="line"/>
    </contour>
    <component base="H" xOffset="1.8"/>
  </outline>
</glyph>
<glyph name="hbar" format="2">
  <advance width="288.4"/>
  <unicode hex="0127"/>
  <outline>
    <contour>
      <point x="56.6" y="619.6" type="line"/>
      <point x="218.0" y="619.6" type="line"/>
      <point x="223.4" y="650.8" type="line"/>
      <point x="62.0" y="650.8" type="line"/>
    </contour>
    <component base="h" xOffset="1.6"/>
  </outline>
</glyph>
<glyph name="Idotaccent" format="2">
  <advance width="127.6"/>
  <unicode hex="0130"/>
  <outline>
    <contour>
      <point x="157.2" y="860.8" type="curve" smooth="yes"/>
      <point x="130.0" y="860.8"/>
      <point x="123.8" y="844.6"/>
      <point x="121.4" y="811.6" type="curve" smooth="yes"/>
      <point x="120.6" y="794.6"/>
      <point x="129.8" y="789.4"/>
      <point x="144.4" y="789.4" type="curve" smooth="yes"/>
      <point x="171.8" y="789.4"/>
      <point x="177.8" y="806.0"/>
      <point x="180.2" y="838.8" type="curve" smooth="yes"/>
      <point x="181.0" y="855.8"/>
      <point x="171.6" y="860.8"/>
    </contour>
    <component base="I"/>
  </outline>
</glyph>
<glyph name="dotlessi" format="2">
  <advance width="130.6"/>
  <unicode hex="0131"/>
  <anchor x="21.0" y="0.0" name="bottom"/>
  <anchor x="45.2" y="0.0" name="ogonek"/>
  <anchor x="105.6" y="534.0" name="top"/>
  <outline>
    <contour>
      <point x="45.2" y="0.0" type="line"/>
      <point x="129.8" y="534.0" type="line"/>
      <point x="82.2" y="534.0" type="line"/>
      <point x="-1.6000000000000005" y="0.0" type="line"/>
    </contour>
  </outline>
</glyph>
<glyph name="Ldot" format="2">
  <advance width="224.4"/>
  <unicode hex="013F"/>
  <outline>
    <contour>
      <point x="164.1996" y="359.3924" type="curve" smooth="yes"/>
      <point x="162.5996" y="341.2604"/>
      <point x="166.3324" y="335.5278"/>
      <point x="182.731" y="335.5278" type="curve" smooth="yes"/>
      <point x="203.66219999999998" y="335.5278"/>
      <point x="207.6616" y="348.9918"/>
      <point x="209.2616" y="370.4568" type="curve" smooth="yes"/>
      <point x="210.8616" y="387.5222"/>
      <point x="207.9288" y="394.0548"/>
      <point x="191.6634" y="394.0548" type="curve" smooth="yes"/>
      <point x="170.8656" y="394.0548"/>
      <point x="165.7996" y="380.8574"/>
    </contour>
    <component base="L"/>
  </outline>
</glyph>
<glyph name="ldot" format="2">
  <advance width="193.8"/>
  <unicode hex="0140"/>
  <outline>
    <contour>
      <point x="155.9642" y="355.4778" type="curve" smooth="yes"/>
      <point x="154.3642" y="337.4388"/>
      <point x="158.0318" y="331.7508"/>
      <point x="174.27960000000002" y="331.7508" type="curve" smooth="yes"/>
      <point x="194.959" y="331.7508"/>
      <point x="198.8874" y="345.0452"/>
      <point x="200.4874" y="366.394" type="curve" smooth="yes"/>
      <point x="202.0874" y="383.37"/>
      <point x="199.2198" y="389.858"/>
      <point x="183.1024" y="389.858" type="curve" smooth="yes"/>
      <point x="162.5532" y="389.858"/>
      <point x="157.5642" y="376.8266"/>
    </contour>
    <component base="l"/>
  </outline>
</glyph>
<glyph name="Lslash" format="2">
  <advance width="234.4"/>
  <unicode hex="0141"/>
  <outline>
    <contour>
      <point x="4.0" y="0.0" type="line"/>
      <point x="183.6" y="0.0" type="line"/>
      <point x="191.0" y="46.8" type="line"/>
      <point x="58.800000000000004" y="46.8" type="line"/>
      <point x="97.0" y="286.0" type="line"/>
      <point x="207.6" y="379.6" type="line"/>
      <point x="216.6" y="434.4" type="line"/>
      <point x="105.6" y="340.6" type="line"/>
      <point x="162.6" y="700.0" type="line"/>
      <point x="115.2" y="700.0" type="line"/>
      <point x="53.2" y="308.2" type="line"/>
      <point x="9.0" y="271.8" type="line"/>
      <point x="-0.2" y="216.2" type="line"/>
      <point x="43.8" y="252.6" type="line"/>
    </contour>
  </outline>
</glyph>
<glyph name="lslash" format="2">
  <advance width="145.4"/>
  <unicode hex="0142"/>
  <outline>
    <contour>
      <point x="-3.2" y="200.0" type="line"/>
      <point x="162.4" y="357.0" type="line"/>
      <point x="170.4" y="409.4" type="line"/>
      <point x="4.6" y="252.4" type="line"/>
    </contour>
    <component base="l" xOffset="4.0"/>
  </outline>
</glyph>
<glyph name="Eng" format="2">
  <advance width="318.2"/>
  <unicode hex="014A"/>
  <outline>
    <contour>
      <point x="-5.2" y="0.0" type="line"/>
      <point x="39.0" y="0.0" type="line"/>
      <point x="130.0" y="579.8" type="line"/>
      <point x="188.2" y="0.5999999999999996" type="line"/>
      <point x="180.2" y="-70.6"/>
      <point x="149.4" y="-94.2"/>
      <point x="104.0" y="-94.2" type="curve" smooth="yes"/>
      <point x="91.8" y="-94.2"/>
      <point x="79.0" y="-91.8"/>
      <point x="66.6" y="-87.8" type="curve"/>
      <point x="57.0" y="-140.2" type="line"/>
      <point x="73.2" y="-144.6"/>
      <point x="87.8" y="-146.2"/>
      <point x="102.2" y="-146.2" type="curve" smooth="yes"/>
      <point x="189.6" y="-145.0"/>
      <point x="222.0" y="-90.2"/>
      <point x="235.8" y="-3.2" type="curve" smooth="yes"/>
      <point x="347.2" y="700.0" type="line"/>
      <point x="303.0" y="700.0" type="line"/>
      <point x="212.2" y="121.2" type="line"/>
      <point x="156.8" y="700.0" type="line"/>
      <point x="105.0" y="700.0" type="line"/>
    </contour>
  </outline>
</glyph>
<glyph name="eng" format="2">
  <advance width="284.4"/>
  <unicode hex="014B"/>
  <outline>
    <contour>
      <point x="189.8" y="-53.0" type="curve" smooth="yes"/>
      <point x="258.0" y="385.4"/>
      <point x="272.8" y="472.2"/>
      <point x="272.8" y="481.0" type="curve" smooth="yes"/>
      <point x="272.8" y="518.4"/>
      <point x="250.2" y="544.0"/>
      <point x="208.2" y="544.0" type="curve" smooth="yes"/>
      <point x="181.4" y="544.0"/>
      <point x="148.4" y="532.6"/>
      <point x="123.0" y="514.8" type="curve"/>
      <point x="126.4" y="534.0" type="line"/>
      <point x="82.2" y="534.0" type="line"/>
      <point x="-2.4000000000000004" y="0.0" type="line"/>
      <point x="44.400000000000006" y="0.0" type="line"/>
      <point x="120.2" y="474.4" type="line"/>
      <point x="137.4" y="487.4"/>
      <point x="165.4" y="497.4"/>
      <point x="181.8" y="497.4" type="curve" smooth="yes"/>
      <point x="210.4" y="497.4"/>
      <point x="223.0" y="484.6"/>
      <point x="223.0" y="460.2" type="curve" smooth="yes"/>
      <point x="223.0" y="456.2"/>
      <point x="222.6" y="450.6"/>
      <point x="143.8" y="-50.2" type="curve" smooth="yes"/>
      <point x="132.8" y="-119.6"/>
      <point x="114.0" y="-167.4"/>
      <point x="66.0" y="-167.4" type="curve" smooth="yes"/>
      <point x="57.8" y="-167.4"/>
      <point x="51.400000000000006" y="-166.6"/>
      <point x="42.8" y="-164.6" type="curve"/>
      <point x="30.8" y="-216.2" type="line"/>
      <point x="41.8" y="-218.6"/>
      <point x="54.0" y="-220.0"/>
      <point x="69.4" y="-220.0" type="curve" smooth="yes"/>
      <point x="132.2" y="-220.0"/>
      <point x="172.8" y="-170.0"/>
    </contour>
  </outline>
</glyph>
<glyph name="OE" format="2">
  <advance width="435.6"/>
  <unicode hex="0152"/>
  <outline>
    <contour>
      <point x="380.8" y="0.0" type="line"/>
      <point x="388.2" y="46.8" type="line"/>
      <point x="235.6" y="46.8" type="line"/>
      <point x="281.6" y="338.0" type="line"/>
      <point x="409.6" y="338.0" type="line"/>
      <point x="417.0" y="382.8" type="line"/>
      <point x="289.0" y="382.8" type="line"/>
      <point x="331.0" y="652.2" type="line"/>
      <point x="474.4" y="652.2" type="line"/>
      <point x="483.0" y="700.0" type="line"/>
      <point x="334.2" y="700.0" type="line"/>
      <point x="315.2" y="703.6"/>
      <point x="289.0" y="710.0"/>
      <point x="262.6" y="710.0" type="curve" smooth="yes"/>
      <point x="103.6" y="710.0"/>
      <point x="24.2" y="474.2"/>
      <point x="24.2" y="167.8" type="curve" smooth="yes"/>
      <point x="24.2" y="37.6"/>
      <point x="63.4" y="-10.0"/>
      <point x="156.2" y="-10.0" type="curve" smooth="yes"/>
      <point x="169.0" y="-10.0"/>
      <point x="194.0" y="-6.6"/>
      <point x="222.8" y="0.0" type="curve"/>
    </contour>
    <contour>
      <point x="187.0" y="41.6" type="line"/>
      <point x="174.0" y="37.2"/>
      <point x="163.2" y="36.2"/>
      <point x="154.8" y="36.2" type="curve" smooth="yes"/>
      <point x="88.6" y="36.2"/>
      <point x="71.6" y="82.0"/>
      <point x="71.6" y="175.4" type="curve" smooth="yes"/>
      <point x="71.6" y="448.4"/>
      <point x="147.6" y="663.2"/>
      <point x="254.4" y="663.2" type="curve" smooth="yes"/>
      <point x="269.2" y="663.2"/>
      <point x="278.2" y="659.0"/>
      <point x="284.4" y="657.4" type="curve"/>
    </contour>
  </outline>
</glyph>
<glyph name="oe" format="2">
  <advance width="450.2"/>
  <unicode hex="0153"/>
  <outline>
    <contour>
      <point x="101.8" y="-10.0" type="curve" smooth="yes"/>
      <point x="152.2" y="-10.0"/>
      <point x="188.6" y="48.8"/>
      <point x="209.8" y="121.4" type="curve"/>
      <point x="221.0" y="35.6"/>
      <point x="257.4" y="-10.0"/>
      <point x="316.6" y="-10.0" type="curve" smooth="yes"/>
      <point x="348.8" y="-10.0"/>
      <point x="382.0" y="-2.2"/>
      <point x="405.8" y="13.0" type="curve"/>
      <point x="394.4" y="57.4" type="line"/>
      <point x="368.0" y="44.2"/>
      <point x="345.6" y="37.8"/>
      <point x="323.2" y="37.8" type="curve" smooth="yes"/>
      <point x="275.2" y="37.8"/>
      <point x="245.8" y="86.0"/>
      <point x="245.8" y="177.2" type="curve" smooth="yes"/>
      <point x="245.8" y="364.8"/>
      <point x="302.8" y="499.8"/>
      <point x="375.2" y="499.8" type="curve" smooth="yes"/>
      <point x="404.2" y="499.8"/>
      <point x="416.0" y="481.0"/>
      <point x="416.0" y="446.6" type="curve" smooth="yes"/>
      <point x="416.0" y="389.2"/>
      <point x="376.0" y="333.2"/>
      <point x="317.4" y="299.2" type="curve" smooth="yes"/>
      <point x="294.2" y="285.8"/>
      <point x="268.2" y="276.4"/>
      <point x="240.2" y="272.0" type="curve"/>
      <point x="231.6" y="230.4" type="line"/>
      <point x="263.0" y="234.8"/>
      <point x="295.6" y="244.4"/>
      <point x="324.2" y="259.0" type="curve" smooth="yes"/>
      <point x="403.6" y="299.4"/>
      <point x="460.0" y="373.0"/>
      <point x="460.0" y="456.0" type="curve" smooth="yes"/>
      <point x="460.0" y="510.4"/>
      <point x="433.0" y="544.0"/>
      <point x="382.0" y="544.0" type="curve" smooth="yes"/>
      <point x="330.0" y="544.0"/>
      <point x="286.6" y="504.0"/>
      <point x="257.0" y="439.6" type="curve"/>
      <point x="253.0" y="513.0"/>
      <point x="233.8" y="543.4"/>
      <point x="173.0" y="543.4" type="curve" smooth="yes"/>
      <point x="50.8" y="543.4"/>
      <point x="11.8" y="244.0"/>
      <point x="11.8" y="109.2" type="curve" smooth="yes"/>
      <point x="11.8" y="14.8"/>
      <point x="40.4" y="-10.0"/>
    </contour>
    <contour>
      <point x="102.6" y="35.400000000000006" type="curve" smooth="yes"/>
      <point x="75.2" y="35.400000000000006"/>
      <point x="57.8" y="46.400000000000006"/>
      <point x="57.8" y="108.0" type="curve" smooth="yes"/>
      <point x="57.8" y="189.6"/>
      <point x="93.2" y="498.0"/>
      <point x="172.6" y="498.0" type="curve" smooth="yes"/>
      <point x="200.0" y="498.0"/>
      <point x="217.4" y="487.4"/>
      <point x="217.4" y="425.8" type="curve" smooth="yes"/>
      <point x="217.4" y="343.8"/>
      <point x="182.0" y="35.400000000000006"/>
    </contour>
  </outline>
</glyph>
<glyph name="uni0162" format="2">
  <advance width="246.4"/>
  <unicode hex="0162"/>
  <anchor x="79.2978" y="0.0" name="_bottom"/>
  <anchor x="35.4" y="-220.0" name="bottom"/>
  <outline>
    <contour>
      <point x="-1.7999999999999998" y="-209.8" type="line"/>
      <point x="9.8" y="-217.6"/>
      <point x="23.0" y="-220.0"/>
      <point x="35.4" y="-220.0" type="curve" smooth="yes"/>
      <point x="85.8" y="-220.0"/>
      <point x="110.2" y="-161.6"/>
      <point x="110.2" y="-101.2" type="curve" smooth="yes"/>
      <point x="110.2" y="-66.6"/>
      <point x="105.6" y="-30.0"/>
      <point x="98.2" y="1.6" type="curve"/>
      <point x="64.6" y="1.4000000000000001" type="line"/>
      <point x="71.4" y="-34.0"/>
      <point x="76.0" y="-65.8"/>
      <point x="76.0" y="-95.4" type="curve" smooth="yes"/>
      <point x="76.0" y="-150.0"/>
      <point x="58.0" y="-181.6"/>
      <point x="32.4" y="-181.6" type="curve" smooth="yes"/>
      <point x="23.8" y="-181.6"/>
      <point x="16.2" y="-179.0"/>
      <point x="8.600000000000001" y="-174.4" type="curve"/>
    </contour>
    <component base="T"/>
  </outline>
</glyph>
<glyph name="Tbar" format="2">
  <advance width="249.6"/>
  <unicode hex="0166"/>
  <outline>
    <contour>
      <point x="303.8" y="654.4" type="line"/>
      <point x="311.2" y="700.0" type="line"/>
      <point x="72.6" y="700.0" type="line"/>
      <point x="65.2" y="654.4" type="line"/>
      <point x="160.6" y="654.4" type="line"/>
      <point x="118.4" y="393.4" type="line"/>
      <point x="45.2" y="393.4" type="line"/>
      <point x="37.0" y="347.0" type="line"/>
      <point x="111.6" y="347.0" type="line"/>
      <point x="56.6" y="0.0" type="line"/>
      <point x="103.8" y="0.0" type="line"/>
      <point x="158.8" y="347.0" type="line"/>
      <point x="234.8" y="347.0" type="line"/>
      <point x="243.0" y="393.4" type="line"/>
      <point x="166.4" y="393.4" type="line"/>
      <point x="207.8" y="654.4" type="line"/>
    </contour>
  </outline>
</glyph>
<glyph name="tbar" format="2">
  <advance width="180.6"/>
  <unicode hex="0167"/>
  <outline>
    <contour>
      <point x="11.0" y="299.6" type="line"/>
      <point x="189.2" y="299.6" type="line"/>
      <point x="196.0" y="339.0" type="line"/>
      <point x="17.6" y="339.0" type="line"/>
    </contour>
    <contour>
      <point x="146.0" y="42.6" type="line"/>
      <point x="134.8" y="39.8"/>
      <point x="124.2" y="38.0"/>
      <point x="115.2" y="38.0" type="curve" smooth="yes"/>
      <point x="82.6" y="38.0"/>
      <point x="68.8" y="55.0"/>
      <point x="68.8" y="90.2" type="curve" smooth="yes"/>
      <point x="68.8" y="101.2"/>
      <point x="70.6" y="113.2"/>
      <point x="72.4" y="127.8" type="curve" smooth="yes"/>
      <point x="130.0" y="488.8" type="line"/>
      <point x="221.4" y="488.8" type="line"/>
      <point x="229.0" y="534.0" type="line"/>
      <point x="137.6" y="534.0" type="line"/>
      <point x="157.6" y="662.8" type="line"/>
      <point x="118.4" y="662.8" type="line"/>
      <point x="90.2" y="534.0" type="line"/>
      <point x="42.6" y="528.0" type="line"/>
      <point x="36.0" y="489.0" type="line"/>
      <point x="82.6" y="489.0" type="line"/>
      <point x="24.4" y="123.6" type="line" smooth="yes"/>
      <point x="21.0" y="103.8"/>
      <point x="19.2" y="82.2"/>
      <point x="19.2" y="66.4" type="curve" smooth="yes"/>
      <point x="19.2" y="16.4"/>
      <point x="42.2" y="-10.0"/>
      <point x="92.6" y="-10.0" type="curve" smooth="yes"/>
      <point x="110.0" y="-10.0"/>
      <point x="128.0" y="-6.8"/>
      <point x="146.0" y="0.6000000000000001" type="curve"/>
    </contour>
  </outline>
</glyph>
<glyph name="uogonek" format="2">
  <advance width="291.2"/>
  <unicode hex="0173"/>
  <outline>
    <contour>
      <point x="192.2" y="-217.0" type="curve" smooth="yes"/>
      <point x="207.8" y="-217.0"/>
      <point x="221.4" y="-211.8"/>
      <point x="231.0" y="-204.6" type="curve"/>
      <point x="229.8" y="-167.2" type="line"/>
      <point x="225.0" y="-170.4"/>
      <point x="217.2" y="-174.0"/>
      <point x="207.8" y="-174.0" type="curve" smooth="yes"/>
      <point x="196.2" y="-174.0"/>
      <point x="189.0" y="-163.8"/>
      <point x="189.0" y="-145.8" type="curve" smooth="yes"/>
      <point x="189.0" y="-107.8"/>
      <point x="215.2" y="-51.8"/>
      <point x="257.8" y="3.0" type="curve"/>
      <point x="258.2" y="42.8" type="line"/>
      <point x="248.0" y="38.6"/>
      <point x="237.6" y="36.2"/>
      <point x="231.6" y="36.2" type="curve" smooth="yes"/>
      <point x="216.6" y="36.2"/>
      <point x="212.8" y="45.2"/>
      <point x="212.8" y="56.2" type="curve" smooth="yes"/>
      <point x="212.8" y="66.0"/>
      <point x="215.4" y="84.4"/>
      <point x="287.2" y="534.0" type="curve"/>
      <point x="240.2" y="534.0" type="line"/>
      <point x="165.8" y="62.400000000000006" type="line"/>
      <point x="143.0" y="44.6"/>
      <point x="114.4" y="36.2"/>
      <point x="99.4" y="36.2" type="curve" smooth="yes"/>
      <point x="74.6" y="36.2"/>
      <point x="61.8" y="51.2"/>
      <point x="62.2" y="74.8" type="curve" smooth="yes"/>
      <point x="65.8" y="109.2"/>
      <point x="72.0" y="146.8"/>
      <point x="132.6" y="534.0" type="curve"/>
      <point x="85.4" y="534.0" type="line"/>
      <point x="35.6" y="225.6"/>
      <point x="13.6" y="101.6"/>
      <point x="13.6" y="55.2" type="curve" smooth="yes"/>
      <point x="13.6" y="15.0"/>
      <point x="38.8" y="-10.0"/>
      <point x="80.0" y="-10.0" type="curve" smooth="yes"/>
      <point x="109.6" y="-10.0"/>
      <point x="135.6" y="1.4000000000000001"/>
      <point x="166.0" y="25.2" type="curve"/>
      <point x="170.4" y="2.4000000000000004"/>
      <point x="188.0" y="-10.0"/>
      <point x="211.4" y="-10.0" type="curve" smooth="yes"/>
      <point x="218.6" y="-10.0"/>
      <point x="225.0" y="-4.0"/>
      <point x="227.2" y="1.8000000000000007" type="curve"/>
      <point x="179.0" y="-56.8"/>
      <point x="145.4" y="-112.2"/>
      <point x="145.4" y="-164.6" type="curve" smooth="yes"/>
      <point x="145.4" y="-196.2"/>
      <point x="164.0" y="-217.0"/>
    </contour>
  </outline>
</glyph>
<glyph name="longs" format="2">
  <advance width="150.4"/>
  <unicode hex="017F"/>
  <outline>
    <contour>
      <point x="-69.4" y="-220.0" type="curve" smooth="yes"/>
      <point x="3.8000000000000007" y="-220.0"/>
      <point x="37.8" y="-163.8"/>
      <point x="54.6" y="-56.8" type="curve" smooth="yes"/>
      <point x="141.8" y="493.0" type="line" smooth="yes"/>
      <point x="165.6" y="644.8"/>
      <point x="194.8" y="701.4"/>
      <point x="248.4" y="701.4" type="curve" smooth="yes"/>
      <point x="260.8" y="701.4"/>
      <point x="275.2" y="698.4"/>
      <point x="287.4" y="695.0" type="curve"/>
      <point x="302.6" y="738.6" type="line"/>
      <point x="284.0" y="745.8"/>
      <point x="266.8" y="750.0"/>
      <point x="247.2" y="750.0" type="curve" smooth="yes"/>
      <point x="168.4" y="750.0"/>
      <point x="122.4" y="676.8"/>
      <point x="94.2" y="493.0" type="curve"/>
      <point x="40.0" y="486.8" type="line"/>
      <point x="33.6" y="447.8" type="line"/>
      <point x="87.0" y="447.8" type="line"/>
      <point x="8.8" y="-47.4" type="line" smooth="yes"/>
      <point x="-3.0" y="-121.4"/>
      <point x="-22.0" y="-169.4"/>
      <point x="-72.2" y="-169.4" type="curve" smooth="yes"/>
      <point x="-85.6" y="-169.4"/>
      <point x="-95.8" y="-167.8"/>
      <point x="-111.4" y="-162.8" type="curve"/>
      <point x="-125.4" y="-210.8" type="line"/>
      <point x="-108.0" y="-217.2"/>
      <point x="-90.2" y="-220.0"/>
    </contour>
  </outline>
</glyph>
<glyph name="uni018F" format="2">
  <advance width="306.4"/>
  <unicode hex="018F"/>
  <outline>
    <contour>
      <point x="92.6" y="-10.0" type="curve" smooth="yes"/>
      <point x="213.2" y="-10.0"/>
      <point x="306.2" y="223.8"/>
      <point x="306.2" y="521.0" type="curve" smooth="yes"/>
      <point x="306.2" y="661.4"/>
      <point x="263.4" y="710.0"/>
      <point x="189.0" y="710.0" type="curve" smooth="yes"/>
      <point x="145.6" y="710.0"/>
      <point x="101.2" y="698.6"/>
      <point x="62.0" y="675.8" type="curve"/>
      <point x="75.6" y="630.6" type="line"/>
      <point x="108.6" y="648.8"/>
      <point x="139.8" y="660.4"/>
      <point x="176.4" y="660.4" type="curve" smooth="yes"/>
      <point x="243.2" y="660.4"/>
      <point x="258.8" y="610.4"/>
      <point x="258.8" y="502.8" type="curve" smooth="yes"/>
      <point x="258.8" y="264.6"/>
      <point x="183.6" y="39.2"/>
      <point x="99.6" y="39.2" type="curve" smooth="yes"/>
      <point x="62.400000000000006" y="39.2"/>
      <point x="42.0" y="70.0"/>
      <point x="42.0" y="123.2" type="curve" smooth="yes"/>
      <point x="42.0" y="250.0"/>
      <point x="110.8" y="339.8"/>
      <point x="218.4" y="339.8" type="curve" smooth="yes"/>
      <point x="229.0" y="339.8"/>
      <point x="240.8" y="339.2"/>
      <point x="253.6" y="338.2" type="curve"/>
      <point x="256.4" y="384.6" type="line"/>
      <point x="246.2" y="386.2"/>
      <point x="236.6" y="386.2"/>
      <point x="226.0" y="386.2" type="curve" smooth="yes"/>
      <point x="80.8" y="386.2"/>
      <point x="-5.0" y="277.2"/>
      <point x="-5.0" y="113.8" type="curve" smooth="yes"/>
      <point x="-5.0" y="38.2"/>
      <point x="31.8" y="-10.0"/>
    </contour>
  </outline>
</glyph>
<glyph name="florin" format="2">
  <advance width="284.0"/>
  <unicode hex="0192"/>
  <outline>
    <contour>
      <point x="165.2" y="344.8" type="line"/>
      <point x="227.0" y="344.8" type="line"/>
      <point x="234.2" y="389.2" type="line"/>
      <point x="172.4" y="389.2" type="line"/>
      <point x="182.6" y="451.2" type="line" smooth="yes"/>
      <point x="206.2" y="600.8"/>
      <point x="228.0" y="659.2"/>
      <point x="272.0" y="659.2" type="curve" smooth="yes"/>
      <point x="282.0" y="659.2"/>
      <point x="289.8" y="657.2"/>
      <point x="300.4" y="653.0" type="curve"/>
      <point x="318.0" y="698.6" type="line"/>
      <point x="302.6" y="705.8"/>
      <point x="287.8" y="710.0"/>
      <point x="269.8" y="710.0" type="curve" smooth="yes"/>
      <point x="202.2" y="710.0"/>
      <point x="167.2" y="647.2"/>
      <point x="136.4" y="456.0" type="curve" smooth="yes"/>
      <point x="125.4" y="389.2" type="line"/>
      <point x="70.4" y="387.8" type="line"/>
      <point x="63.2" y="344.8" type="line"/>
      <point x="118.2" y="344.8" type="line"/>
      <point x="31.2" y="-210.0" type="line"/>
      <point x="78.2" y="-210.0" type="line"/>
    </contour>
  </outline>
</glyph>
<glyph name="uni0237" format="2">
  <advance width="138.8"/>
  <unicode hex="0237"/>
  <anchor x="-74.0" y="-210.0" name="bottom"/>
  <anchor x="113.6" y="534.0" name="top"/>
  <outline>
    <contour>
      <point x="138.2" y="534.0" type="line"/>
      <point x="90.4" y="534.0" type="line"/>
      <point x="-1.4000000000000004" y="-46.599999999999994" type="line" smooth="yes"/>
      <point x="-13.2" y="-120.6"/>
      <point x="-33.6" y="-168.2"/>
      <point x="-83.8" y="-168.2" type="curve" smooth="yes"/>
      <point x="-97.4" y="-168.2"/>
      <point x="-107.6" y="-166.6"/>
      <point x="-123.0" y="-161.6" type="curve"/>
      <point x="-136.0" y="-211.2" type="line"/>
      <point x="-118.6" y="-217.6"/>
      <point x="-99.4" y="-220.0"/>
      <point x="-79.6" y="-220.0" type="curve" smooth="yes"/>
      <point x="-6.399999999999999" y="-220.0"/>
      <point x="27.6" y="-164.8"/>
      <point x="44.6" y="-55.8" type="curve" smooth="yes"/>
    </contour>
  </outline>
</glyph>
<glyph name="uni0259" format="2">
  <advance width="274.6"/>
  <unicode hex="0259"/>
  <outline>
    <contour>
      <point x="221.4" y="270.8" type="curve"/>
      <point x="227.4" y="309.4" type="line"/>
      <point x="193.8" y="305.0"/>
      <point x="156.4" y="295.4"/>
      <point x="125.2" y="278.6" type="curve" smooth="yes"/>
      <point x="45.8" y="237.8"/>
      <point x="-10.6" y="165.2"/>
      <point x="-10.6" y="79.0" type="curve" smooth="yes"/>
      <point x="-10.6" y="25.6"/>
      <point x="16.4" y="-10.0"/>
      <point x="71.0" y="-10.0" type="curve" smooth="yes"/>
      <point x="184.6" y="-10.0"/>
      <point x="255.0" y="166.6"/>
      <point x="255.0" y="380.8" type="curve" smooth="yes"/>
      <point x="255.0" y="504.6"/>
      <point x="209.6" y="544.0"/>
      <point x="146.6" y="544.0" type="curve" smooth="yes"/>
      <point x="107.6" y="544.0"/>
      <point x="76.4" y="534.2"/>
      <point x="54.8" y="521.4" type="curve"/>
      <point x="66.2" y="477.8" type="line"/>
      <point x="89.4" y="489.4"/>
      <point x="110.8" y="497.0"/>
      <point x="136.8" y="497.0" type="curve" smooth="yes"/>
      <point x="175.2" y="497.0"/>
      <point x="210.4" y="474.6"/>
      <point x="210.4" y="374.8" type="curve" smooth="yes"/>
      <point x="210.4" y="187.2"/>
      <point x="150.6" y="33.400000000000006"/>
      <point x="78.2" y="33.400000000000006" type="curve" smooth="yes"/>
      <point x="45.2" y="33.400000000000006"/>
      <point x="33.8" y="56.2"/>
      <point x="33.8" y="88.4" type="curve" smooth="yes"/>
      <point x="33.8" y="149.0"/>
      <point x="73.8" y="207.0"/>
      <point x="132.0" y="241.0" type="curve" smooth="yes"/>
      <point x="157.8" y="256.6"/>
      <point x="188.6" y="266.4"/>
    </contour>
  </outline>
</glyph>
<glyph name="gravecomb" format="2">
  <unicode hex="0300"/>
  <anchor x="-96.6" y="534.0" name="_top"/>
  <anchor x="-99.8" y="725.8" name="top"/>
  <outline>
    <contour>
      <point x="-100.2" y="595.8" type="line"/>
      <point x="-62.8" y="595.8" type="line"/>
      <point x="-98.6" y="789.8" type="line"/>
      <point x="-146.8" y="789.8" type="line"/>
    </contour>
  </outline>
</glyph>
<glyph name="acutecomb" format="2">
  <unicode hex="0301"/>
  <anchor x="-96.6" y="534.0" name="_top"/>
  <anchor x="-33.400000000000006" y="725.8" name="top"/>
  <outline>
    <contour>
      <point x="-112.8" y="595.8" type="line"/>
      <point x="-74.8" y="595.8" type="line"/>
      <point x="34.0" y="789.8" type="line"/>
      <point x="-16.200000000000003" y="789.8" type="line"/>
    </contour>
  </outline>
</glyph>
<glyph name="uni0302" format="2">
  <unicode hex="0302"/>
  <anchor x="-96.6" y="534.0" name="_top"/>
  <anchor x="-61.2" y="750.6" name="top"/>
  <anchor x="27.4" y="667.8" name="top_viet"/>
  <outline>
    <contour>
      <point x="-170.2" y="595.8" type="line"/>
      <point x="-130.8" y="595.8" type="line"/>
      <point x="-60.400000000000006" y="755.4" type="line"/>
      <point x="-41.2" y="595.8" type="line"/>
      <point x="-2.6" y="595.8" type="line"/>
      <point x="-30.2" y="789.8" type="line"/>
      <point x="-81.0" y="789.8" type="line"/>
    </contour>
  </outline>
</glyph>
<glyph name="tildecomb" format="2">
  <unicode hex="0303"/>
  <anchor x="-96.8" y="534.0" name="_top"/>
  <anchor x="-78.4" y="645.6" name="top"/>
  <outline>
    <contour>
      <point x="-174.0" y="602.4" type="curve"/>
      <point x="-142.6" y="602.4" type="line"/>
      <point x="-142.6" y="604.6"/>
      <point x="-142.6" y="609.0"/>
      <point x="-142.6" y="611.2" type="curve" smooth="yes"/>
      <point x="-142.6" y="651.4"/>
      <point x="-128.6" y="684.2"/>
      <point x="-109.4" y="684.2" type="curve" smooth="yes"/>
      <point x="-81.6" y="684.2"/>
      <point x="-91.8" y="603.6"/>
      <point x="-46.4" y="603.6" type="curve" smooth="yes"/>
      <point x="-7.0" y="603.6"/>
      <point x="17.4" y="649.2"/>
      <point x="20.6" y="718.2" type="curve" smooth="yes"/>
      <point x="21.0" y="723.0"/>
      <point x="21.4" y="727.2"/>
      <point x="21.8" y="732.4" type="curve"/>
      <point x="-9.600000000000001" y="732.4" type="line"/>
      <point x="-9.600000000000001" y="729.8"/>
      <point x="-10.0" y="725.8"/>
      <point x="-10.0" y="724.0" type="curve" smooth="yes"/>
      <point x="-11.200000000000003" y="700.4"/>
      <point x="-17.6" y="646.4"/>
      <point x="-41.8" y="646.4" type="curve" smooth="yes"/>
      <point x="-68.0" y="646.4"/>
      <point x="-57.0" y="725.4"/>
      <point x="-106.8" y="725.4" type="curve" smooth="yes"/>
      <point x="-145.4" y="725.4"/>
      <point x="-169.6" y="684.2"/>
      <point x="-172.8" y="622.6" type="curve" smooth="yes"/>
      <point x="-173.2" y="616.6"/>
      <point x="-173.6" y="609.2"/>
    </contour>
  </outline>
</glyph>
<glyph name="uni0304" format="2">
  <unicode hex="0304"/>
  <anchor x="-96.8" y="534.0" name="_top"/>
  <anchor x="-68.0" y="715.0" name="top"/>
  <outline>
    <contour>
      <point x="-151.4" y="668.2" type="line"/>
      <point x="1.0" y="668.2" type="line"/>
      <point x="7.6" y="711.0" type="line"/>
      <point x="-144.8" y="711.0" type="line"/>
    </contour>
  </outline>
</glyph>
<glyph name="uni0306" format="2">
  <unicode hex="0306"/>
  <anchor x="-96.6" y="534.0" name="_top"/>
  <anchor x="-69.4" y="709.2" name="top"/>
  <outline>
    <contour>
      <point x="-85.8" y="603.2" type="curve" smooth="yes"/>
      <point x="-20.2" y="603.2"/>
      <point x="11.4" y="641.0"/>
      <point x="22.8" y="734.8" type="curve"/>
      <point x="-8.600000000000001" y="734.8" type="line"/>
      <point x="-15.8" y="677.2"/>
      <point x="-38.6" y="641.8"/>
      <point x="-79.4" y="641.8" type="curve" smooth="yes"/>
      <point x="-113.0" y="641.8"/>
      <point x="-126.6" y="661.8"/>
      <point x="-126.6" y="699.6" type="curve" smooth="yes"/>
      <point x="-126.6" y="713.2"/>
      <point x="-125.8" y="723.4"/>
      <point x="-123.0" y="734.8" type="curve"/>
      <point x="-153.6" y="734.8" type="line"/>
      <point x="-157.2" y="720.2"/>
      <point x="-159.4" y="699.8"/>
      <point x="-159.4" y="682.2" type="curve" smooth="yes"/>
      <point x="-159.4" y="624.2"/>
      <point x="-133.4" y="603.2"/>
    </contour>
  </outline>
</glyph>
<glyph name="uni0307" format="2">
  <unicode hex="0307"/>
  <anchor x="-96.6" y="534.0" name="_top"/>
  <anchor x="-76.6" y="655.4" name="top"/>
  <outline>
    <contour>
      <point x="-77.0" y="658.6" type="curve" smooth="yes"/>
      <point x="-53.6" y="658.6"/>
      <point x="-46.6" y="680.6"/>
      <point x="-46.6" y="700.6" type="curve" smooth="yes"/>
      <point x="-46.6" y="715.8"/>
      <point x="-53.0" y="722.2"/>
      <point x="-67.6" y="722.2" type="curve" smooth="yes"/>
      <point x="-90.0" y="722.2"/>
      <point x="-97.2" y="699.0"/>
      <point x="-97.2" y="678.4" type="curve" smooth="yes"/>
      <point x="-97.2" y="664.0"/>
      <point x="-90.0" y="658.6"/>
    </contour>
  </outline>
</glyph>
<glyph name="uni0308" format="2">
  <unicode hex="0308"/>
  <anchor x="-96.6" y="534.0" name="_top"/>
  <anchor x="-77.8" y="655.4" name="top"/>
  <outline>
    <contour>
      <point x="-24.200000000000003" y="659.8" type="curve" smooth="yes"/>
      <point x="-7.4" y="659.8"/>
      <point x="1.7999999999999998" y="671.8"/>
      <point x="4.0" y="696.2" type="curve" smooth="yes"/>
      <point x="6.4" y="716.0"/>
      <point x="0.0" y="723.4"/>
      <point x="-14.4" y="723.4" type="curve" smooth="yes"/>
      <point x="-31.0" y="723.4"/>
      <point x="-40.400000000000006" y="709.6"/>
      <point x="-42.8" y="685.0" type="curve" smooth="yes"/>
      <point x="-45.0" y="666.2"/>
      <point x="-38.0" y="659.8"/>
    </contour>
    <contour>
      <point x="-131.2" y="659.8" type="curve" smooth="yes"/>
      <point x="-114.4" y="659.8"/>
      <point x="-105.0" y="671.8"/>
      <point x="-102.8" y="696.2" type="curve" smooth="yes"/>
      <point x="-100.4" y="716.0"/>
      <point x="-107.4" y="723.4"/>
      <point x="-121.4" y="723.4" type="curve" smooth="yes"/>
      <point x="-138.8" y="723.4"/>
      <point x="-147.2" y="707.2"/>
      <point x="-149.6" y="685.0" type="curve" smooth="yes"/>
      <point x="-151.8" y="666.2"/>
      <point x="-145.4" y="659.8"/>
    </contour>
  </outline>
</glyph>
<glyph name="hookabovecomb" format="2">
  <unicode hex="0309"/>
  <anchor x="-96.8" y="534.0" name="_top"/>
  <anchor x="-54.0" y="796.4" name="top"/>
  <outline>
    <contour>
      <point x="-93.4" y="605.2" type="line"/>
      <point x="-27.0" y="641.8"/>
      <point x="-3.0" y="682.6"/>
      <point x="-3.0" y="729.6" type="curve" smooth="yes"/>
      <point x="-3.0" y="768.2"/>
      <point x="-26.0" y="794.0"/>
      <point x="-63.2" y="794.0" type="curve" smooth="yes"/>
      <point x="-82.4" y="794.0"/>
      <point x="-101.4" y="788.2"/>
      <point x="-118.2" y="771.8" type="curve"/>
      <point x="-111.0" y="737.8" type="line"/>
      <point x="-96.4" y="749.6"/>
      <point x="-85.4" y="753.4"/>
      <point x="-72.4" y="753.4" type="curve" smooth="yes"/>
      <point x="-54.6" y="753.4"/>
      <point x="-43.8" y="740.4"/>
      <point x="-43.8" y="720.8" type="curve" smooth="yes"/>
      <point x="-43.8" y="692.0"/>
      <point x="-60.400000000000006" y="664.0"/>
      <point x="-101.6" y="633.2" type="curve"/>
    </contour>
  </outline>
</glyph>
<glyph name="uni030A" format="2">
  <unicode hex="030A"/>
  <anchor x="-96.6" y="534.0" name="_top"/>
  <anchor x="-62.6" y="749.2" name="top"/>
  <outline>
    <contour>
      <point x="-81.0" y="611.0" type="curve" smooth="yes"/>
      <point x="-38.6" y="611.0"/>
      <point x="-8.2" y="649.4"/>
      <point x="-8.2" y="712.2" type="curve" smooth="yes"/>
      <point x="-8.2" y="755.4"/>
      <point x="-27.8" y="778.6"/>
      <point x="-60.6" y="778.6" type="curve" smooth="yes"/>
      <point x="-103.8" y="778.6"/>
      <point x="-133.4" y="739.4"/>
      <point x="-133.4" y="675.0" type="curve" smooth="yes"/>
      <point x="-133.4" y="633.4"/>
      <point x="-113.8" y="611.0"/>
    </contour>
    <contour>
      <point x="-78.0" y="641.6" type="curve" smooth="yes"/>
      <point x="-94.0" y="641.6"/>
      <point x="-102.2" y="653.6"/>
      <point x="-102.2" y="673.2" type="curve" smooth="yes"/>
      <point x="-102.2" y="718.8"/>
      <point x="-86.4" y="748.0"/>
      <point x="-63.6" y="748.0" type="curve" smooth="yes"/>
      <point x="-47.6" y="748.0"/>
      <point x="-39.400000000000006" y="735.2"/>
      <point x="-39.400000000000006" y="714.8" type="curve" smooth="yes"/>
      <point x="-39.400000000000006" y="670.0"/>
      <point x="-56.0" y="641.6"/>
    </contour>
  </outline>
</glyph>
<glyph name="uni030B" format="2">
  <unicode hex="030B"/>
  <anchor x="-96.6" y="534.0" name="_top"/>
  <anchor x="-26.6" y="789.8" name="top"/>
  <outline>
    <contour>
      <point x="-67.0" y="595.8" type="line"/>
      <point x="-33.8" y="595.8" type="line"/>
      <point x="68.4" y="789.8" type="line"/>
      <point x="25.799999999999997" y="789.8" type="line"/>
    </contour>
    <contour>
      <point x="-152.6" y="595.8" type="line"/>
      <point x="-119.4" y="595.8" type="line"/>
      <point x="-17.200000000000003" y="789.8" type="line"/>
      <point x="-60.0" y="789.8" type="line"/>
    </contour>
  </outline>
</glyph>
<glyph name="uni030F" format="2">
  <unicode hex="030F"/>
  <anchor x="-96.6" y="534.0" name="_top"/>
  <anchor x="-97.0" y="789.8" name="top"/>
  <outline>
    <contour>
      <point x="-144.2" y="595.8" type="line"/>
      <point x="-110.8" y="595.8" type="line"/>
      <point x="-138.6" y="789.8" type="line"/>
      <point x="-182.8" y="789.8" type="line"/>
    </contour>
    <contour>
      <point x="-58.0" y="595.8" type="line"/>
      <point x="-24.6" y="595.8" type="line"/>
      <point x="-52.4" y="789.8" type="line"/>
      <point x="-96.6" y="789.8" type="line"/>
    </contour>
  </outline>
</glyph>
<glyph name="uni0312" format="2">
  <unicode hex="0312"/>
  <anchor x="-96.6" y="534.0" name="_top"/>
  <outline>
    <contour>
      <point x="-62.6" y="594.4" type="line"/>
      <point x="-64.2" y="604.4"/>
      <point x="-64.2" y="615.6"/>
      <point x="-63.6" y="627.8" type="curve" smooth="yes"/>
      <point x="-62.6" y="675.0"/>
      <point x="-46.8" y="730.2"/>
      <point x="-21.4" y="779.8" type="curve"/>
      <point x="-55.6" y="779.8" type="line"/>
      <point x="-84.4" y="731.2"/>
      <point x="-102.8" y="671.6"/>
      <point x="-103.6" y="621.0" type="curve" smooth="yes"/>
      <point x="-103.6" y="611.4"/>
      <point x="-103.6" y="602.4"/>
      <point x="-102.0" y="594.4" type="curve"/>
    </contour>
  </outline>
</glyph>
<glyph name="uni031B" format="2">
  <unicode hex="031B"/>
  <anchor x="-49.6" y="534.0" name="_topright"/>
  <anchor x="81.0" y="679.0" name="topright"/>
  <outline>
    <contour>
      <point x="-65.0" y="496.2" type="line"/>
      <point x="-55.6" y="496.2" type="line" smooth="yes"/>
      <point x="15.399999999999999" y="496.2"/>
      <point x="55.6" y="572.8"/>
      <point x="39.6" y="678.4" type="curve"/>
      <point x="-3.0" y="675.8" type="line"/>
      <point x="12.0" y="594.0"/>
      <point x="-10.600000000000001" y="534.0"/>
      <point x="-57.2" y="534.0" type="curve" smooth="yes"/>
      <point x="-67.6" y="534.0" type="line"/>
    </contour>
  </outline>
</glyph>
<glyph name="uni0326" format="2">
  <unicode hex="0326"/>
  <anchor x="-180.6" y="0.0" name="_bottom"/>
  <anchor x="-236.0" y="-213.2" name="bottom"/>
  <outline>
    <contour>
      <point x="-213.6" y="-66.2" type="line"/>
      <point x="-213.6" y="-76.2"/>
      <point x="-214.6" y="-87.2"/>
      <point x="-216.6" y="-98.2" type="curve" smooth="yes"/>
      <point x="-223.0" y="-135.0"/>
      <point x="-234.8" y="-172.6"/>
      <point x="-260.0" y="-217.2" type="curve"/>
      <point x="-222.2" y="-217.2" type="line"/>
      <point x="-197.6" y="-179.6"/>
      <point x="-182.0" y="-142.4"/>
      <point x="-173.4" y="-94.2" type="curve" smooth="yes"/>
      <point x="-171.6" y="-83.8"/>
      <point x="-170.6" y="-74.2"/>
      <point x="-170.6" y="-66.2" type="curve"/>
    </contour>
  </outline>
</glyph>
<glyph name="uni0327" format="2">
  <unicode hex="0327"/>
  <anchor x="-180.8" y="0.0" name="_bottom"/>
  <anchor x="-224.4" y="-220.0" name="bottom"/>
  <outline>
    <contour>
      <point x="-261.8" y="-210.0" type="line"/>
      <point x="-250.2" y="-217.6"/>
      <point x="-237.0" y="-220.0"/>
      <point x="-224.4" y="-220.0" type="curve" smooth="yes"/>
      <point x="-174.2" y="-220.0"/>
      <point x="-149.6" y="-161.6"/>
      <point x="-149.6" y="-101.4" type="curve" smooth="yes"/>
      <point x="-149.6" y="-66.6"/>
      <point x="-154.2" y="-30.0"/>
      <point x="-162.6" y="1.6" type="curve"/>
      <point x="-196.2" y="1.6" type="line"/>
      <point x="-188.6" y="-34.0"/>
      <point x="-184.0" y="-65.8"/>
      <point x="-184.0" y="-95.6" type="curve" smooth="yes"/>
      <point x="-184.0" y="-150.2"/>
      <point x="-201.8" y="-181.8"/>
      <point x="-227.6" y="-181.8" type="curve" smooth="yes"/>
      <point x="-236.0" y="-181.8"/>
      <point x="-243.6" y="-179.2"/>
      <point x="-251.4" y="-174.6" type="curve"/>
    </contour>
  </outline>
</glyph>
<glyph name="uni0328" format="2">
  <unicode hex="0328"/>
  <anchor x="-161.8" y="0.0" name="_ogonek"/>
  <outline>
    <contour>
      <point x="-194.0" y="2.0" type="line"/>
      <point x="-247.2" y="-67.4"/>
      <point x="-274.2" y="-121.2"/>
      <point x="-274.2" y="-167.8" type="curve" smooth="yes"/>
      <point x="-274.2" y="-200.0"/>
      <point x="-255.0" y="-220.0"/>
      <point x="-227.4" y="-220.0" type="curve" smooth="yes"/>
      <point x="-211.8" y="-220.0"/>
      <point x="-198.2" y="-215.0"/>
      <point x="-188.8" y="-207.6" type="curve"/>
      <point x="-189.8" y="-170.2" type="line"/>
      <point x="-197.2" y="-174.4"/>
      <point x="-204.2" y="-177.0"/>
      <point x="-211.8" y="-177.0" type="curve" smooth="yes"/>
      <point x="-223.4" y="-177.0"/>
      <point x="-230.6" y="-166.2"/>
      <point x="-230.6" y="-148.8" type="curve" smooth="yes"/>
      <point x="-230.6" y="-110.2"/>
      <point x="-203.8" y="-54.2"/>
      <point x="-161.8" y="0.0" type="curve"/>
    </contour>
  </outline>
</glyph>
<glyph name="uni0335" format="2">
  <unicode hex="0335"/>
  <anchor x="-50.6" y="350.0" name="_center"/>
  <outline>
    <contour>
      <point x="-158.8" y="325.6" type="line"/>
      <point x="49.0" y="325.6" type="line"/>
      <point x="57.4" y="374.4" type="line"/>
      <point x="-150.4" y="374.4" type="line"/>
    </contour>
  </outline>
</glyph>
<glyph name="pi" format="2">
  <advance width="329.0"/>
  <unicode hex="03C0"/>
  <outline>
    <contour>
      <point x="214.8" y="-10.0" type="curve" smooth="yes"/>
      <point x="230.2" y="-10.0"/>
      <point x="243.6" y="-6.0"/>
      <point x="259.6" y="2.2" type="curve"/>
      <point x="259.8" y="49.800000000000004" type="line"/>
      <point x="251.2" y="45.6"/>
      <point x="243.8" y="43.800000000000004"/>
      <point x="236.6" y="43.800000000000004" type="curve" smooth="yes"/>
      <point x="228.6" y="43.800000000000004"/>
      <point x="224.0" y="48.2"/>
      <point x="224.0" y="58.6" type="curve" smooth="yes"/>
      <point x="224.0" y="61.800000000000004"/>
      <point x="223.4" y="65.0"/>
      <point x="290.0" y="481.8" type="curve"/>
      <point x="330.4" y="481.8" type="line"/>
      <point x="338.0" y="534.0" type="line"/>
      <point x="199.2" y="534.0" type="line" smooth="yes"/>
      <point x="136.4" y="534.0"/>
      <point x="101.4" y="527.6"/>
      <point x="64.0" y="495.6" type="curve"/>
      <point x="61.8" y="450.2" type="line"/>
      <point x="88.2" y="470.6"/>
      <point x="110.2" y="477.4"/>
      <point x="125.4" y="479.8" type="curve"/>
      <point x="92.4" y="349.0"/>
      <point x="42.8" y="108.4"/>
      <point x="5.0" y="0.0" type="curve"/>
      <point x="52.2" y="0.0" type="line"/>
      <point x="92.2" y="116.0"/>
      <point x="141.6" y="353.8"/>
      <point x="172.0" y="481.8" type="curve"/>
      <point x="244.2" y="481.8" type="line"/>
      <point x="175.0" y="46.8"/>
      <point x="175.2" y="39.0"/>
      <point x="175.2" y="31.8" type="curve" smooth="yes"/>
      <point x="175.2" y="5.8"/>
      <point x="185.6" y="-10.0"/>
    </contour>
  </outline>
</glyph>
<glyph name="endash" format="2">
  <advance width="297.6"/>
  <unicode hex="2013"/>
  <outline>
    <contour>
      <point x="6.8" y="250.8" type="line"/>
      <point x="283.0" y="250.8" type="line"/>
      <point x="291.2" y="300.4" type="line"/>
      <point x="15.0" y="300.4" type="line"/>
    </contour>
  </outline>
</glyph>
<glyph name="emdash" format="2">
  <advance width="557.0"/>
  <unicode hex="2014"/>
  <outline>
    <contour>
      <point x="0.40000000000000036" y="250.8" type="line"/>
      <point x="548.8" y="250.8" type="line"/>
      <point x="557.0" y="300.4" type="line"/>
      <point x="8.6" y="300.4" type="line"/>
    </contour>
  </outline>
</glyph>
<glyph name="quoteleft" format="2">
  <advance width="118.2"/>
  <unicode hex="2018"/>
  <outline>
    <contour>
      <point x="48.2" y="430.0" type="curve"/>
      <point x="92.8" y="430.0" type="line"/>
      <point x="103.6" y="528.8"/>
      <point x="128.0" y="611.0"/>
      <point x="174.2" y="695.6" type="curve"/>
      <point x="136.0" y="700.0" type="line"/>
      <point x="88.6" y="626.8"/>
      <point x="58.4" y="528.4"/>
    </contour>
  </outline>
</glyph>
<glyph name="quoteright" format="2">
  <advance width="118.2"/>
  <unicode hex="2019"/>
  <outline>
    <contour>
      <point x="162.0" y="700.0" type="curve"/>
      <point x="117.4" y="700.0" type="line"/>
      <point x="106.6" y="601.2"/>
      <point x="82.2" y="519.0"/>
      <point x="36.0" y="434.4" type="curve"/>
      <point x="74.2" y="430.0" type="line"/>
      <point x="121.6" y="503.2"/>
      <point x="151.8" y="601.6"/>
    </contour>
  </outline>
</glyph>
<glyph name="dagger" format="2">
  <advance width="281.6"/>
  <unicode hex="2020"/>
  <outline>
    <contour>
      <point x="39.0" y="-210.0" type="line"/>
      <point x="86.8" y="-210.0" type="line"/>
      <point x="196.8" y="482.4" type="line"/>
      <point x="288.6" y="482.4" type="line"/>
      <point x="296.6" y="534.0" type="line"/>
      <point x="205.0" y="534.0" type="line"/>
      <point x="237.4" y="740.0" type="line"/>
      <point x="189.6" y="740.0" type="line"/>
      <point x="157.0" y="534.0" type="line"/>
      <point x="66.4" y="534.0" type="line"/>
      <point x="58.2" y="482.4" type="line"/>
      <point x="149.0" y="482.4" type="line"/>
    </contour>
  </outline>
</glyph>
<glyph name="daggerdbl" format="2">
  <advance width="281.6"/>
  <unicode hex="2021"/>
  <outline>
    <contour>
      <point x="212.4" y="-2.0" type="line"/>
      <point x="220.6" y="49.6" type="line"/>
      <point x="128.8" y="49.6" type="line"/>
      <point x="198.0" y="482.4" type="line"/>
      <point x="289.8" y="482.4" type="line"/>
      <point x="297.8" y="534.0" type="line"/>
      <point x="206.2" y="534.0" type="line"/>
      <point x="238.6" y="740.0" type="line"/>
      <point x="190.8" y="740.0" type="line"/>
      <point x="158.2" y="534.0" type="line"/>
      <point x="67.6" y="534.0" type="line"/>
      <point x="59.4" y="482.4" type="line"/>
      <point x="150.2" y="482.4" type="line"/>
      <point x="81.0" y="49.6" type="line"/>
      <point x="-9.6" y="49.6" type="line"/>
      <point x="-17.8" y="-2.0" type="line"/>
      <point x="73.0" y="-2.0" type="line"/>
      <point x="40.2" y="-210.0" type="line"/>
      <point x="88.0" y="-210.0" type="line"/>
      <point x="120.8" y="-2.0" type="line"/>
    </contour>
  </outline>
</glyph>
<glyph name="bullet" format="2">
  <advance width="240.0"/>
  <unicode hex="2022"/>
  <outline>
    <contour>
      <point x="110.4" y="220.4" type="curve" smooth="yes"/>
      <point x="161.8" y="220.4"/>
      <point x="210.2" y="271.6"/>
      <point x="210.2" y="326.4" type="curve" smooth="yes"/>
      <point x="210.2" y="369.6"/>
      <point x="180.8" y="402.8"/>
      <point x="139.8" y="402.8" type="curve" smooth="yes"/>
      <point x="87.0" y="402.8"/>
      <point x="40.6" y="350.6"/>
      <point x="40.6" y="295.2" type="curve" smooth="yes"/>
      <point x="40.6" y="253.0"/>
      <point x="69.4" y="220.4"/>
    </contour>
  </outline>
</glyph>
